<?xml version="1.0" encoding="UTF-8" standalone="no"?>
<!-- Created with Inkscape (http://www.inkscape.org/) -->

<svg
   width="85.979576mm"
   height="85.460419mm"
   viewBox="0 0 85.979576 85.460419"
   version="1.1"
   id="svg5"
   xml:space="preserve"
   xmlns="http://www.w3.org/2000/svg"
   xmlns:svg="http://www.w3.org/2000/svg"><defs
     id="defs2" /><g
     id="layer1"
     transform="translate(-51.752149,-78.624631)"><g
       style="fill:none"
       id="g191"
       transform="matrix(0.26458333,0,0,0.26458333,51.752149,78.624631)"><path
         d="m 162.665,322.5 h 0.011 121.537 c 8.308,0 15.484,-4.698 18.737,-12.341 3.252,-7.641 1.685,-16.133 -4.037,-22.091 0,0 0,0 0,0 L 266.842,254.636 C 298.708,234.848 325.321,201.63 324.441,144.788 323.675,93.8528 302.86,53.6441 264.21,28.5296 225.241,3.20239 180.222,0.5 162.676,0.5 125.674,0.5 86.433,12.3293 57.6064,32.1182 l 0.2775,0.4043 -0.2775,-0.4042 C 20.2687,57.7533 0.5,95.3685 0.5,140.803 c 0,70.424 26.4634,115.56 59.9949,143.234 33.5118,27.658 74.0451,37.844 102.1701,38.463 z m -0.799,-303.3838 -0.058,0.116 h 0.81 c 67.284,0 102.955,26.2462 121.867,55.0555 18.936,28.8453 21.12,60.3373 21.267,70.8673 v 0 c 0.234,16.199 -1.409,33.555 -8.889,50.121 -7.439,16.476 -20.668,32.208 -43.648,45.246 l -65.669,-68.416 c 0,0 -0.001,0 -0.001,-0.001 -5.55,-5.845 -13.995,-7.65 -21.528,-4.64 -7.537,3.012 -12.362,10.184 -12.362,18.255 v 78.386 c 0,6.138 2.711,11.914 7.406,15.883 l 0.002,0.002 c 4.695,3.909 10.839,5.596 16.865,4.512 16.682,-2.924 44.734,-7.896 71.909,-20.614 l 35.602,37.085 0.007,0.007 c 0.369,0.369 0.502,0.706 0.532,0.992 0.032,0.294 -0.04,0.584 -0.163,0.855 l -0.005,0.01 -0.004,0.011 c -0.185,0.46 -0.624,1.036 -1.593,1.036 H 162.858 c -2.936,-0.059 -38.87,-1.4 -74.0636,-22.425 C 53.6213,260.448 19.131,219.742 19.131,140.803 19.131,116.349 28.6825,85.926 51.3933,61.6206 73.9762,37.4522 109.599,19.3019 161.866,19.1162 Z m 11.625,165.4598 h 0.373 c 0.03,0.018 0.061,0.038 0.091,0.058 0.071,0.05 0.13,0.1 0.17,0.137 0.019,0.018 0.034,0.033 0.042,0.042 l 0.007,0.007 h 0.001 v 0 0 l 10e-4,0.001 v 0 0.001 l 0.005,0.005 0.006,0.006 61.559,64.182 c -16.352,6.904 -36.436,12.725 -60.991,17.065 l -0.005,0.001 c -0.759,0.142 -1.316,-0.139 -1.64,-0.417 l -0.005,-0.005 c -0.292,-0.242 -0.761,-0.761 -0.761,-1.612 v -78.385 c 0,-0.142 0.004,-0.312 0.082,-0.486 0.07,-0.156 0.221,-0.361 0.608,-0.52 l 0.017,-0.007 0.016,-0.008 c 0.034,-0.017 0.122,-0.04 0.243,-0.053 0.053,-0.006 0.1,-0.009 0.134,-0.01 0.017,-0.001 0.03,-0.001 0.038,-0.002 h 0.008 v 0 0 z"
         fill="#041220"
         stroke="#041220"
         id="path182"
         style="stroke:none" /></g></g></svg>
