<?xml version="1.0" encoding="UTF-8" standalone="no"?>
<!-- Created with Inkscape (http://www.inkscape.org/) -->

<svg
   width="85.715004mm"
   height="85.195839mm"
   viewBox="0 0 85.715004 85.195839"
   version="1.1"
   id="svg5"
   xml:space="preserve"
   xmlns="http://www.w3.org/2000/svg"
   xmlns:svg="http://www.w3.org/2000/svg"><defs
     id="defs2" /><g
     id="layer1"
     transform="translate(-93.755502,-70.240794)"><path
       d="m 136.66156,155.43663 h 0.003 32.15666 c 2.19816,0 4.09681,-1.24302 4.9575,-3.26523 0.86042,-2.02168 0.44582,-4.26852 -1.06812,-5.84491 0,0 0,0 0,0 l -8.48546,-8.84555 c 8.43123,-5.23557 15.47258,-14.0245 15.23975,-29.06395 -0.20267,-13.476602 -5.70997,-24.115153 -15.93612,-30.760032 -10.31055,-6.701157 -22.22182,-7.416164 -26.8642,-7.416164 -9.79011,0 -20.17263,3.129835 -27.79967,8.365648 l 0.0734,0.106971 -0.0734,-0.106944 c -9.878929,6.782593 -15.109398,16.734948 -15.109398,28.756161 0,18.63301 7.001778,30.57525 15.873648,37.89733 8.86667,7.31784 19.5911,10.01289 27.03251,10.17667 z m -0.2114,-80.2703 -0.0154,0.03069 h 0.21431 c 17.80222,0 27.24018,6.944307 32.24398,14.566767 5.01015,7.631986 5.588,15.964243 5.62689,18.750303 v 0 c 0.0619,4.28599 -0.3728,8.8781 -2.35188,13.26119 -1.96824,4.35927 -5.46841,8.5217 -11.54854,11.97133 l -17.37491,-18.10173 c 0,0 -2.7e-4,0 -2.7e-4,-2.6e-4 -1.46844,-1.54649 -3.70284,-2.02407 -5.69595,-1.22767 -1.99416,0.79692 -3.27078,2.69452 -3.27078,4.82997 v 20.73963 c 0,1.62401 0.71729,3.15224 1.95951,4.20237 l 5.3e-4,5.3e-4 c 1.24221,1.03426 2.86781,1.48061 4.46219,1.1938 4.41378,-0.77364 11.83587,-2.08915 19.02593,-5.45412 l 9.41969,9.81207 0.002,0.002 c 0.0976,0.0976 0.13282,0.1868 0.14076,0.26247 0.008,0.0778 -0.0106,0.15452 -0.0431,0.22622 l -10e-4,0.003 -0.001,0.003 c -0.0489,0.12171 -0.1651,0.27411 -0.42148,0.27411 H 136.7131 c -0.77681,-0.0156 -10.28435,-0.37041 -19.59599,-5.93327 -9.30622,-5.55943 -18.431776,-16.32956 -18.431776,-37.2155 0,-6.47012 2.527166,-14.519543 8.536066,-20.950346 5.97506,-6.394556 15.40026,-11.196823 29.22924,-11.245956 z m 3.07578,43.7779 h 0.0987 c 0.008,0.005 0.0161,0.01 0.0241,0.0153 0.0188,0.0132 0.0344,0.0265 0.045,0.0362 0.005,0.005 0.009,0.009 0.0111,0.0111 l 0.002,0.002 h 2.6e-4 v 0 0 l 2.7e-4,2.7e-4 v 0 2.6e-4 l 0.001,0.001 0.002,0.002 16.28748,16.98149 c -4.32647,1.82668 -9.64036,3.36682 -16.1372,4.51511 l -0.001,2.7e-4 c -0.20082,0.0376 -0.34819,-0.0368 -0.43392,-0.11033 l -10e-4,-0.001 c -0.0773,-0.064 -0.20135,-0.20135 -0.20135,-0.42651 v -20.73943 c 0,-0.0376 0.001,-0.0826 0.0217,-0.12859 0.0185,-0.0413 0.0585,-0.0955 0.16087,-0.13758 l 0.004,-0.002 0.004,-0.002 c 0.009,-0.004 0.0323,-0.0106 0.0643,-0.014 0.014,-0.002 0.0265,-0.002 0.0354,-0.003 0.004,-2.6e-4 0.008,-2.6e-4 0.01,-5.3e-4 h 0.002 v 0 0 z"
       fill="#041220"
       stroke="#041220"
       id="path182"
       style="stroke:none;stroke-width:0.264583" /></g></svg>
