<?xml version="1.0" encoding="UTF-8" standalone="no"?>
<!-- Created with Inkscape (http://www.inkscape.org/) -->

<svg
   width="98.494087mm"
   height="102.38033mm"
   viewBox="0 0 98.494087 102.38033"
   version="1.1"
   id="svg5"
   xml:space="preserve"
   xmlns="http://www.w3.org/2000/svg"
   xmlns:svg="http://www.w3.org/2000/svg"><defs
     id="defs2" /><g
     id="layer1"
     transform="translate(-54.339847,-33.484461)"><path
       style="fill:#000000;stroke-width:0.242787"
       d="m 86.931702,135.27025 c -0.290944,-0.14064 -0.66114,-0.57477 -0.822656,-0.9647 -0.26309,-0.63516 -0.202577,-0.90382 0.581257,-2.58058 2.104373,-4.50161 2.166033,-9.18956 0.191834,-14.58488 C 85.095,112.25599 82.339828,108.65544 74.130523,100.4759 67.108274,93.479105 65.23364,91.441598 63.188526,88.583251 59.499361,83.427098 57.795318,79.214996 57.200077,73.780825 c -0.645234,-5.890583 1.250278,-12.933528 4.90293,-18.217276 1.674091,-2.421659 5.376771,-5.944957 7.169273,-6.821947 1.611446,-0.788406 3.723657,-1.033165 5.072982,-0.58785 1.1523,0.380296 2.53575,1.597739 2.95452,2.599996 0.803989,1.924213 0.285806,3.841987 -1.984031,7.342858 -1.341578,2.069176 -2.512216,4.714749 -3.17499,7.175284 -0.636903,2.364491 -0.659617,9.234907 -0.03797,11.484217 1.565691,5.665147 5.159127,10.620182 9.981427,13.763513 3.045841,1.98538 5.195242,2.829122 7.576138,2.973991 1.830245,0.111367 2.003067,0.07931 2.670663,-0.495396 0.64266,-0.553239 0.712277,-0.755619 0.698642,-2.031021 -0.01809,-1.69134 -0.431897,-2.569313 -2.562719,-5.437184 -2.214987,-2.981144 -2.939246,-4.552244 -3.075212,-6.670905 -0.306633,-4.77801 2.953318,-7.824799 7.081631,-6.618576 1.849975,0.540532 3.831181,2.872627 6.901849,8.124228 6.49522,11.108421 9.69504,17.641838 12.10899,24.724283 1.01379,2.97441 2.42186,8.59133 2.64242,10.54087 0.1508,1.33285 0.11622,1.48736 -0.46225,2.06582 -0.64925,0.64926 -1.56345,0.80168 -2.33419,0.38918 -0.5733,-0.3068 -0.6227,-0.45411 -1.33915,-3.99253 -1.87692,-9.26981 -5.67098,-17.872376 -14.406058,-32.664071 -2.530329,-4.284775 -3.656431,-5.595163 -4.808281,-5.595163 -0.907676,0 -1.390891,0.544645 -1.669734,1.882003 -0.259015,1.242261 0.440236,2.869024 2.321842,5.401621 2.130512,2.867619 2.837985,4.226942 3.26882,6.280653 1.139951,5.433908 -2.987728,9.029287 -8.921493,7.77098 -4.829736,-1.024195 -10.651889,-4.821543 -14.12319,-9.211492 -4.27634,-5.408036 -6.177604,-11.188745 -5.903944,-17.950665 0.207515,-5.127571 1.587335,-9.596768 4.238703,-13.729052 1.724036,-2.686997 2.072165,-3.557806 1.652027,-4.132379 -0.497657,-0.680584 -1.875217,-0.530695 -3.253989,0.354061 -1.373535,0.881395 -4.227814,3.780668 -5.361605,5.446122 -1.28627,1.889435 -2.880294,5.490127 -3.465031,7.827048 -0.725668,2.900163 -0.775227,8.351477 -0.099,10.89035 1.00712,3.781216 2.917254,7.384524 5.913151,11.154659 0.969887,1.220537 5.017316,5.496789 8.994289,9.502783 9.019833,9.085652 11.624581,12.434022 13.724298,17.642362 2.664066,6.60821 2.720798,12.77594 0.166142,18.06215 -1.142551,2.36423 -1.951612,2.91051 -3.326275,2.2459 z m 33.695168,-6.48375 c -0.64637,-0.64636 -0.82964,-2.09581 -0.53388,-4.22223 0.67346,-4.84206 3.08476,-7.94615 7.31934,-9.4223 1.37375,-0.47888 2.17913,-0.55867 6.58946,-0.65286 l 5.02443,-0.10731 -0.0271,-3.91802 c -0.0233,-3.36391 0.0444,-4.13474 0.4782,-5.45047 l 0.5053,-1.53246 -1.1522,-0.70894 c -1.30872,-0.80527 -1.71969,-1.51409 -1.71969,-2.966013 0,-0.932727 0.12291,-1.125675 1.57812,-2.477388 1.78679,-1.659712 1.87156,-1.980365 0.97114,-3.673796 -0.7563,-1.422417 -0.80536,-3.127569 -0.12816,-4.454978 0.59675,-1.169728 1.17787,-1.62938 3.7044,-2.930076 1.10433,-0.568529 2.19288,-1.194072 2.419,-1.390101 0.96425,-0.835944 0.81958,-1.438002 -1.8896,-7.864044 -1.42824,-3.387734 -2.73738,-6.686681 -2.90919,-7.331003 -0.1718,-0.644319 -0.39016,-2.80592 -0.48526,-4.803557 -0.17025,-3.576891 -0.16434,-3.64116 0.38936,-4.230531 0.68257,-0.726566 1.88021,-0.795304 2.67292,-0.153409 0.51063,0.413495 0.56343,0.712594 0.74444,4.217739 0.21946,4.249383 -0.0206,3.433365 3.45595,11.750489 2.03052,4.857795 2.34462,5.793942 2.34462,6.987939 0,2.713041 -1.15601,4.2122 -4.62014,5.991602 -1.30763,0.671686 -2.43742,1.377343 -2.51063,1.568125 -0.0733,0.190783 0.19022,0.961517 0.58538,1.712743 1.2149,2.309574 0.83488,4.587148 -1.06734,6.396763 l -0.87399,0.831421 0.71116,0.432475 c 1.49124,0.90688 1.94938,2.73977 1.18314,4.73338 -0.49787,1.29539 -0.5491,1.84885 -0.55895,6.03904 -0.0165,7.00995 0.051,6.95052 -8.14424,7.175 -3.542,0.097 -5.7615,0.26091 -6.31248,0.46614 -2.85528,1.06351 -4.30888,3.33867 -4.53812,7.10302 -0.10981,1.80315 -0.2359,2.35963 -0.63385,2.79723 -0.62526,0.68756 -1.92667,0.73127 -2.57155,0.0864 z M 110.37971,76.709384 c -0.61431,-0.177009 -1.76149,-0.616966 -2.54927,-0.977683 -1.30603,-0.598019 -1.52294,-0.630482 -2.46007,-0.368189 -1.48632,0.416007 -3.6105,0.188075 -4.25516,-0.456596 -0.7438,-0.74379 -0.70634,-2.141446 0.0743,-2.773588 0.47163,-0.381909 0.82577,-0.453573 1.71878,-0.347807 0.84049,0.09954 1.34668,0.01425 2.00291,-0.337457 1.20906,-0.648018 1.51737,-0.607924 3.83075,0.498167 4.18214,1.999583 6.78117,1.754757 8.22457,-0.774749 0.50308,-0.881612 0.59597,-1.364576 0.59773,-3.107537 9.1e-4,-1.135031 -0.0914,-2.829454 -0.20563,-3.765385 -0.18511,-1.516674 -0.15551,-1.766129 0.27221,-2.294341 0.7991,-0.986836 2.01421,-0.823048 3.1683,0.427057 1.35461,1.467309 2.17698,1.423721 3.66444,-0.19423 0.8316,-0.904549 1.2901,-1.213937 1.79901,-1.213937 2.43034,0 2.5475,2.559606 0.21347,4.66396 -1.05596,0.952049 -3.29223,1.781122 -4.28985,1.590416 -0.51058,-0.09761 -0.56494,-7.29e-4 -0.69239,1.234214 -0.0761,0.737075 -0.0849,1.426537 -0.0196,1.532137 0.27307,0.441821 2.04117,0.709297 2.99353,0.452854 2.25839,-0.608121 5.53071,-3.950575 6.55939,-6.699965 0.79929,-2.136266 1.07852,-5.64679 0.76888,-9.666464 -0.31122,-4.040309 -0.71675,-5.435122 -1.87625,-6.453169 -0.46084,-0.404612 -0.93008,-0.735658 -1.04276,-0.735658 -0.11268,0 -0.3342,-0.355077 -0.49224,-0.789059 -0.70419,-1.933695 -1.33478,-2.877529 -2.38903,-3.57584 -1.6201,-1.073111 -2.33163,-1.152522 -5.28936,-0.59032 -0.6368,0.121042 -0.93555,-0.02391 -2.06369,-1.001304 -0.7255,-0.628557 -2.02924,-1.484743 -2.89722,-1.902633 -1.48647,-0.715675 -1.74025,-0.759798 -4.37018,-0.759798 -2.66004,0 -2.87408,0.03846 -4.5271,0.813405 -1.84958,0.867096 -2.34968,0.867643 -3.45587,0.0038 -1.83734,-1.434838 -4.35798,-1.04043 -6.221294,0.973452 -0.788957,0.85271 -1.002473,0.947298 -2.389741,1.058655 -2.767986,0.222188 -5.221165,1.840759 -6.59009,4.348047 -0.603891,1.10607 -0.724741,1.633804 -0.809316,3.534119 -0.123689,2.779155 -0.382302,3.102902 -2.489809,3.116894 -1.234835,0.0081 -1.523301,0.103447 -2.159629,0.713088 -0.403939,0.386984 -0.73443,0.893754 -0.73443,1.126145 0,0.546819 -1.124084,1.428924 -1.820907,1.428924 -0.297818,0 -0.829355,-0.226439 -1.181196,-0.503197 -1.78973,-1.4078 0.39488,-5.291577 3.534092,-6.282878 0.839214,-0.265005 0.914016,-0.370821 1.176967,-1.664907 0.469741,-2.311751 1.599916,-4.370059 3.368053,-6.133991 1.777636,-1.773411 3.532824,-2.750752 5.755769,-3.204989 0.946726,-0.193455 1.749415,-0.545099 2.292205,-1.004178 0.459414,-0.38856 1.436197,-0.989458 2.17063,-1.33533 1.148326,-0.540792 1.65834,-0.628043 3.641816,-0.623024 1.80092,0.0046 2.5182,0.110988 3.27239,0.485573 l 0.96593,0.479741 1.69368,-0.568747 c 4.2266,-1.41932 8.86543,-0.758088 12.69436,1.809485 1.48238,0.99404 1.68242,1.061584 2.73185,0.922373 3.30312,-0.438175 7.51198,2.000505 8.93388,5.17643 0.24602,0.549542 0.89879,1.450636 1.4506,2.002431 1.16308,1.163078 1.81408,2.407532 2.41594,4.618308 0.35069,1.288158 0.43045,2.581829 0.43411,7.040837 0.005,5.061711 -0.0373,5.595939 -0.56536,7.277501 -0.31341,0.99813 -0.82474,2.317818 -1.13629,2.932638 -1.36476,2.6932 -4.98218,6.043093 -7.5896,7.028292 -1.53582,0.580301 -3.70403,0.631085 -5.15078,0.120644 l -1.03285,-0.36441 -1.00863,1.083095 c -1.42562,1.530884 -2.93783,2.146166 -5.48429,2.231431 -1.20463,0.04034 -2.52863,-0.06488 -3.18063,-0.25274 z m -5.35281,-8.740348 c -1.67568,-0.59862 -2.91127,-1.875624 -3.5073,-3.624864 -0.34193,-1.003538 -0.43822,-1.083353 -1.747668,-1.448628 -3.625315,-1.011292 -6.255731,-4.572759 -5.769942,-7.812239 0.315082,-2.101109 1.916209,-2.992185 3.325398,-1.850677 0.511591,0.414414 0.566131,0.634621 0.507675,2.049785 -0.06105,1.477865 -0.01328,1.64496 0.703707,2.461556 1.015359,1.15643 1.76135,1.514328 3.82326,1.834241 2.22098,0.344598 4.89252,-0.03697 7.14759,-1.020904 2.05087,-0.894823 2.92263,-0.793254 3.49509,0.407213 0.31991,0.670858 0.33513,0.933076 0.0887,1.527963 -0.38893,0.938957 -2.90181,2.11777 -5.73882,2.69214 l -2.06625,0.418323 0.52062,0.470291 c 0.41469,0.374597 0.82401,0.458623 2.0116,0.41295 1.92799,-0.07415 2.31686,0.0662 2.69853,0.973932 0.44791,1.065247 0.0499,2.074168 -0.98982,2.508551 -1.00623,0.420425 -3.32602,0.420615 -4.5024,4.85e-4 z m 10.71854,-11.973987 c -0.68896,-0.253199 -1.18673,-0.850721 -1.34377,-1.613074 -0.42589,-2.067474 -2.34677,-3.549007 -4.62048,-3.563661 -1.34825,-0.0087 -1.91194,-0.331851 -2.28349,-1.309105 -0.31872,-0.838296 0.0921,-1.805404 0.96411,-2.269872 0.88071,-0.46907 3.40273,-0.200166 5.00576,0.53372 2.46627,1.129095 4.70575,4.182169 4.70575,6.41533 0,0.644932 -0.75647,1.736184 -1.20355,1.736184 -0.11741,0 -0.35897,0.04597 -0.53681,0.102158 -0.17784,0.05619 -0.48722,0.04194 -0.68752,-0.03167 z"
       id="path2607" /></g></svg>
