<?xml version="1.0" encoding="UTF-8" standalone="no"?>
<!-- Created with Inkscape (http://www.inkscape.org/) -->

<svg
   width="119.21403mm"
   height="132.54269mm"
   viewBox="0 0 119.21403 132.5427"
   version="1.1"
   id="svg5"
   xml:space="preserve"
   sodipodi:docname="BrainPlus.svg"
   inkscape:version="1.2.1 (9c6d41e410, 2022-07-14)"
   xmlns:inkscape="http://www.inkscape.org/namespaces/inkscape"
   xmlns:sodipodi="http://sodipodi.sourceforge.net/DTD/sodipodi-0.dtd"
   xmlns="http://www.w3.org/2000/svg"
   xmlns:svg="http://www.w3.org/2000/svg"><sodipodi:namedview
     id="namedview11442"
     pagecolor="#ffffff"
     bordercolor="#000000"
     borderopacity="0.25"
     inkscape:showpageshadow="2"
     inkscape:pageopacity="0.0"
     inkscape:pagecheckerboard="true"
     inkscape:deskcolor="#d1d1d1"
     inkscape:document-units="mm"
     showgrid="false"
     showguides="true"
     inkscape:zoom="1.2545293"
     inkscape:cx="189.31403"
     inkscape:cy="231.95951"
     inkscape:window-width="1920"
     inkscape:window-height="1017"
     inkscape:window-x="1912"
     inkscape:window-y="-8"
     inkscape:window-maximized="1"
     inkscape:current-layer="svg5"><sodipodi:guide
       position="135.6103,6.9278068"
       orientation="0,-1"
       id="guide11561"
       inkscape:locked="false" /></sodipodi:namedview><defs
     id="defs2"><rect
       x="401.13806"
       y="430.53589"
       width="365.10202"
       height="434.32916"
       id="rect407" /><rect
       x="401.13806"
       y="430.53589"
       width="365.10202"
       height="434.32916"
       id="rect407-3" /></defs><g
     id="layer1"
     transform="matrix(1.2500978,0,0,1.2500978,-50.485855,-55.435673)"><path
       style="fill:#ffffff;fill-opacity:1;stroke-width:0.264583"
       d="m 69.961577,144.54854 c -0.727604,-0.18878 -2.037292,-0.65436 -2.910417,-1.03462 -1.028176,-0.4478 -2.240044,-0.73299 -3.439583,-0.80946 -6.044472,-0.38534 -11.398249,-5.17865 -12.67753,-11.35039 -0.345104,-1.66491 -0.479442,-1.88352 -2.200464,-3.5808 -3.255622,-3.21072 -4.84956,-7.45771 -4.472604,-11.91709 l 0.163964,-1.93969 -1.026377,-1.37483 c -2.065682,-2.76699 -2.982838,-5.43019 -3.012429,-8.74738 -0.03075,-3.44753 1.096655,-6.969843 2.927757,-9.147053 l 0.764645,-0.90917 -0.507829,-1.604369 c -0.616516,-1.94774 -0.722999,-5.50213 -0.226409,-7.557486 0.638986,-2.64474 1.853693,-4.74976 3.988338,-6.9116 1.095291,-1.10923 2.201137,-2.12675 2.457436,-2.26114 0.442589,-0.23207 0.439267,-0.34886 -0.06615,-2.325 -0.672236,-2.62842 -0.674242,-4.79535 -0.0069,-7.40481 0.689135,-2.69449 1.829689,-4.65028 3.956369,-6.78425 2.121383,-2.12866 4.907597,-3.59862 7.63493,-4.02807 l 1.849652,-0.29125 0.408382,-1.467251 c 0.515702,-1.85284 2.127332,-4.36171 3.640449,-5.66721 5.020162,-4.33131 12.204662,-4.04867 16.941492,0.6665 l 1.5005,1.49364 1.68342,-1.64254 c 4.86278,-4.74469 12.102344,-4.81806 16.986421,-0.17215 1.78022,1.69341 2.68685,3.11658 3.34844,5.25618 l 0.46652,1.508741 1.28174,0.18523 c 5.22908,0.75568 9.97003,4.62209 11.78947,9.6147 1.02189,2.80411 0.95546,7.66041 -0.14282,10.44069 -0.10615,0.2687 0.19265,0.6105 0.92515,1.05834 1.40117,0.85663 3.41289,3.05954 4.45106,4.87407 1.26309,2.20765 1.95978,5.34679 1.79368,8.082016 -0.0754,1.2416 -0.33201,2.81927 -0.57026,3.505949 l -0.43318,1.24851 1.05158,1.54056 c 1.2846,1.88194 1.65893,2.81759 1.45397,3.63423 -0.25305,1.0082 -0.99549,1.501353 -2.11931,1.407703 -0.92245,-0.0769 -1.11248,-0.244173 -2.34105,-2.060983 -1.51138,-2.23502 -3.29707,-3.72154 -5.43816,-4.52706 -1.93622,-0.72844 -2.38124,-1.16934 -2.38124,-2.359169 0,-1.0181 0.47869,-1.65367 1.47285,-1.95552 0.58101,-0.1764 3.25217,0.63841 4.26204,1.3001 0.56896,0.3728 0.61362,0.3566 0.77353,-0.28054 0.0933,-0.3719 0.11714,-1.71243 0.0529,-2.97896 -0.0929,-1.830656 -0.27235,-2.628266 -0.87542,-3.890286 -0.92525,-1.93625 -2.98072,-4.04468 -4.75985,-4.8825 -0.72761,-0.34263 -1.53127,-0.80168 -1.78593,-1.0201 -0.65259,-0.55971 -0.57546,-1.75235 0.21823,-3.37459 3.13643,-6.41065 -0.73267,-13.98897 -7.77542,-15.22953 -3.48438,-0.61376 -6.58176,0.4693 -9.557237,3.34188 -2.00794,1.9385 -2.91767,2.19379 -3.93997,1.1056 -1.02732,-1.09353 -0.78102,-2.12015 0.94607,-3.94337 1.80989,-1.91063 3.567897,-3.09096 5.826717,-3.91205 1.4549,-0.52886 1.63912,-0.67203 1.49388,-1.160961 -0.3465,-1.16653 -1.47045,-2.79412 -2.6411,-3.82456 -1.620227,-1.42618 -3.335567,-1.97638 -5.757837,-1.84682 -2.317254,0.12395 -3.993914,0.897 -5.507944,2.53953 -2.07371,2.2497 -1.93098,0.54092 -2.07883,24.888301 l -0.13229,21.785005 -0.77077,0.66287 c -0.60121,0.51705 -0.94967,0.6271 -1.58396,0.50024 -1.7181,-0.34362 -1.60099,1.179743 -1.74631,-22.715865 l -0.13229,-21.75266 -0.90318,-1.665701 c -1.56101,-2.87889 -3.90075,-4.2721 -7.1905,-4.28162 -1.715727,-0.005 -2.243251,0.11162 -3.621489,0.80033 -1.811499,0.90522 -3.0637,2.18166 -3.822057,3.89605 -0.554511,1.253571 -0.478213,1.912391 0.221469,1.912391 0.941623,0 4.277424,1.87781 5.822527,3.27765 2.469946,2.23774 3.042777,4.05158 1.598917,5.0629 -1.130803,0.79205 -1.928863,0.50659 -3.749546,-1.34118 -1.896655,-1.92488 -3.671104,-2.88477 -6.203235,-3.35567 -4.403042,-0.81883 -9.334215,1.84813 -11.36366,6.14589 -0.609988,1.29177 -0.687163,1.78207 -0.687163,4.36562 0,2.75665 0.04651,3.00651 0.880361,4.7291 1.236001,2.55337 1.069647,3.04542 -1.486788,4.39772 -2.147359,1.13592 -4.311661,3.45591 -5.114357,5.48226 -0.471723,1.19084 -0.608822,2.06877 -0.617746,3.955856 -0.0063,1.33394 0.07535,2.51216 0.18147,2.61828 0.106117,0.10612 0.921938,-0.13421 1.812936,-0.53407 2.183025,-0.97968 3.302214,-0.99337 4.113415,-0.0503 1.183795,1.37625 0.625021,2.762019 -1.390637,3.448829 -2.987719,1.01802 -5.691871,3.49799 -6.740677,6.18184 -0.839053,2.147123 -0.851753,5.695123 -0.0277,7.738183 0.861748,2.13652 1.054818,2.36975 1.423644,1.7198 0.165155,-0.29105 0.918765,-1.15425 1.674688,-1.91823 1.577689,-1.59452 2.416655,-1.77431 3.451332,-0.73963 1.020544,1.02054 0.863662,2.0021 -0.579749,3.62731 -0.676049,0.76119 -1.539252,2.04509 -1.918229,2.8531 -0.605317,1.29059 -0.689049,1.80671 -0.689049,4.24724 0,2.49634 0.07651,2.94372 0.75429,4.41072 0.414859,0.89793 1.020378,1.88257 1.345598,2.1881 l 0.591308,0.5555 0.317562,-1.05993 c 0.730173,-2.43709 2.61535,-3.26589 3.936086,-1.73044 0.723961,0.84166 0.703918,1.20279 -0.205679,3.70584 -0.792892,2.1819 -0.654426,5.17303 0.33992,7.34289 0.751235,1.63934 2.799316,3.98781 4.188442,4.80276 0.844765,0.4956 0.855462,0.4956 0.642433,0 -0.539208,-1.25442 -0.467665,-2.18075 0.221667,-2.87008 1.282528,-1.28253 2.457199,-0.83096 3.834615,1.47412 0.842735,1.4103 2.781821,3.09025 4.492624,3.89224 1.32709,0.62212 1.824334,0.7039 4.279675,0.7039 2.49768,0 2.928261,-0.0737 4.265388,-0.73038 2.321174,-1.13991 3.787184,-2.59755 4.922974,-4.89487 l 0.9981,-2.0188 0.0863,-11.39152 c 0.0617,-8.14392 -0.004,-11.80637 -0.23007,-12.84672 -0.90643,-4.16902 -3.89947,-7.15584 -8.320219,-8.30293 -0.871638,-0.22617 -1.734841,-0.616423 -1.918229,-0.867213 -0.540919,-0.73976 -0.405352,-2.04713 0.278935,-2.68999 0.787355,-0.73968 1.932148,-0.73147 4.165433,0.0299 4.78022,1.62964 8.28963,5.303203 9.67926,10.132003 0.38401,1.33437 0.47326,3.38536 0.60357,13.86907 l 0.15291,12.30313 c -0.18816,2.53775 -0.993026,3.20232 -2.76681,5.45552 -1.47361,2.274 -4.24509,4.41004 -7.054718,5.43722 -2.211205,0.80841 -6.117466,1.06112 -8.170135,0.52856 z M 61.218302,126.2601 c -0.743479,-0.74348 -0.849966,-2.08082 -0.352806,-4.43078 0.33075,-1.56337 1.503055,-4.31481 2.338017,-5.48741 l 0.546174,-0.76703 -1.138534,-1.66371 c -0.799362,-1.16809 -1.64755,-1.99613 -2.847181,-2.77955 -3.363857,-2.19675 -3.782509,-2.95872 -2.390455,-4.35077 0.971828,-0.97184 1.447985,-0.96841 3.334531,0.024 2.385959,1.25508 4.828561,3.56392 6.083093,5.74996 0.02053,0.0358 0.863415,-0.35879 1.873078,-0.87682 2.404287,-1.23356 3.70105,-1.41386 4.670795,-0.64942 0.525714,0.41441 0.727604,0.81115 0.727604,1.42983 0,1.21211 -0.414747,1.62025 -2.474367,2.43488 -3.705145,1.4655 -6.269365,4.81371 -6.770624,8.84071 -0.204327,1.64153 -0.366458,2.08662 -0.939683,2.57969 -0.900877,0.7749 -1.850303,0.75579 -2.659642,-0.0536 z m 2.595001,-37.325882 c -0.833067,-0.5835 -0.986549,-1.9413 -0.511741,-4.527136 0.444217,-2.41924 1.501582,-4.96196 2.836177,-6.82035 l 0.824675,-1.14834 -0.575488,-1.12805 c -0.877453,-1.71995 -2.793333,-3.60031 -4.575928,-4.49108 -0.882677,-0.44108 -1.820905,-0.99747 -2.084954,-1.23644 -1.125686,-1.01873 -0.106924,-3.26287 1.481227,-3.26287 2.074905,0 6.722475,3.36515 8.251907,5.97493 l 0.6589,1.12433 2.038416,-1.01553 c 1.121129,-0.55854 2.895356,-1.20337 3.942731,-1.43296 4.255074,-0.93274 5.881214,-0.32902 5.645894,2.0961 -0.10157,1.0468 -0.86095,1.45491 -3.19744,1.71837 -4.208783,0.47459 -8.115863,3.07573 -9.893758,6.58677 -0.884049,1.74585 -1.470469,3.89176 -1.470469,5.380946 0,1.01358 -0.137938,1.42486 -0.649433,1.93635 -0.74595,0.74596 -1.861987,0.84643 -2.720716,0.24496 z m 41.025537,-0.19084 c -0.37484,-0.41564 -0.62877,-1.27115 -0.84141,-2.834686 -0.83758,-6.15885 -5.265367,-10.49282 -11.360871,-11.12016 -1.47343,-0.15164 -2.085,-0.34318 -2.57969,-0.80792 -0.84815,-0.7968 -0.84774,-1.92914 10e-4,-2.7779 0.52873,-0.52873 0.91425,-0.64943 2.07434,-0.64943 2.017704,0 5.273144,0.897 7.301204,2.01176 1.040987,0.5722 1.770207,0.83497 1.828857,0.65902 0.31175,-0.93524 2.66947,-3.64007 4.087,-4.68867 3.41726,-2.52791 5.6462,-2.89963 6.41553,-1.06993 0.58259,1.38557 0.086,2.17797 -2.03416,3.24565 -2.15387,1.08467 -3.88704,2.71605 -4.80038,4.51843 l -0.65013,1.28297 0.64918,0.7907 c 1.74103,2.12061 3.2645,6.50073 3.2645,9.385856 0,1.22484 -0.11202,1.60428 -0.61237,2.07434 -0.80731,0.75843 -2.04882,0.74937 -2.74266,-0.02 z"
       id="path248" /></g><text
     xml:space="preserve"
     style="font-weight:bold;font-size:110.252px;font-family:'Fira Sans';-inkscape-font-specification:'Fira Sans Bold';fill:none;stroke:#000000;stroke-width:2.63771;stroke-linecap:round;stroke-linejoin:round;stroke-dashoffset:2.26772;paint-order:fill markers stroke"
     x="65.809952"
     y="138.29382"
     id="text455"><tspan
       sodipodi:role="line"
       id="tspan453"
       style="fill:#ffffff;fill-opacity:1;stroke:none;stroke-width:2.63771"
       x="65.809952"
       y="138.29382">+</tspan></text></svg>
