<?xml version="1.0" encoding="UTF-8" standalone="no"?>
<!-- Created with Inkscape (http://www.inkscape.org/) -->

<svg
   width="98.475578mm"
   height="102.38519mm"
   viewBox="0 0 98.475578 102.38519"
   version="1.1"
   id="svg5"
   xml:space="preserve"
   xmlns="http://www.w3.org/2000/svg"
   xmlns:svg="http://www.w3.org/2000/svg"><defs
     id="defs2" /><g
     id="layer1"
     transform="translate(-51.527085,-8.6723301)"><path
       style="fill:#506c00;stroke-width:0.196897;fill-opacity:1"
       d="m 102.55568,110.6557 c -0.47701,-0.21643 -6.177425,-3.81635 -12.667581,-7.99984 -9.11768,-5.87715 -11.906157,-7.7674 -12.26602,-8.314869 -0.585533,-0.890797 -0.928719,-2.40002 -0.758826,-3.337081 0.41754,-2.302986 2.582661,-4.072969 4.474501,-3.657889 0.342893,0.07523 3.857475,1.420659 7.810185,2.98984 3.95271,1.569182 7.330557,2.893789 7.506325,2.943574 0.240503,0.06809 0.35396,-0.09623 0.458577,-0.664275 0.350247,-1.901874 1.852587,-3.758859 3.385299,-4.184447 0.45325,-0.125855 2.9193,-0.21119 6.12199,-0.211845 l 5.36302,-0.0015 2.99847,-1.390505 c 3.46937,-1.608876 4.71151,-1.949821 7.11816,-1.953839 1.93973,-0.003 3.64218,0.366976 5.11154,1.111564 0.96888,0.490964 1.2873,0.435835 1.31958,-0.228441 0.005,-0.108293 0.17588,-0.396252 0.37914,-0.639911 0.3692,-0.442563 0.37611,-0.443017 6.69428,-0.443017 5.07753,0 6.45934,0.05626 7.00751,0.285296 l 0.68282,0.285295 v 11.89823 c 0,10.82605 -0.0293,11.92257 -0.32551,12.16844 -0.26176,0.2173 -1.62982,0.27024 -6.98429,0.27024 -6.50519,0 -6.66833,-0.01 -7.07299,-0.41413 -0.22783,-0.22777 -0.46038,-0.75939 -0.5168,-1.18138 l -0.10258,-0.76726 -2.49145,0.12543 c -2.23841,0.11269 -3.23755,0.30766 -9.83811,1.91975 l -7.34668,1.79439 -2.59662,-0.004 c -2.1692,-0.004 -2.7394,-0.0691 -3.46394,-0.39782 z m 12.86403,-4.81564 c 8.21879,-1.97393 8.7053,-2.06742 10.75939,-2.06742 h 2.15137 V 97.069661 90.36667 l -1.83012,-0.884783 c -3.69034,-1.78413 -5.3589,-1.677169 -10.37751,0.665228 l -3.2488,1.516352 -5.80772,0.06043 c -5.55721,0.05782 -5.82642,0.07802 -6.24127,0.467745 -0.23845,0.224013 -0.48807,0.655517 -0.5547,0.958889 -0.14982,0.682128 0.34565,1.708201 0.94701,1.961184 0.38247,0.160899 9.4848,1.572627 10.13968,1.572613 0.14028,0 0.47255,0.217486 0.73836,0.483291 0.8114,0.8114 0.54978,2.301497 -0.503,2.864931 -0.27395,0.14661 -1.78972,-0.0123 -5.6082,-0.587776 l -5.2328,-0.78868 -8.607514,-3.416544 C 79.741607,90.316775 80.740841,90.67983 80.391742,90.969561 c -0.165588,0.137427 -0.301071,0.489937 -0.301071,0.783359 0,0.489423 0.955624,1.149301 11.567707,7.98768 6.362241,4.09979 11.966422,7.61039 12.453742,7.80131 0.48732,0.19092 1.29409,0.35128 1.79281,0.35635 0.50403,0.005 4.72987,-0.90901 9.51478,-2.05822 z m 25.01993,-8.663468 v -8.860371 h -4.43018 -4.43019 l -0.0513,8.663469 c -0.0283,4.76491 -0.008,8.77594 0.0445,8.91338 0.0743,0.19382 1.08006,0.238 4.48155,0.19689 l 4.38569,-0.053 z M 88.48551,83.647233 c -1.115967,-0.300313 -2.346508,-1.590614 -2.870599,-3.01 -0.718696,-1.946435 -1.932484,-4.105138 -2.941923,-5.232169 l -0.950225,-1.060919 -3.129588,1.007272 c -1.721272,0.554 -4.296289,1.303087 -5.72226,1.664638 -2.382225,0.604012 -2.680524,0.638944 -3.675003,0.430344 -2.020517,-0.423802 -3.322524,-1.676867 -3.954864,-3.806183 -0.356752,-1.201315 -0.405521,-3.288797 -0.10234,-4.380554 0.284149,-1.023225 0.111667,-1.409169 -0.892862,-1.997862 -1.364994,-0.79994 -1.721519,-1.381538 -1.646392,-2.685757 0.06067,-1.053268 0.03027,-1.134437 -0.673685,-1.798346 -0.978199,-0.92256 -0.984819,-1.693502 -0.03111,-3.623648 0.38836,-0.785978 0.676322,-1.578493 0.639916,-1.761145 -0.03641,-0.182649 -0.73072,-0.707662 -1.542921,-1.166694 -0.8122,-0.459032 -1.76469,-1.125832 -2.116644,-1.481777 -0.606067,-0.612938 -0.639916,-0.724284 -0.639916,-2.105023 0,-0.930835 0.110182,-1.67092 0.304786,-2.047243 0.337568,-0.652788 1.912095,-2.570508 3.668072,-4.467592 1.361883,-1.47132 1.833249,-2.337268 2.244953,-4.124205 0.168947,-0.73329 0.389618,-1.417427 0.490382,-1.520306 0.361174,-0.368755 0.165906,-0.765747 -0.978255,-1.988858 -0.638805,-0.682885 -1.269143,-1.567882 -1.400752,-1.966659 -0.350287,-1.061382 -0.09182,-2.483098 0.819981,-4.51029 0.435751,-0.968802 1.042036,-2.740876 1.347299,-3.937942 1.35817,-5.325957 3.047453,-8.578747 6.153237,-11.848327 2.941625,-3.096767 6.392175,-4.737619 13.143823,-6.2503301 5.153843,-1.1547219 6.588418,-1.3041502 12.531189,-1.3052751 5.460291,-0.00103 5.574031,0.00725 7.777431,0.5665705 3.83192,0.9727107 7.26335,2.6593757 11.15723,5.4841617 3.47605,2.521679 5.35717,4.496112 7.09503,7.446989 2.0599,3.497702 3.21058,8.632248 3.21864,14.362172 0.008,6.022477 -1.04787,8.743842 -6.03786,15.554874 -1.60137,2.185778 -3.08877,5.168978 -3.68143,7.383642 -0.38883,1.453041 -0.44818,2.153721 -0.45028,5.316222 -0.002,3.082443 0.0687,3.975662 0.45987,5.808465 0.3916,1.834676 1.4071,5.001662 2.49387,7.777436 0.71859,1.835404 -0.12741,4.004906 -1.9394,4.973469 l -0.82542,0.441201 -13.29054,0.03222 c -8.683437,0.02106 -13.554312,-0.03877 -14.051434,-0.172553 z m 16.14929,-3.395484 c -0.39657,-1.033433 -1.57418,-5.069788 -1.98428,-6.801262 -1.38392,-5.843052 -1.47895,-11.046765 -0.29302,-16.047115 0.36152,-1.524333 0.50698,-4.651701 0.25642,-5.51312 -0.0668,-0.229761 -0.57831,-0.616118 -1.22792,-0.927529 -1.519209,-0.728283 -2.49793,-1.583151 -3.180185,-2.777734 -0.539179,-0.944054 -0.639479,-1.018421 -1.644246,-1.219051 -0.950651,-0.189824 -1.121663,-0.17187 -1.53262,0.160906 -1.585953,1.284224 -4.251745,1.928328 -6.307221,1.523937 -2.091765,-0.411529 -3.986864,-1.58076 -5.165071,-3.186719 l -0.525416,-0.716172 -1.617959,0.09657 c -3.10203,0.185141 -5.763719,-0.842033 -8.018459,-3.094405 -2.01856,-2.016444 -2.966373,-4.330942 -2.972705,-7.259151 -0.0041,-1.882789 0.272956,-3.13613 1.035582,-4.685244 0.391431,-0.795112 0.552401,-1.355856 0.466715,-1.625829 -0.208635,-0.657349 0.260237,-2.462334 0.884408,-3.404661 0.315583,-0.476445 0.975555,-1.154791 1.466605,-1.507434 0.610255,-0.438253 0.892814,-0.783132 0.892814,-1.08973 0,-0.751281 1.147511,-2.7978 2.001239,-3.569091 1.28614,-1.161951 2.358361,-1.555052 4.345929,-1.593319 l 1.720088,-0.03312 0.998627,-0.897853 c 2.569911,-2.31057 6.536522,-2.924219 9.523052,-1.473251 l 0.888461,0.431647 0.996588,-0.54241 c 2.070691,-1.127009 4.484424,-0.831808 6.261294,0.765759 0.76003,0.68333 1.14006,0.887057 1.6547,0.887057 0.36744,0 1.19615,0.134821 1.84159,0.299603 3.65967,0.934318 6.62394,3.641408 7.77505,7.100487 0.37162,1.116726 0.51066,1.309214 1.13371,1.569542 2.29088,0.957189 3.72695,3.57715 3.23222,5.896826 -0.16327,0.765486 -0.12064,1.058644 0.3079,2.117509 0.90253,2.230028 0.60198,5.032823 -0.77575,7.234378 -0.2372,0.379027 -0.63247,1.255582 -0.87839,1.947902 -0.54049,1.521577 -1.58477,3.137792 -2.72126,4.211641 l -0.84136,0.794988 0.46075,1.133925 c 0.987,2.429005 0.79988,3.997043 -0.64999,5.446915 -0.48309,0.483094 -0.85046,1.037031 -0.85308,1.286321 -0.002,0.240809 -0.2314,1.545382 -0.50857,2.89905 -0.61538,3.005308 -0.83121,7.5041 -0.48655,10.141285 0.35308,2.701521 1.12296,5.928074 2.21311,9.275046 l 0.9869,3.029943 h 0.76345 c 1.21945,0 1.31186,-0.441528 0.50309,-2.403688 -2.04498,-4.961333 -3.12465,-11.233657 -2.68228,-15.582586 0.50074,-4.922655 2.02811,-8.585456 5.63664,-13.517268 2.23407,-3.053335 3.31052,-4.980255 4.01476,-7.186745 0.35243,-1.104218 0.45952,-2.004706 0.53856,-4.528634 0.15819,-5.050844 -0.58559,-9.140014 -2.29206,-12.601416 -1.6013,-3.248076 -3.80439,-5.54067 -8.07172,-8.39967 -3.74139,-2.506633 -6.81039,-3.780479 -10.61952,-4.407827 -2.979594,-0.490726 -8.924887,-0.319104 -12.862977,0.371313 -5.501836,0.96457 -9.002524,1.979465 -11.880575,3.444336 -1.400764,0.712961 -2.125215,1.254426 -3.457433,2.584133 -2.762628,2.757421 -4.298896,5.641937 -5.504052,10.33447 -0.628424,2.446903 -0.962585,3.441881 -1.531119,4.558968 -0.215101,0.422643 -0.485656,1.11222 -0.601231,1.532393 l -0.210137,0.763949 1.164347,1.14641 c 0.931366,0.917018 1.228765,1.368001 1.486286,2.253844 0.298905,1.028195 0.298486,1.173271 -0.0059,2.027581 -0.180291,0.506083 -0.460943,1.45042 -0.623673,2.098526 -0.482956,1.923479 -1.415889,3.53438 -3.171299,5.475906 -0.901212,0.996762 -2.00405,2.282099 -2.450751,2.856306 -0.951291,1.222824 -0.969694,1.183998 1.119981,2.362854 1.92157,1.084023 2.522358,1.878312 2.623623,3.468642 0.06691,1.050785 -0.0081,1.444552 -0.471924,2.478137 -0.540425,1.204229 -0.543814,1.234353 -0.169133,1.50367 1.042013,0.748997 1.465103,1.302418 1.459014,1.908465 -0.0034,0.342772 -0.132858,0.790441 -0.287587,0.994815 -0.256725,0.3391 -0.215557,0.419234 0.470811,0.916436 1.204875,0.872808 1.68459,1.82575 1.679141,3.335577 -0.0025,0.705821 -0.07889,1.746405 -0.169659,2.312409 -0.3286,2.049123 0.589048,3.715034 2.017356,3.662338 1.928769,-0.07116 17.74594,-5.323635 19.857142,-6.594049 1.227927,-0.738904 1.988192,-1.539499 2.134191,-2.247402 0.05412,-0.262387 0.143767,-0.696126 0.199224,-0.963861 0.24395,-1.177734 1.566059,-1.636002 2.530725,-0.877196 0.452646,0.356049 0.518796,0.551972 0.518796,1.536519 0,3.013169 -2.523238,5.256026 -8.105549,7.204865 l -2.297083,0.801935 0.856148,1.144464 c 0.953155,1.274143 2.278706,3.744618 2.656626,4.951251 0.135673,0.433171 0.334582,0.898342 0.442023,1.033708 0.15036,0.189438 1.985674,0.246122 7.969739,0.246122 6.729609,0 7.759599,-0.03855 7.664249,-0.287037 z m 5.67227,-0.05752 c -0.45809,-1.067308 -1.94784,-6.386846 -2.35658,-8.414754 -1.01267,-5.024177 -1.01415,-9.126141 -0.005,-14.177115 0.34215,-1.712706 0.44082,-2.580959 0.2987,-2.628332 -0.11672,-0.03891 -0.64516,-0.362088 -1.17431,-0.718179 l -0.96208,-0.647439 -0.13371,1.306799 c -0.0735,0.718739 -0.35109,2.370042 -0.6168,3.669563 -1.20333,5.885265 -0.72464,11.043881 1.74029,18.754455 l 1.02285,3.199571 h 1.16733 c 1.03681,0 1.15079,-0.03855 1.01944,-0.344569 z M 110.226,51.584848 c 0.4221,-0.422108 0.40923,-0.611109 -0.13168,-1.932711 -0.23855,-0.582837 -0.33683,-0.648416 -0.81323,-0.54268 -1.85006,0.410615 -2.36389,0.386023 -2.88813,-0.138229 -1.0287,-1.028703 -0.41275,-2.483824 1.17609,-2.77838 0.9368,-0.173673 2.48907,-0.927744 3.28032,-1.593538 l 0.57816,-0.486481 h -1.26365 c -1.47986,0 -2.73553,-0.340672 -4.01118,-1.088257 -0.78159,-0.458037 -1.15432,-0.540833 -2.52701,-0.561328 -1.39855,-0.02088 -1.71618,-0.09419 -2.41648,-0.55776 -1.84459,-1.221034 -2.439188,-2.894205 -1.358776,-3.823533 0.820506,-0.705774 1.407546,-0.60327 2.401376,0.41931 0.97512,1.003319 1.52124,1.110976 2.34574,0.46242 0.51745,-0.40702 0.53326,-0.472944 0.40371,-1.682773 -0.15945,-1.488875 0.13212,-2.115644 1.08117,-2.324087 0.79049,-0.173624 1.5113,0.294776 1.90551,1.238262 0.27847,0.666456 0.2837,1.578312 0.0217,3.777584 -0.0517,0.434105 0.0525,0.516861 0.96101,0.762923 1.34022,0.362997 2.49599,0.176042 3.81998,-0.617925 1.49855,-0.89864 2.21452,-2.114869 2.31746,-3.936694 0.0729,-1.290806 0.0537,-1.372245 -0.29035,-1.224103 -0.92607,0.398823 -1.61738,0.344448 -2.12931,-0.167477 -0.71574,-0.715747 -0.67533,-1.581204 0.108,-2.312944 0.33633,-0.314183 0.68848,-0.57124 0.78253,-0.57124 0.28548,0 0.77183,-1.122326 0.77183,-1.781141 0,-0.778347 -0.51283,-1.664321 -1.12475,-1.943127 -0.66663,-0.303738 -1.88327,-0.264406 -2.33255,0.07541 -0.64769,0.489892 -1.76772,0.381218 -2.23843,-0.21719 -0.77003,-0.978939 -0.46439,-2.000136 0.79021,-2.640183 0.87413,-0.445949 0.88205,-0.560258 0.14073,-2.029143 -0.63537,-1.258963 -1.88396,-2.440735 -3.35769,-3.178011 -1.73068,-0.865826 -2.39424,-0.895359 -2.79297,-0.124303 -0.74542,1.441486 -2.69595,0.915206 -2.92453,-0.789084 -0.14556,-1.085182 -0.68499,-1.781669 -1.6421,-2.120174 -0.695301,-0.245915 -0.855775,-0.237898 -1.516784,0.07577 -0.798801,0.379055 -1.184508,0.963828 -1.392022,2.11045 -0.148531,0.820702 -0.897323,1.534483 -1.609747,1.534483 -0.250089,0 -0.703312,-0.213938 -1.007157,-0.475417 -0.498178,-0.428718 -0.547797,-0.584517 -0.505132,-1.586021 0.0473,-1.110304 0.04711,-1.110691 -0.68914,-1.427674 -1.109919,-0.477859 -3.075206,-0.41693 -4.335622,0.134419 -1.306985,0.571723 -2.657762,2.037285 -3.097247,3.360447 -0.178755,0.538187 -0.514828,1.111474 -0.746827,1.273972 -1.06286,0.744456 -2.500064,-0.04266 -2.500064,-1.369225 0,-0.795264 -0.08035,-0.820315 -1.197467,-0.373335 -0.499635,0.199914 -1.033358,0.630827 -1.388404,1.120954 l -0.576764,0.796197 1.020839,0.380807 c 1.336251,0.498466 2.732488,1.866529 2.732488,2.677349 0,0.676105 -0.700787,1.553954 -1.279832,1.603198 -0.81903,0.06965 -1.075032,-0.03085 -1.785597,-0.700999 -0.61006,-0.575362 -0.875692,-0.68914 -1.608886,-0.68914 -0.73619,0 -0.986429,0.108244 -1.547635,0.66945 -1.071622,1.071623 -0.917972,2.325146 0.440095,3.590393 0.827261,0.770721 0.893038,1.631358 0.179235,2.345159 -0.5579,0.557902 -1.386256,0.629471 -2.034051,0.175737 -0.404077,-0.283026 -0.450759,-0.279099 -0.585279,0.04923 -0.0804,0.19623 -0.146178,1.154215 -0.146178,2.128856 0,1.562266 0.06853,1.911648 0.578802,2.950944 1.09361,2.227399 3.038064,3.6678 5.530075,4.096536 2.049512,0.352607 3.192399,-0.355325 1.422438,-0.881091 -2.863903,-0.850724 -4.253534,-5.376633 -1.837057,-5.983131 0.681623,-0.171076 1.66158,0.40355 1.792235,1.050931 0.222579,1.102848 0.400678,1.484678 0.822487,1.763345 0.409676,0.270651 0.448669,0.248848 0.721106,-0.403186 0.623465,-1.492161 1.873829,-1.972438 2.820276,-1.083298 0.569763,0.535264 0.59205,1.394279 0.06624,2.553064 -0.851224,1.87593 -0.274329,4.324192 1.345672,5.710854 1.905956,1.631426 4.526354,1.561516 6.56078,-0.175038 1.13564,-0.969362 0.950242,-0.953262 3.853095,-0.334619 1.533037,0.326713 1.717779,0.327535 3.309889,0.0147 1.91491,-0.376246 2.54774,-0.230352 2.98835,0.688951 0.48739,1.016905 -0.47193,2.3371 -1.69825,2.3371 -1.25057,0 -0.04,1.022243 2.21096,1.867085 2.07172,0.777549 2.89723,1.249791 4.00733,2.292426 1.13265,1.063804 1.44663,1.149372 2.04006,0.555949 z M 90.391418,40.77537 C 89.473964,40.381873 89.241,38.943028 89.984752,38.263692 c 0.24366,-0.222557 0.844622,-0.462051 1.335468,-0.53221 0.490849,-0.07016 1.188566,-0.307638 1.550485,-0.527733 l 0.658032,-0.400174 -1.171947,-0.554243 c -1.62984,-0.770792 -2.815056,-1.929217 -2.815056,-2.75142 0,-0.873633 0.279908,-1.317597 0.985877,-1.563699 0.735291,-0.256323 1.022727,-0.154987 2.209639,0.77901 2.07934,1.636264 4.797369,1.384106 6.498121,-0.602849 0.37328,-0.436087 0.789939,-1.170125 0.925909,-1.631192 0.51834,-1.75758 1.78342,-2.26561 2.85542,-1.146677 0.48144,0.502513 0.53571,0.675414 0.41712,1.329055 -0.47839,2.636768 -2.80974,5.231525 -5.375746,5.983123 -0.655331,0.19195 -0.940537,0.422864 -1.318155,1.067226 -0.630371,1.075643 -1.889744,2.198998 -2.997676,2.673912 -1.052637,0.451213 -2.747625,0.648264 -3.350825,0.389549 z M 84.89755,31.053756 c -0.520848,-0.448591 -0.570005,-0.597524 -0.534607,-1.619658 0.101973,-2.944524 2.839085,-5.601686 5.770234,-5.601686 1.153595,0 1.771322,0.565932 1.771322,1.622801 0,0.84989 -0.714908,1.527553 -1.611509,1.527553 -1.330237,0 -2.431951,1.039587 -2.721884,2.568391 -0.230403,1.214913 -0.61653,1.699931 -1.492856,1.875195 -0.474534,0.09491 -0.732365,0.01354 -1.1807,-0.372596 z"
       id="path3779" /></g></svg>
