<?xml version="1.0" encoding="UTF-8" standalone="no"?>
<!-- Created with Inkscape (http://www.inkscape.org/) -->

<svg
   width="40.848244mm"
   height="28.861629mm"
   viewBox="0 0 40.848244 28.861629"
   version="1.1"
   id="svg5"
   xml:space="preserve"
   xmlns="http://www.w3.org/2000/svg"
   xmlns:svg="http://www.w3.org/2000/svg"><defs
     id="defs2" /><g
     id="layer1"
     transform="translate(-79.068374,-102.38566)"><path
       style="fill:#000000;stroke-width:0.0570102"
       d="m 99.090122,131.11475 c -0.505616,-0.31166 -0.452329,1.09659 -0.484586,-12.80635 l -0.0285,-12.28569 -0.197165,-0.39306 c -0.522314,-1.04126 -1.350378,-1.47467 -2.286683,-1.19687 -1.393164,0.41335 -1.786348,1.14969 -1.228634,2.30095 0.3447,0.71154 0.198245,1.26142 -0.404673,1.5194 -0.739687,0.31649 -1.403803,-0.30883 -1.702787,-1.60331 -0.05069,-0.21949 -0.1006,-0.42855 -0.110899,-0.46458 -0.01156,-0.0404 -0.243875,-0.0806 -0.607078,-0.10502 -1.846894,-0.12406 -2.813893,0.44456 -3.295496,1.93784 -0.350019,1.0853 -0.86388,1.59166 -2.085072,2.05466 -2.204694,0.83589 -2.849937,1.76437 -2.91038,4.18796 -0.03635,1.45771 -0.22487,1.93661 -1.058161,2.68807 -1.981145,1.78661 -2.18865,3.94885 -0.600057,6.25271 0.866908,1.25724 1.815963,1.6522 3.817458,1.58868 1.301851,-0.0413 1.200442,0.0349 0.979274,-0.73574 -0.786191,-2.73931 -0.753872,-3.93192 0.116406,-4.29555 0.718652,-0.30027 1.283609,0.21543 1.283609,1.17168 0,0.96437 0.618342,3.39839 1.009761,3.97478 0.0806,0.1187 0.19534,0.32954 0.254972,0.46855 0.997532,2.32541 3.543883,2.79632 6.17334,1.14167 1.274517,-0.80201 2.387804,0.64438 1.195643,1.5534 -2.900649,2.21172 -6.877223,1.72753 -8.6925,-1.05841 l -0.254773,-0.391 -0.456081,0.0348 c -3.929221,0.30014 -5.507926,-0.21841 -7.008092,-2.30196 -2.10861,-2.92861 -1.895364,-6.01029 0.59325,-8.57327 l 0.656812,-0.67644 0.0367,-1.00536 c 0.115222,-3.15631 1.386542,-4.92457 4.233895,-5.88886 0.483076,-0.1636 0.739847,-0.38998 0.831832,-0.7334 0.619858,-2.31418 2.411183,-3.44783 5.286931,-3.34587 l 0.946603,0.0336 0.362308,-0.39133 c 1.549742,-1.67386 4.130302,-1.85859 5.663397,-0.4054 l 0.398814,0.37803 0.298401,-0.30385 c 1.525869,-1.55368 4.484319,-1.32044 5.863689,0.4623 l 0.23387,0.30226 0.40702,-0.0508 c 2.93925,-0.36721 5.12217,0.8595 5.81378,3.26712 0.11951,0.41602 0.30342,0.58004 0.89285,0.79627 2.87999,1.05653 4.13485,2.82856 4.18573,5.91079 0.0167,1.00999 -0.0261,0.91163 0.73225,1.68287 2.37449,2.41477 2.6106,5.39261 0.66124,8.33967 -1.49423,2.25899 -3.3806,2.88908 -7.35992,2.45837 -0.20847,-0.0226 -0.21934,-0.0139 -0.51905,0.41381 -1.96215,2.80021 -5.26652,3.2299 -8.54964,1.11178 -1.37724,-0.88853 -0.29419,-2.46431 1.10548,-1.60843 2.09567,1.28145 3.90757,1.31709 5.20607,0.10239 0.36395,-0.34045 0.94619,-1.11711 0.94619,-1.26214 0,-0.043 0.0892,-0.21663 0.19832,-0.38592 0.4432,-0.68791 0.98756,-2.74548 1.04907,-3.96527 0.0497,-0.98614 0.3044,-1.3332 0.9813,-1.33733 1.17211,-0.007 1.29284,1.61595 0.34639,4.65685 l -0.11013,0.35383 0.26405,0.0423 c 2.50414,0.40152 4.15886,-0.32766 5.17194,-2.27907 1.06627,-2.05388 0.78323,-3.6898 -0.93359,-5.39597 -1.01996,-1.01363 -1.14125,-1.30806 -1.17496,-2.85221 -0.0515,-2.35817 -0.79501,-3.40025 -2.98418,-4.18248 -1.09487,-0.39121 -1.62476,-0.91222 -1.98056,-1.94736 -0.51122,-1.48731 -1.27064,-2.01477 -2.90851,-2.02013 -0.74932,-0.003 -1.05469,0.0504 -1.05469,0.18251 0,0.50739 -0.5233,1.68335 -0.84272,1.89377 -0.95604,0.62979 -1.86689,-0.31435 -1.34703,-1.39626 0.49404,-1.02816 0.29118,-1.63645 -0.70683,-2.11952 -1.36866,-0.66247 -2.56461,-0.0579 -2.80644,1.41872 -0.0332,0.20293 -0.0545,5.02389 -0.0547,12.40939 -3.2e-4,11.07747 -0.008,12.09387 -0.0939,12.27466 -0.23174,0.48836 -0.897451,0.68304 -1.360223,0.39778 z m -5.929059,-8.39201 c -0.676889,-0.35133 -0.757929,-0.87976 -0.259204,-1.69016 0.858482,-1.39498 0.890241,-2.38774 0.118147,-3.69322 -0.726046,-1.22762 0.441292,-2.44612 1.378218,-1.43863 1.133538,1.21892 1.442361,3.3682 0.730954,5.08715 -0.61283,1.48077 -1.296525,2.08343 -1.968115,1.73486 z m 11.904697,-0.0179 c -0.78037,-0.36536 -1.7069,-2.6819 -1.5904,-3.97636 0.0779,-0.86557 0.61741,-2.20716 1.11418,-2.77055 0.83172,-0.94329 2.21476,0.11073 1.54046,1.17399 -0.92975,1.46606 -0.9031,2.55395 0.0996,4.06405 0.59132,0.8906 -0.22468,1.94855 -1.16379,1.50887 z m -15.560872,-4.5629 c -0.154734,-0.0703 -0.299438,-0.20188 -0.421717,-0.38357 -0.617941,-0.91817 -1.281639,-1.00645 -2.412829,-0.32093 -1.170908,0.70959 -2.29502,-0.6486 -1.255494,-1.51694 1.714284,-1.43197 4.404718,-1.02856 5.317089,0.79725 0.470043,0.94064 -0.306661,1.84213 -1.227049,1.42419 z m 19.287442,0.0282 c -1.05069,-0.38109 -0.70041,-1.84878 0.64769,-2.71386 1.06071,-0.68066 2.91494,-0.49021 4.10977,0.42212 1.12787,0.86119 0.0252,2.30095 -1.1885,1.55182 -1.09722,-0.67724 -1.90405,-0.55868 -2.44445,0.35922 -0.21176,0.35967 -0.71384,0.52965 -1.12451,0.3807 z m -16.177791,-4.02093 c -2.045298,-0.61983 0.238,-3.75029 2.859255,-3.92011 1.33644,-0.0866 1.805108,1.74972 0.49624,1.94433 -0.102576,0.0152 -0.361667,0.0535 -0.575757,0.085 -0.73674,0.10845 -1.519132,0.59906 -1.521839,0.95429 -0.0048,0.62413 -0.66546,1.116 -1.257899,0.93646 z m 12.907251,-0.0563 c -0.29256,-0.13283 -0.50883,-0.44661 -0.56199,-0.81536 -0.0686,-0.47592 -0.76782,-0.91986 -1.61246,-1.02378 -1.13093,-0.13915 -1.61433,-0.96731 -0.99455,-1.70388 0.77694,-0.92334 3.6882,0.22409 4.37505,1.72435 0.5379,1.17493 -0.19377,2.27826 -1.20605,1.81867 z"
       id="path316" /></g></svg>
