<?xml version="1.0" encoding="UTF-8" standalone="no"?>
<!-- Created with Inkscape (http://www.inkscape.org/) -->

<svg
   width="112.67605mm"
   height="124.82229mm"
   viewBox="0 0 112.67605 124.82229"
   version="1.1"
   id="svg5"
   xml:space="preserve"
   xmlns="http://www.w3.org/2000/svg"
   xmlns:svg="http://www.w3.org/2000/svg"><defs
     id="defs2"><rect
       x="401.13806"
       y="430.53589"
       width="365.10202"
       height="434.32916"
       id="rect407" /><rect
       x="401.13806"
       y="430.53589"
       width="365.10202"
       height="434.32916"
       id="rect407-3" /></defs><g
     id="layer1"
     transform="translate(-46.923501,-52.065472)"><path
       id="path248"
       style="fill:#000000;fill-opacity:1;stroke-width:0.120379"
       d="m 110.37039,96.774784 c -1.37778,0.01396 -2.75439,0.561985 -3.86062,1.641357 l -0.76578,0.747432 -0.68277,-0.679725 c -2.15517,-2.145301 -5.424021,-2.273719 -7.708084,-0.303062 -0.688435,0.593974 -1.421531,1.735284 -1.656162,2.578294 l -0.185979,0.66773 -0.841483,0.13237 c -1.240879,0.1954 -2.508435,0.86424 -3.473619,1.83274 -0.967593,0.97091 -1.486514,1.86068 -1.800054,3.08661 -0.303627,1.18725 -0.302798,2.17335 0.0031,3.36922 0.229953,0.89911 0.231462,0.95221 0.0301,1.0578 -0.07408,0.0388 -0.310732,0.24802 -0.596492,0.5189 -0.388404,0.32262 -0.814706,0.77517 -1.170413,1.24259 -0.0018,0.002 -0.004,0.005 -0.0058,0.008 -0.03511,0.0462 -0.06732,0.0922 -0.100864,0.13849 -0.517145,0.6971 -0.854715,1.42068 -1.058968,2.26607 -0.225938,0.93514 -0.17752,2.55239 0.102982,3.43858 l 0.222421,0.70323 -0.132605,0.19444 -0.206669,0.24595 c -0.833112,0.99057 -1.346163,2.59301 -1.332172,4.16156 0.01347,1.50926 0.43089,2.7209 1.370733,3.97983 l 0.466941,0.62565 -0.07476,0.88238 c -0.171507,2.02894 0.553699,3.96124 2.034938,5.42204 0.783027,0.77223 0.844347,0.87186 1.001363,1.62936 0.582045,2.80802 3.017784,4.98878 5.767889,5.1641 0.545765,0.0349 1.09714,0.16446 1.564939,0.36821 0.397253,0.17301 0.993135,0.38504 1.324171,0.47092 0.933923,0.24231 2.711157,0.1273 3.717217,-0.24051 1.27832,-0.46734 2.53935,-1.43928 3.2098,-2.47391 0.0801,-0.1018 0.13697,-0.17213 0.20855,-0.26121 0.0778,0.0966 0.14103,0.17508 0.22901,0.28683 0.67046,1.03464 1.93149,2.00657 3.20981,2.47391 1.00605,0.36781 2.78329,0.48283 3.7172,0.24054 0.33104,-0.0859 0.92692,-0.29794 1.32419,-0.47095 0.46779,-0.20375 1.01916,-0.3334 1.56494,-0.36819 2.75009,-0.17532 5.18583,-2.3561 5.76788,-5.16411 0.15702,-0.75751 0.21834,-0.85713 1.00136,-1.62936 1.48124,-1.46081 2.20645,-3.39289 2.03494,-5.4218 l -0.0747,-0.88263 0.46694,-0.62541 c 0.93983,-1.25893 1.35726,-2.47081 1.37072,-3.98006 0.0139,-1.56855 -0.49905,-3.17098 -1.33218,-4.16157 l -0.0202,-0.024 -0.308,-0.45143 0.21138,-0.6682 c 0.28049,-0.88618 0.32891,-2.50342 0.10293,-3.43859 -0.11483,-0.47534 -0.27128,-0.91203 -0.47752,-1.32747 -0.0708,-0.1582 -0.14683,-0.31025 -0.22853,-0.45307 -0.45141,-0.78899 -1.30475,-1.73337 -1.93619,-2.15626 -0.13458,-0.11963 -0.24603,-0.21328 -0.29037,-0.23653 -0.20137,-0.1056 -0.19988,-0.15869 0.03,-1.05778 0.30585,-1.19589 0.30688,-2.18197 0.003,-3.36922 -0.0252,-0.0981 -0.0539,-0.19085 -0.0818,-0.28497 -0.0147,-0.0543 -0.0297,-0.10771 -0.0458,-0.15964 -0.0194,-0.0628 -0.0387,-0.12596 -0.0601,-0.18505 -0.0261,-0.0718 -0.0538,-0.14299 -0.0825,-0.21372 -0.0149,-0.0376 -0.0319,-0.0736 -0.0473,-0.11069 -0.0176,-0.041 -0.0355,-0.0819 -0.0541,-0.1225 -0.11708,-0.26359 -0.25244,-0.51572 -0.40864,-0.76037 -0.005,-0.008 -0.0102,-0.0157 -0.0151,-0.0235 -0.0526,-0.0815 -0.10704,-0.16294 -0.16458,-0.24334 -1.06317,-1.53028 -2.76032,-2.63572 -4.59183,-2.90041 l -0.5734,-0.0827 -0.17587,-0.63246 c -0.0817,-0.29384 -0.22682,-0.62403 -0.40675,-0.954571 -0.11886,-0.232586 -0.25388,-0.452275 -0.41475,-0.666797 -0.2611,-0.371989 -0.5509,-0.711897 -0.8349,-0.95692 -0.43997,-0.3796 -0.91666,-0.680565 -1.4147,-0.904969 -0.75339,-0.35841 -1.5599,-0.534836 -2.36645,-0.526663 z m 0.0707,1.960638 c 0.2901,-9.02e-4 0.50542,0.0062 0.69382,0.03127 0.0874,0.01353 0.17212,0.03117 0.25556,0.05075 0.21071,0.05423 0.4152,0.140663 0.69832,0.282147 0.17745,0.08868 0.34099,0.186901 0.49515,0.291538 0.0736,0.05629 0.14703,0.113166 0.21959,0.177049 0.42029,0.369938 0.8245,0.907944 1.05499,1.379664 0.10006,0.24184 0.14556,0.43216 0.13283,0.56428 -0.0681,0.0935 -0.25564,0.17534 -0.66586,0.32445 -1.02771,0.37359 -1.82747,0.91055 -2.65094,1.77984 -0.60354,0.63714 -0.80815,1.06033 -0.6595,1.44786 0.0406,0.18369 0.15046,0.34321 0.33551,0.47281 0.5145,0.36038 0.8774,0.23057 1.70577,-0.61012 0.86294,-0.87578 1.67028,-1.3126 2.82236,-1.52685 1.50084,-0.27912 3.13653,0.33206 4.25091,1.47842 0.62392,0.67636 1.04606,1.51911 1.21296,2.42381 0.0145,0.22551 0.0191,0.50005 0.0191,0.88029 0,0.35858 -0.003,0.61834 -0.014,0.83278 -0.0779,0.4378 -0.21655,0.87511 -0.42486,1.30089 -0.15881,0.32461 -0.25066,0.6086 -0.28284,0.84973 -0.005,0.0325 -0.0102,0.0633 -0.0126,0.0936 -1.6e-4,0.002 -4.5e-4,0.004 -7.4e-4,0.006 -0.005,0.0611 -0.005,0.11952 0.003,0.17376 0.0172,0.17515 0.0815,0.31432 0.19445,0.41122 0.068,0.0582 0.22491,0.15454 0.40721,0.25534 0.1175,0.0712 0.25189,0.14624 0.40699,0.22829 0.57571,0.30455 1.15288,0.79648 1.60561,1.33758 0.22502,0.28166 0.42085,0.57646 0.55841,0.8643 0.27438,0.57419 0.35601,0.93704 0.39829,1.76995 0.0291,0.57624 0.0185,1.18624 -0.024,1.35545 -0.0187,0.0744 -0.034,0.12961 -0.0507,0.16858 -0.0701,0.003 -0.2267,-0.0381 -0.41569,-0.10539 -0.51791,-0.28667 -1.57887,-0.60177 -1.82473,-0.52712 -0.41636,0.1264 -0.63151,0.38333 -0.6635,0.78434 -0.13947,0.4707 0.17183,0.90012 0.87816,1.14079 0.71085,0.24221 1.38514,0.66744 1.93618,1.19157 0.26008,0.26559 0.50624,0.5651 0.73686,0.90614 0.0674,0.0996 0.11026,0.15725 0.16529,0.23629 0.0881,0.1571 0.16535,0.31703 0.22854,0.4787 0.38174,0.9769 0.38737,2.5911 0.0124,3.52063 -0.39207,0.97209 -0.47993,1.07819 -0.64773,0.78248 -0.0752,-0.13241 -0.41785,-0.52516 -0.76179,-0.87276 -0.71781,-0.72546 -1.09958,-0.8072 -1.57033,-0.33645 -0.46434,0.46433 -0.39294,0.91086 0.26379,1.6503 0.30758,0.34633 0.70033,0.93045 0.87275,1.29808 0.2754,0.5872 0.31341,0.82203 0.31341,1.93243 0,1.13578 -0.0345,1.33927 -0.34304,2.00672 -0.18875,0.40853 -0.46427,0.85672 -0.61223,0.99573 l -0.26921,0.25251 -0.14437,-0.48223 c -0.33221,-1.10883 -1.18997,-1.48577 -1.79088,-0.78717 -0.32939,0.38293 -0.32027,0.54718 0.0936,1.68602 0.36075,0.99271 0.2977,2.35354 -0.1547,3.34077 -0.34181,0.74588 -1.2736,1.8144 -1.90563,2.1852 -0.38436,0.22547 -0.38917,0.22547 -0.29225,0 0.24533,-0.57075 0.21276,-0.99222 -0.10078,-1.30586 -0.58352,-0.58352 -1.11787,-0.37796 -1.74457,0.6708 -0.38343,0.64165 -1.26573,1.40601 -2.04412,1.77089 -0.60379,0.28306 -0.83009,0.32025 -1.94723,0.32025 -1.1364,0 -1.33229,-0.0335 -1.94066,-0.33222 -1.05608,-0.51865 -1.72296,-1.18205 -2.23972,-2.22727 l -0.42085,-0.85065 -0.0694,-5.5838 c -0.002,-0.1773 -0.004,-0.26622 -0.005,-0.43308 -0.0173,-3.11733 0.013,-4.64306 0.10771,-5.07878 0.41241,-1.89681 1.77428,-3.25571 3.78562,-3.77761 0.39657,-0.10294 0.78932,-0.28043 0.87275,-0.39454 0.2461,-0.33657 0.18437,-0.93153 -0.12696,-1.22401 -0.35823,-0.33655 -0.87895,-0.33278 -1.89505,0.0136 -1.59645,0.54425 -2.87964,1.59107 -3.70027,2.97752 -0.8199,-1.39943 -2.10933,-2.45548 -3.71579,-3.00316 -1.01609,-0.3464 -1.53704,-0.35017 -1.89527,-0.0136 -0.311335,0.29249 -0.373075,0.88744 -0.12697,1.22402 0.0835,0.1141 0.47619,0.29163 0.87276,0.39454 2.01135,0.52188 3.37321,1.8808 3.78562,3.77761 0.0954,0.43934 0.1257,1.98125 0.10748,5.1526 -0.002,0.15868 -0.003,0.24245 -0.005,0.41051 l -0.0687,5.53113 -0.42133,0.85206 c -0.51676,1.04523 -1.18389,1.70864 -2.23997,2.22726 -0.60836,0.29877 -0.80426,0.33221 -1.94065,0.33221 -1.117121,0 -1.343444,-0.0371 -1.947238,-0.32022 -0.77838,-0.36488 -1.660446,-1.12924 -2.043871,-1.77089 -0.626695,-1.04877 -1.16128,-1.25432 -1.744805,-0.6708 -0.31363,0.31364 -0.346192,0.73511 -0.100863,1.30584 0.09693,0.2255 0.0921,0.2255 -0.292251,0 -0.632022,-0.37077 -1.563826,-1.43931 -1.905623,-2.18518 -0.452406,-0.98723 -0.515455,-2.34805 -0.154707,-3.34077 0.413848,-1.13884 0.422963,-1.30309 0.09357,-1.68603 -0.600906,-0.6986 -1.458673,-0.32164 -1.790886,0.78718 l -0.144362,0.48221 -0.268975,-0.25275 c -0.147967,-0.139 -0.423491,-0.58693 -0.612244,-0.99548 -0.308374,-0.66745 -0.34327,-0.87093 -0.34327,-2.00671 0,-1.11039 0.03801,-1.34526 0.313411,-1.93244 0.172427,-0.36762 0.565165,-0.95175 0.872755,-1.29808 0.65672,-0.73944 0.728126,-1.18595 0.2638,-1.65028 -0.470756,-0.47076 -0.852296,-0.38902 -1.57011,0.33645 -0.343929,0.3476 -0.686872,0.74033 -0.762015,0.87276 -0.167807,0.29571 -0.25567,0.18959 -0.647747,-0.78249 -0.374926,-0.92953 -0.369056,-2.54373 0.0127,-3.52063 0.03647,-0.0933 0.07868,-0.18592 0.123671,-0.27791 0.07953,-0.10993 0.160168,-0.22318 0.270151,-0.38582 0.687645,-1.01688 1.499986,-1.69337 2.474134,-2.05986 0.608326,-0.22886 0.892991,-0.39543 1.011004,-0.6548 0.106309,-0.18015 0.126844,-0.38099 0.06113,-0.58944 -0.04936,-0.3643 -0.265065,-0.59921 -0.658798,-0.71875 -0.0372,-0.0112 -0.09661,-0.012 -0.166698,-0.006 -0.314832,-0.0295 -0.722529,0.0814 -1.286559,0.33458 -0.37299,0.1674 -0.713891,0.27144 -0.804101,0.24969 -0.01087,-0.0336 -0.02118,-0.064 -0.03362,-0.11356 -0.04246,-0.1692 -0.05344,-0.7792 -0.02422,-1.35544 0.04226,-0.8329 0.123904,-1.19577 0.398288,-1.76997 0.420969,-0.88095 1.356197,-1.84019 2.165661,-2.22139 0.331048,-0.15588 0.6967,-0.36474 0.812565,-0.46411 0.124112,-0.10649 0.186855,-0.26591 0.195383,-0.46623 0.01875,-0.12831 -0.0032,-0.27463 -0.05807,-0.44932 -0.04922,-0.18723 -0.125543,-0.39291 -0.236528,-0.61976 -0.204105,-0.41718 -0.34089,-0.84541 -0.419683,-1.27433 -0.01563,-0.22778 -0.01928,-0.50687 -0.01928,-0.91061 0,-0.33628 0.004,-0.58935 0.01458,-0.80058 0.342451,-1.91972 1.832609,-3.56853 3.961955,-3.94361 1.585319,-0.27925 2.99471,0.21353 4.34849,1.5205 0.08633,0.0835 0.164274,0.15331 0.242172,0.22313 0.01743,0.0163 0.03496,0.0324 0.05198,0.0479 0.01866,0.0164 0.03701,0.0318 0.05526,0.0475 0.202464,0.17939 0.376944,0.3062 0.532544,0.37571 0.36586,0.18212 0.62923,0.10815 0.91061,-0.19138 0.034,-0.0363 0.0641,-0.0723 0.092,-0.10837 0.005,-0.007 0.0103,-0.0144 0.0155,-0.0214 0.25383,-0.34381 0.2241,-0.69028 -0.12014,-1.16924 -0.18099,-0.28534 -0.45405,-0.5967 -0.82103,-0.92919 -0.14354,-0.13003 -0.32599,-0.26933 -0.521264,-0.40838 -0.03281,-0.0252 -0.06643,-0.0476 -0.09945,-0.072 -0.01025,-0.008 -0.01979,-0.0141 -0.02963,-0.0214 -7.28e-4,-5.2e-4 -0.0021,-9.2e-4 -0.0021,-0.001 -0.248939,-0.18118 -0.505363,-0.34094 -0.77495,-0.48152 -0.03312,-0.0173 -0.06541,-0.0359 -0.09904,-0.0527 -0.457494,-0.25058 -0.875107,-0.43259 -1.087647,-0.45026 -0.152027,-0.0646 -0.24384,-0.11795 -0.289194,-0.17258 -0.02413,-0.0879 -0.01219,-0.21169 0.03103,-0.36607 0.19951,-0.51339 0.662787,-1.16205 1.146664,-1.587975 0.737169,-0.648886 1.517591,-0.899025 2.619681,-0.840073 1.05429,0.05639 1.81702,0.408046 2.50586,1.155366 3.6e-4,3.69e-4 6e-4,5.43e-4 7.6e-4,9.74e-4 0.18559,0.219128 0.35512,0.467088 0.50737,0.747898 l 0.1787,0.3294 c 0.22591,0.97547 0.21629,3.23364 0.25887,10.24545 l 0.0603,9.91159 0.24452,0.21044 c 0.0802,0.20228 0.19627,0.2396 0.34515,0.26334 0.15134,0.0826 0.28728,0.0944 0.48176,0.0555 0.26924,-0.0539 0.43934,-0.008 0.54946,-0.36679 l 0.21844,-0.18809 0.0602,-9.91159 c 0.0414,-6.8208 0.0335,-9.14169 0.24099,-10.16128 l 0.19656,-0.36232 c 0.71023,-1.309833 1.77465,-1.943843 3.27142,-1.94818 z m -15.817534,8.037238 c -0.722575,0 -1.186243,1.02103 -0.67408,1.48453 0.03848,0.0349 0.115674,0.0873 0.206198,0.1453 0.160622,0.12718 0.373459,0.25522 0.648216,0.39358 0.386743,0.19477 0.74207,0.42952 1.058028,0.69125 0.465923,0.40963 0.878112,0.90503 1.118217,1.37567 l 0.261684,0.51327 -0.375012,0.52266 c -0.607211,0.84553 -1.088447,2.00236 -1.290557,3.10306 -0.216027,1.17651 -0.146026,1.79416 0.233001,2.05964 0.06133,0.043 0.126095,0.0753 0.19209,0.10253 0.34681,0.17716 0.770431,0.12216 1.028167,-0.16363 0.03057,-0.0339 0.05904,-0.0767 0.08628,-0.12415 0.163047,-0.18728 0.217821,-0.3702 0.225008,-0.72275 0.02505,-0.13234 0.04892,-0.27694 0.07148,-0.44273 0.381082,-2.80215 2.395725,-4.77406 5.169044,-5.05948 0.67038,-0.069 0.94863,-0.15628 1.17369,-0.36772 0.33378,-0.31357 0.37809,-0.74111 0.13426,-1.10083 -0.24667,-0.53521 -1.02579,-0.61517 -2.49035,-0.29412 -0.47654,0.10449 -1.28362,0.39785 -1.793702,0.65197 l -0.831379,0.41404 c -0.06572,0.0133 -0.108553,0.0102 -0.117083,-0.0153 -0.0449,-0.13464 -0.188857,-0.35349 -0.377134,-0.6 -0.207593,-0.31077 -0.499077,-0.63773 -0.835135,-0.95176 -0.229653,-0.23167 -0.457164,-0.44081 -0.647278,-0.58145 -0.617445,-0.45675 -1.147859,-0.75611 -1.587039,-0.90214 -0.221367,-0.0827 -0.422435,-0.13143 -0.586616,-0.13143 z m 22.172014,0.002 c -0.51047,0.0226 -1.21375,0.35912 -2.08832,1.00606 -0.64493,0.4771 -1.71771,1.70772 -1.85953,2.13324 -0.0268,0.0801 -0.35846,-0.0395 -0.83208,-0.29978 -0.92273,-0.5072 -2.40396,-0.91531 -3.32197,-0.91531 -0.52784,0 -0.70321,0.055 -0.94377,0.29554 -0.31075,0.31075 -0.37117,0.70486 -0.18198,1.03592 0.11037,0.35851 0.49069,0.51433 1.42363,0.61952 1.37842,0.15544 2.68349,0.8141 3.60952,1.76574 0.78849,0.85608 1.31487,1.97382 1.49112,3.26978 0.0221,0.16315 0.0457,0.30494 0.0703,0.43568 0.003,0.44103 0.0672,0.62688 0.29507,0.85488 0.33939,0.33939 0.8472,0.38509 1.2379,0.11145 0.37902,-0.26549 0.4488,-0.88313 0.23277,-2.05964 -0.18197,-0.99098 -0.59108,-2.02543 -1.11375,-2.83926 -0.0503,-0.0799 -0.1015,-0.15657 -0.15331,-0.22878 -0.008,-0.0113 -0.0154,-0.0239 -0.0235,-0.0351 l -0.37501,-0.52267 0.26168,-0.51302 c 0.39922,-0.78255 1.27092,-1.63812 2.08196,-2.04341 0.40161,-0.20067 0.82856,-0.45389 0.94871,-0.56262 0.31366,-0.28388 0.26023,-0.77615 0.006,-1.11563 -0.16167,-0.27651 -0.41878,-0.40795 -0.76601,-0.39266 z M 93.481636,124.8519 c -0.216722,-0.001 -0.381289,0.10881 -0.60237,0.32987 -0.633355,0.63335 -0.442832,0.97997 1.087652,1.97944 0.545806,0.35645 0.931566,0.73325 1.295259,1.2647 l 0.517963,0.75684 -0.248284,0.34892 c -0.37989,0.53351 -0.913421,1.7854 -1.063905,2.4967 -0.226197,1.06919 -0.17768,1.67764 0.160587,2.0159 0.368231,0.36825 0.800267,0.37701 1.210146,0.0244 0.260805,-0.22434 0.33448,-0.42685 0.427443,-1.17372 0.228063,-1.83218 1.394741,-3.35561 3.080498,-4.02237 0.937095,-0.37064 1.125745,-0.55638 1.125745,-1.10788 0,-0.28148 -0.0919,-0.46201 -0.33105,-0.65057 -0.441212,-0.3478 -1.031085,-0.2657 -2.124982,0.29555 -0.459376,0.23569 -0.842958,0.41528 -0.8523,0.39898 -0.570784,-0.99459 -1.682236,-2.0451 -2.767796,-2.61613 -0.42917,-0.22577 -0.697882,-0.33913 -0.914606,-0.34069 z m 24.541274,0.0256 c -0.21672,0.001 -0.48542,0.11493 -0.9146,0.34067 -1.08556,0.57104 -2.19702,1.62157 -2.76781,2.61617 -0.009,0.0163 -0.39292,-0.1633 -0.85229,-0.39901 -1.0939,-0.56125 -1.68379,-0.6431 -2.12498,-0.2953 -0.23919,0.18854 -0.33106,0.36885 -0.33106,0.65033 0,0.55148 0.18867,0.73723 1.12575,1.10788 1.68576,0.66678 2.85244,2.19018 3.0805,4.02238 0.093,0.74687 0.16663,0.94937 0.42745,1.1737 0.40987,0.35256 0.8419,0.34382 1.21014,-0.0244 0.33828,-0.33828 0.38678,-0.94672 0.16058,-2.0159 -0.15047,-0.71131 -0.68376,-1.9632 -1.06365,-2.4967 l -0.24853,-0.34892 0.51797,-0.75685 c 0.36368,-0.53145 0.74945,-0.90825 1.29525,-1.2647 1.53048,-0.99947 1.72101,-1.34609 1.08766,-1.97944 -0.22108,-0.22108 -0.38566,-0.33143 -0.60238,-0.32987 z" /><circle
       style="fill:none;fill-opacity:1;stroke:#000000;stroke-width:3.32772;stroke-linecap:round;stroke-linejoin:round;stroke-dasharray:none;stroke-dashoffset:2.26772;stroke-opacity:1;paint-order:fill markers stroke"
       id="path5906"
       cx="62.764858"
       cy="80.634651"
       r="6.4948978" /><circle
       style="fill:none;fill-opacity:1;stroke:#000000;stroke-width:3.32772;stroke-linecap:round;stroke-linejoin:round;stroke-dasharray:none;stroke-dashoffset:2.26772;stroke-opacity:1;paint-order:fill markers stroke"
       id="path5906-2"
       cx="87.30114"
       cy="61.149952"
       r="6.4948978" /><circle
       style="fill:none;fill-opacity:1;stroke:#000000;stroke-width:3.32772;stroke-linecap:round;stroke-linejoin:round;stroke-dasharray:none;stroke-dashoffset:2.26772;stroke-opacity:1;paint-order:fill markers stroke"
       id="path5908"
       cx="139.50087"
       cy="70.772034"
       r="16.838623" /><circle
       style="fill:none;fill-opacity:1;stroke:#000000;stroke-width:3.32772;stroke-linecap:round;stroke-linejoin:round;stroke-dasharray:none;stroke-dashoffset:2.26772;stroke-opacity:1;paint-order:fill markers stroke"
       id="path5910"
       cx="67.816437"
       cy="156.649"
       r="11.787037" /><circle
       style="fill:none;fill-opacity:1;stroke:#000000;stroke-width:3.32772;stroke-linecap:round;stroke-linejoin:round;stroke-dasharray:none;stroke-dashoffset:2.26772;stroke-opacity:1;paint-order:fill markers stroke"
       id="path5912"
       cx="146.11603"
       cy="165.66969"
       r="9.5017948" /><circle
       style="fill:none;fill-opacity:1;stroke:#000000;stroke-width:3.10097;stroke-linecap:round;stroke-linejoin:round;stroke-dasharray:none;stroke-dashoffset:2.26772;stroke-opacity:1;paint-order:fill markers stroke"
       id="path5914"
       cx="105.82363"
       cy="119.60403"
       r="29.701244" /><path
       style="fill:none;fill-opacity:1;stroke:#000000;stroke-width:2.98923;stroke-linecap:round;stroke-linejoin:round;stroke-dasharray:none;stroke-dashoffset:2.26772;stroke-opacity:1;paint-order:fill markers stroke"
       d="m 129.80749,85.75754 -7.3145,9.479462"
       id="path5938" /><path
       style="fill:none;fill-opacity:1;stroke:#000000;stroke-width:3.32772;stroke-linecap:round;stroke-linejoin:round;stroke-dasharray:none;stroke-dashoffset:2.26772;stroke-opacity:1;paint-order:fill markers stroke"
       d="M 67.575887,84.724028 83.452304,99.157135"
       id="path6003" /><path
       style="fill:none;fill-opacity:1;stroke:#000000;stroke-width:3.32772;stroke-linecap:round;stroke-linejoin:round;stroke-dasharray:none;stroke-dashoffset:2.26772;stroke-opacity:1;paint-order:fill markers stroke"
       d="M 67.335336,75.823613 82.249544,65.479887"
       id="path6005" /><path
       style="fill:none;fill-opacity:1;stroke:#000000;stroke-width:3.32772;stroke-linecap:round;stroke-linejoin:round;stroke-dasharray:none;stroke-dashoffset:2.26772;stroke-opacity:1;paint-order:fill markers stroke"
       d="m 76.957407,148.47024 7.938207,-7.45709"
       id="path6007" /><path
       style="fill:none;fill-opacity:1;stroke:#000000;stroke-width:3.32772;stroke-linecap:round;stroke-linejoin:round;stroke-dasharray:none;stroke-dashoffset:2.26772;stroke-opacity:1;paint-order:fill markers stroke"
       d="M 139.98197,157.85176 126.27052,141.49424"
       id="path6009" /></g></svg>
