<?xml version="1.0" encoding="UTF-8" standalone="no"?>
<!-- Created with Inkscape (http://www.inkscape.org/) -->

<svg
   width="112.67605mm"
   height="124.82229mm"
   viewBox="0 0 112.67605 124.82229"
   version="1.1"
   id="svg5"
   xml:space="preserve"
   xmlns="http://www.w3.org/2000/svg"
   xmlns:svg="http://www.w3.org/2000/svg"><defs
     id="defs2"><rect
       x="401.13806"
       y="430.53589"
       width="365.10202"
       height="434.32916"
       id="rect407" /><rect
       x="401.13806"
       y="430.53589"
       width="365.10202"
       height="434.32916"
       id="rect407-3" /></defs><g
     id="layer1"
     transform="translate(-46.923501,-52.065472)"><path
       id="path248"
       style="fill:#000000;fill-opacity:1;stroke-width:0.160492"
       d="m 102.95964,72.763751 c -1.83689,0.01862 -3.672191,0.749248 -5.147037,2.188277 l -1.020945,0.996494 -0.910293,-0.906217 c -2.873289,-2.860151 -7.231374,-3.03136 -10.276529,-0.404053 -0.917834,0.791897 -1.895208,2.313517 -2.208024,3.437422 l -0.247949,0.890231 -1.121879,0.176479 c -1.654359,0.260498 -3.344285,1.152221 -4.631084,2.443434 -1.290011,1.294434 -1.981844,2.480689 -2.399862,4.115125 -0.404799,1.582859 -0.403693,2.897547 0.0041,4.491907 0.306578,1.198697 0.30859,1.269494 0.04013,1.410264 -0.09877,0.05179 -0.414271,0.330681 -0.795253,0.69181 -0.517824,0.430112 -1.086178,1.033463 -1.560412,1.656646 -0.0025,0.0033 -0.0053,0.0065 -0.0078,0.0097 -0.0468,0.06165 -0.08975,0.122901 -0.134475,0.18463 -0.689465,0.92938 -1.13952,1.894055 -1.411832,3.021143 -0.301224,1.246748 -0.236673,3.402907 0.137296,4.584377 l 0.296535,0.93756 -0.176793,0.25924 -0.275533,0.32788 c -1.110718,1.32066 -1.794726,3.45705 -1.776073,5.54827 0.01795,2.01216 0.57447,3.62755 1.827482,5.30597 l 0.622535,0.83412 -0.09968,1.17642 c -0.228656,2.705 0.7382,5.28117 2.713011,7.22874 1.043945,1.02955 1.125698,1.16238 1.335033,2.17229 0.775992,3.74369 4.023358,6.65113 7.689842,6.88487 0.727623,0.0464 1.462726,0.21926 2.086402,0.49089 0.529624,0.23066 1.324063,0.51335 1.765416,0.62786 1.245118,0.32304 3.614547,0.1697 4.95583,-0.32067 1.704279,-0.62307 3.38551,-1.91887 4.27938,-3.29825 0.106823,-0.13569 0.182595,-0.2295 0.278041,-0.34825 0.103608,0.12882 0.188009,0.23342 0.305311,0.38242 0.89387,1.37938 2.575103,2.67517 4.279379,3.29825 1.34128,0.49036 3.71072,0.64371 4.95583,0.32067 0.44136,-0.11451 1.2358,-0.39721 1.76542,-0.62787 0.62368,-0.27163 1.35878,-0.44449 2.0864,-0.49088 3.66649,-0.23374 6.91385,-3.14119 7.68985,-6.88487 0.20933,-1.00991 0.29109,-1.14275 1.33502,-2.17229 1.97481,-1.94757 2.94167,-4.52344 2.71302,-7.22843 l -0.0997,-1.17674 0.62253,-0.8338 c 1.25301,-1.67842 1.80953,-3.29413 1.82748,-5.30628 0.0186,-2.09122 -0.66535,-4.22761 -1.77607,-5.54827 l -0.0269,-0.032 -0.41063,-0.60185 0.2818,-0.89086 c 0.37397,-1.18147 0.43852,-3.337627 0.1373,-4.584376 -0.15311,-0.633726 -0.36167,-1.215948 -0.63665,-1.769805 -0.0945,-0.210922 -0.19574,-0.413637 -0.30468,-0.604041 -0.60183,-1.0519 -1.73952,-2.310977 -2.58135,-2.874757 -0.17944,-0.159502 -0.32802,-0.284347 -0.38713,-0.315343 -0.26847,-0.14077 -0.26649,-0.211568 0.0401,-1.410264 0.40777,-1.59436 0.40913,-2.909047 0.004,-4.491907 -0.0335,-0.130944 -0.0719,-0.254437 -0.10908,-0.379915 -0.0195,-0.07249 -0.0397,-0.143517 -0.0611,-0.212841 -0.0259,-0.08386 -0.0516,-0.167926 -0.0802,-0.246694 -0.0349,-0.0957 -0.0717,-0.190642 -0.11003,-0.284937 -0.0198,-0.05013 -0.0424,-0.09824 -0.063,-0.14764 -0.0235,-0.0547 -0.0474,-0.109128 -0.0721,-0.163314 -0.15609,-0.351414 -0.33657,-0.687565 -0.5448,-1.013735 -0.007,-0.01052 -0.0134,-0.02085 -0.0201,-0.03135 -0.0701,-0.108655 -0.14274,-0.217237 -0.21942,-0.324433 -1.41744,-2.040197 -3.6801,-3.513986 -6.12191,-3.866864 l -0.76446,-0.110316 -0.23447,-0.843212 c -0.10904,-0.391756 -0.3024,-0.831968 -0.54228,-1.272655 -0.15846,-0.310081 -0.33848,-0.602976 -0.55295,-0.888977 -0.34811,-0.495941 -0.73447,-0.94911 -1.11311,-1.275789 -0.58657,-0.506083 -1.2221,-0.907336 -1.8861,-1.206515 -1.00443,-0.477838 -2.07968,-0.713052 -3.15499,-0.702154 z m 0.0944,2.613957 c 0.38677,-0.0012 0.67385,0.0084 0.92502,0.04169 0.11649,0.01808 0.22947,0.04155 0.34073,0.06771 0.28091,0.07229 0.55353,0.187538 0.93099,0.376154 0.23658,0.118224 0.45462,0.249187 0.66015,0.388692 0.0982,0.07498 0.19602,0.150871 0.29277,0.236037 0.56032,0.493211 1.09923,1.210483 1.40651,1.839394 0.13332,0.322427 0.19407,0.576166 0.1771,0.752307 -0.0908,0.124703 -0.34082,0.233774 -0.88773,0.432578 -1.37016,0.49806 -2.43642,1.213946 -3.53428,2.372905 -0.80464,0.84943 -1.07744,1.413645 -0.87926,1.930297 0.0542,0.244909 0.20061,0.457576 0.44731,0.630372 0.68594,0.480445 1.16977,0.307396 2.27417,-0.813434 1.15048,-1.167603 2.22684,-1.749979 3.7628,-2.03562 2.00095,-0.372117 4.18168,0.442714 5.66738,1.971048 0.83183,0.901736 1.39463,2.025316 1.61715,3.231476 0.0192,0.300644 0.0254,0.66667 0.0254,1.173601 0,0.478064 -0.004,0.824386 -0.0188,1.110281 -0.10384,0.583694 -0.28869,1.166715 -0.56642,1.734384 -0.21174,0.432764 -0.33418,0.811381 -0.3771,1.132851 -0.008,0.04326 -0.013,0.08427 -0.0169,0.124757 -2.1e-4,0.003 -6.1e-4,0.0064 -0.001,0.0094 -0.007,0.0815 -0.008,0.159337 0.004,0.231649 0.0229,0.233522 0.10863,0.419075 0.25924,0.548244 0.0906,0.07767 0.29985,0.206059 0.54291,0.34042 0.15665,0.09503 0.33581,0.194984 0.5426,0.304371 0.76755,0.406019 1.53704,1.061881 2.14062,1.783284 0.3,0.375521 0.5611,0.768537 0.74448,1.152285 0.36581,0.765522 0.47465,1.249293 0.531,2.359736 0.0389,0.768258 0.0246,1.581523 -0.032,1.807113 -0.0249,0.0993 -0.0454,0.17279 -0.0677,0.22475 -0.0935,0.005 -0.30223,-0.0508 -0.5542,-0.14043 -0.69049,-0.38222 -2.10499,-0.802303 -2.43277,-0.702787 -0.55508,0.168537 -0.84194,0.511077 -0.88459,1.045707 -0.18593,0.62753 0.22909,1.20005 1.17078,1.52092 0.94771,0.32292 1.8467,0.88983 2.58135,1.58862 0.34675,0.35409 0.67493,0.75341 0.98239,1.20808 0.0898,0.13279 0.14698,0.20964 0.22036,0.31503 0.1175,0.20943 0.22046,0.42267 0.30469,0.63821 0.50895,1.30241 0.51647,3.45448 0.0166,4.69377 -0.52273,1.29599 -0.63987,1.43745 -0.86359,1.0432 -0.10018,-0.17654 -0.55708,-0.70015 -1.01561,-1.16357 -0.957,-0.9672 -1.466,-1.07618 -2.09361,-0.44856 -0.61905,0.61904 -0.52385,1.21437 0.3517,2.20019 0.41008,0.46173 0.93369,1.2405 1.16357,1.73062 0.36717,0.78286 0.41784,1.09596 0.41784,2.57635 0,1.51424 -0.0462,1.78554 -0.45734,2.6754 -0.25164,0.54467 -0.61898,1.14218 -0.81625,1.32751 l -0.35891,0.33665 -0.19247,-0.6429 c -0.44291,-1.47831 -1.58649,-1.98086 -2.38763,-1.04948 -0.43915,0.51054 -0.427,0.72953 0.12475,2.24784 0.48096,1.3235 0.3969,3.13777 -0.20625,4.45398 -0.4557,0.9944 -1.69799,2.41897 -2.54061,2.91331 -0.51243,0.30062 -0.51885,0.30062 -0.38963,0 0.32707,-0.76091 0.28366,-1.32283 -0.13448,-1.74097 -0.77797,-0.77796 -1.49036,-0.50392 -2.32589,0.89431 -0.51119,0.85547 -1.68749,1.87452 -2.72524,2.36099 -0.80499,0.37737 -1.10671,0.42694 -2.59608,0.42694 -1.51507,0 -1.77624,-0.0446 -2.58732,-0.44292 -1.40799,-0.69146 -2.297084,-1.57591 -2.986037,-2.96943 l -0.561097,-1.1341 -0.09247,-7.44441 c -0.0029,-0.23636 -0.0056,-0.35491 -0.0085,-0.57739 -0.02303,-4.15607 0.01734,-6.19019 0.143566,-6.77109 0.549826,-2.52887 2.365488,-4.34058 5.047048,-5.03639 0.52872,-0.13719 1.05233,-0.37386 1.16357,-0.52599 0.32811,-0.44873 0.24581,-1.24193 -0.16927,-1.63188 -0.47759,-0.44868 -1.17182,-0.44366 -2.5265,0.0182 -2.128416,0.7256 -3.839205,2.12124 -4.933262,3.96968 -1.093099,-1.86575 -2.812201,-3.2737 -4.95395,-4.00385 -1.354676,-0.46183 -2.049217,-0.46686 -2.526814,-0.0182 -0.415078,0.38995 -0.497383,1.18316 -0.16927,1.63189 0.111241,0.15213 0.634848,0.3888 1.163571,0.52599 2.681559,0.69581 4.49722,2.50753 5.047046,5.03639 0.127281,0.58573 0.16759,2.64143 0.143252,6.86952 -0.0027,0.21155 -0.0053,0.32324 -0.0082,0.5473 l -0.09153,7.37419 -0.561723,1.13598 c -0.688953,1.39352 -1.578361,2.27798 -2.98635,2.96943 -0.811081,0.39832 -1.072258,0.44291 -2.587313,0.44291 -1.489372,0 -1.791097,-0.0495 -2.596091,-0.42693 -1.037747,-0.48647 -2.213732,-1.50553 -2.724922,-2.36099 -0.83552,-1.39823 -1.548238,-1.67227 -2.3262,-0.89431 -0.418138,0.41814 -0.461551,0.98005 -0.134475,1.74097 0.129221,0.30062 0.122789,0.30062 -0.389633,0 -0.842623,-0.49434 -2.084919,-1.91892 -2.540607,-2.91332 -0.603155,-1.3162 -0.687214,-3.13046 -0.206258,-4.45397 0.551748,-1.51832 0.563902,-1.7373 0.124758,-2.24784 -0.801138,-0.93138 -1.944726,-0.42883 -2.387638,1.04947 l -0.192466,0.64291 -0.3586,-0.33697 c -0.197273,-0.18533 -0.564606,-0.78252 -0.816254,-1.3272 -0.411131,-0.88986 -0.457654,-1.16115 -0.457654,-2.67539 0,-1.48039 0.05067,-1.7935 0.417845,-2.57635 0.229882,-0.49013 0.753488,-1.26889 1.16357,-1.73062 0.87555,-0.98583 0.97075,-1.58114 0.351703,-2.20019 -0.627619,-0.62762 -1.136294,-0.51865 -2.093296,0.44857 -0.458532,0.46342 -0.915749,0.98702 -1.01593,1.16357 -0.223724,0.39425 -0.340864,0.25277 -0.863587,-1.04321 -0.499858,-1.23928 -0.49203,-3.39136 0.01693,-4.69377 0.04862,-0.12442 0.1049,-0.24788 0.164881,-0.37051 0.106036,-0.14657 0.213538,-0.29756 0.360168,-0.51439 0.91678,-1.35573 1.999806,-2.25762 3.298557,-2.74624 0.811029,-0.30512 1.19055,-0.52719 1.347885,-0.87299 0.14173,-0.24017 0.16911,-0.50794 0.0815,-0.78585 -0.0658,-0.48568 -0.353389,-0.79887 -0.87832,-0.95825 -0.04959,-0.015 -0.128787,-0.0159 -0.222244,-0.009 -0.419738,-0.03943 -0.963287,0.10859 -1.715262,0.44606 -0.497275,0.22317 -0.951769,0.36188 -1.072039,0.33289 -0.01444,-0.0448 -0.02824,-0.0853 -0.04483,-0.1514 -0.05659,-0.22559 -0.07125,-1.038848 -0.03229,-1.807106 0.05635,-1.110443 0.16519,-1.594215 0.531004,-2.359738 0.561242,-1.1745 1.808102,-2.453377 2.887295,-2.961586 0.441357,-0.207834 0.928851,-0.486283 1.083323,-0.618774 0.165468,-0.141916 0.249118,-0.354521 0.260488,-0.621594 0.025,-0.171054 -0.0043,-0.366143 -0.07742,-0.599025 -0.06562,-0.249624 -0.167375,-0.52385 -0.315343,-0.826286 -0.272116,-0.556186 -0.454479,-1.127117 -0.559529,-1.698962 -0.02084,-0.303659 -0.02571,-0.675759 -0.02571,-1.214037 0,-0.448327 0.0053,-0.785733 0.01943,-1.067337 0.456561,-2.559403 2.443264,-4.757633 5.282144,-5.257694 2.113571,-0.372297 3.992593,0.284694 5.797475,2.027157 0.115131,0.11115 0.219018,0.204397 0.322865,0.297475 0.0233,0.02177 0.04657,0.04323 0.06927,0.06395 0.02494,0.02191 0.04934,0.04248 0.07366,0.06332 0.269928,0.239166 0.502533,0.408238 0.709991,0.500912 0.487768,0.242796 0.838895,0.144163 1.214037,-0.255158 0.04536,-0.04828 0.08544,-0.09645 0.122563,-0.144506 0.0074,-0.0093 0.01367,-0.01906 0.02069,-0.02852 0.338413,-0.458369 0.298777,-0.920282 -0.160179,-1.558845 -0.241299,-0.380425 -0.605347,-0.795537 -1.094608,-1.238801 -0.19137,-0.173378 -0.434613,-0.359094 -0.694945,-0.544483 -0.0437,-0.03353 -0.08858,-0.06347 -0.132594,-0.09592 -0.01312,-0.0097 -0.02635,-0.01895 -0.0395,-0.02853 -9.7e-4,-6.67e-4 -0.0021,-0.0012 -0.0032,-0.0019 -0.33189,-0.241538 -0.673753,-0.454538 -1.03317,-0.64197 -0.04419,-0.02304 -0.08722,-0.04789 -0.131967,-0.07022 -0.609944,-0.334073 -1.166713,-0.576727 -1.450075,-0.60028 -0.202684,-0.08615 -0.325093,-0.157253 -0.385558,-0.230081 -0.03218,-0.117158 -0.01626,-0.282231 0.04138,-0.48806 0.265989,-0.684464 0.883637,-1.54927 1.528753,-2.11712 0.982808,-0.865099 2.023279,-1.198588 3.492592,-1.119999 1.405611,0.07519 2.422487,0.544018 3.340874,1.540351 4.66e-4,5.05e-4 7.89e-4,7.28e-4 0.0013,0.0013 0.247446,0.292152 0.473451,0.622739 0.67645,0.997122 l 0.238231,0.43916 c 0.301194,1.300507 0.288354,4.311126 0.345122,13.659408 l 0.08025,13.214287 0.326,0.28055 c 0.106942,0.26969 0.261658,0.31945 0.460162,0.35108 0.201783,0.11024 0.383006,0.12583 0.642284,0.074 0.358963,-0.0718 0.585738,-0.01 0.732559,-0.489 l 0.291206,-0.25077 0.08025,-13.214294 c 0.05522,-9.093596 0.04473,-12.187865 0.321299,-13.547189 l 0.262054,-0.483044 c 0.946885,-1.746291 2.365999,-2.591569 4.361509,-2.597344 z M 81.965859,86.093084 c -0.963349,0 -1.581519,1.361251 -0.898695,1.979197 0.0513,0.04643 0.154219,0.116397 0.274906,0.193719 0.214144,0.169548 0.497902,0.340267 0.864214,0.524736 0.515611,0.259657 0.989338,0.572627 1.410578,0.921577 0.621176,0.546105 1.170714,1.206597 1.490824,1.834065 l 0.348882,0.684287 -0.499971,0.696825 c -0.809545,1.127271 -1.451136,2.669594 -1.720591,4.137068 -0.288012,1.568532 -0.194686,2.391984 0.31064,2.745927 0.08177,0.05726 0.16811,0.10025 0.256099,0.136669 0.462372,0.236196 1.027148,0.162856 1.370767,-0.21817 0.04076,-0.04519 0.07872,-0.102228 0.115041,-0.165507 0.217376,-0.249677 0.290401,-0.493554 0.299983,-0.963579 0.03339,-0.17644 0.06523,-0.369225 0.09529,-0.590252 0.508064,-3.735866 3.194016,-6.364849 6.891457,-6.745384 0.89376,-0.09198 1.264729,-0.20835 1.564801,-0.490254 0.44499,-0.418049 0.504057,-0.988054 0.178986,-1.467628 -0.328881,-0.713568 -1.367601,-0.82016 -3.320186,-0.39214 -0.635322,0.139266 -1.71134,0.530427 -2.3914,0.869229 l -1.1084,0.552006 c -0.08761,0.0178 -0.144716,0.01379 -0.156105,-0.02038 C 87.283129,90.135565 87.0912,89.843807 86.840186,89.51514 86.56342,89.100824 86.174808,88.664927 85.72677,88.246247 85.420593,87.937386 85.117273,87.658552 84.86381,87.471056 84.040622,86.862104 83.333466,86.462995 82.747944,86.268303 82.452813,86.157972 82.184746,86.093078 81.965857,86.093079 Z m 29.560081,0.0025 c -0.68056,0.02999 -1.61819,0.47877 -2.78418,1.341303 -0.85984,0.636065 -2.29007,2.276735 -2.47916,2.844038 -0.0356,0.106728 -0.4779,-0.05257 -1.10934,-0.399664 -1.2302,-0.676196 -3.205,-1.220306 -4.42891,-1.220306 -0.7037,0 -0.937517,0.0733 -1.258237,0.394021 -0.414292,0.414303 -0.494852,0.939728 -0.242616,1.381113 0.147115,0.477973 0.65419,0.68572 1.898003,0.825971 1.83772,0.207225 3.57767,1.085359 4.81227,2.354098 1.05123,1.141335 1.753,2.631526 1.98798,4.359311 0.0296,0.217503 0.0609,0.406558 0.0937,0.580846 0.004,0.588 0.0894,0.835778 0.39339,1.139744 0.45249,0.452491 1.12949,0.513421 1.65038,0.148583 0.50532,-0.353942 0.59834,-1.177394 0.31033,-2.745925 -0.2426,-1.321195 -0.78802,-2.700336 -1.48487,-3.785364 -0.0672,-0.106513 -0.13537,-0.208714 -0.20438,-0.304997 -0.0107,-0.01507 -0.0206,-0.03178 -0.0314,-0.04671 l -0.49997,-0.696826 0.34888,-0.683973 c 0.53226,-1.043296 1.69442,-2.183969 2.77571,-2.724296 0.53542,-0.267553 1.10465,-0.605159 1.26482,-0.750114 0.41819,-0.378461 0.34694,-1.034765 0.009,-1.487376 -0.21555,-0.368629 -0.55833,-0.543879 -1.02126,-0.523481 z M 80.443375,110.19638 c -0.288938,-0.002 -0.508341,0.14504 -0.803089,0.43979 -0.844398,0.8444 -0.590391,1.30652 1.450074,2.63903 0.727678,0.47522 1.24198,0.97757 1.726861,1.68612 l 0.690556,1.00903 -0.331016,0.46518 c -0.506475,0.71128 -1.217786,2.38033 -1.418414,3.32865 -0.30157,1.42545 -0.236888,2.23664 0.214095,2.68762 0.490932,0.49097 1.066929,0.50264 1.613387,0.0326 0.347709,-0.29909 0.445932,-0.56908 0.569873,-1.56481 0.304057,-2.44271 1.859491,-4.47375 4.106977,-5.3627 1.249334,-0.49414 1.500854,-0.74178 1.500854,-1.47703 0,-0.37528 -0.122464,-0.61598 -0.441354,-0.86735 -0.588233,-0.4637 -1.374663,-0.35424 -2.833068,0.39402 -0.612446,0.31423 -1.123845,0.55366 -1.136299,0.53194 -0.760979,-1.32602 -2.242784,-2.72657 -3.690071,-3.48788 -0.572175,-0.30099 -0.930428,-0.45213 -1.219366,-0.45421 z m 32.718825,0.0341 c -0.28894,0.002 -0.64718,0.15322 -1.21936,0.45421 -1.44729,0.76131 -2.9291,2.16187 -3.69008,3.48789 -0.0124,0.0217 -0.52385,-0.21772 -1.1363,-0.53195 -1.4584,-0.74826 -2.24484,-0.8574 -2.83306,-0.39371 -0.31889,0.25138 -0.44136,0.49176 -0.44136,0.86704 0,0.73525 0.25152,0.98289 1.50086,1.47704 2.24748,0.88895 3.80292,2.91999 4.10697,5.3627 0.12395,0.99573 0.22216,1.26571 0.56988,1.5648 0.54645,0.47004 1.12245,0.45837 1.61339,-0.0326 0.45098,-0.45099 0.51566,-1.26217 0.21409,-2.68762 -0.20063,-0.94832 -0.91162,-2.61737 -1.4181,-3.32865 l -0.33133,-0.46518 0.69056,-1.00904 c 0.48488,-0.70854 0.99918,-1.2109 1.72686,-1.68611 2.04046,-1.33252 2.29447,-1.79464 1.45007,-2.63904 -0.29474,-0.29475 -0.51415,-0.44186 -0.80309,-0.43978 z" /><circle
       style="fill:none;fill-opacity:1;stroke:#000000;stroke-width:3;stroke-linecap:round;stroke-linejoin:round;stroke-dasharray:none;stroke-dashoffset:2.26772;stroke-opacity:1;paint-order:fill markers stroke"
       id="path4359"
       cx="96.303139"
       cy="105.69836"
       r="46.733803" /><circle
       style="fill:none;fill-opacity:1;stroke:#000000;stroke-width:3;stroke-linecap:round;stroke-linejoin:round;stroke-dasharray:none;stroke-dashoffset:2.26772;stroke-opacity:1;paint-order:fill markers stroke"
       id="path4359-7"
       cx="96.303139"
       cy="105.69836"
       r="40.809181" /><path
       style="fill:none;fill-opacity:1;stroke:#000000;stroke-width:3;stroke-linecap:round;stroke-linejoin:round;stroke-dasharray:none;stroke-dashoffset:2.26772;stroke-opacity:1;paint-order:fill markers stroke"
       d="m 130.34889,140.50055 6.57486,10.95811 15.34135,15.34135 c 1.94355,0.69929 3.89832,0.41654 5.47906,-1.09582 1.81626,-1.85955 1.58707,-3.4249 1.09581,-5.47903 l -15.34136,-15.34136 -10.9581,-6.57488 z"
       id="path5145" /></g></svg>
