<?xml version="1.0" encoding="UTF-8" standalone="no"?>
<!-- Created with Inkscape (http://www.inkscape.org/) -->

<svg
   width="98.475578mm"
   height="102.38519mm"
   viewBox="0 0 98.475578 102.38519"
   version="1.1"
   id="svg5"
   xml:space="preserve"
   xmlns="http://www.w3.org/2000/svg"
   xmlns:svg="http://www.w3.org/2000/svg"><defs
     id="defs2" /><g
     id="layer1"
     transform="translate(-51.527085,-8.6723301)"><path
       style="fill:#506c00;stroke-width:0.251195;fill-opacity:1"
       d="m 55.356588,108.71534 c -1.754977,-0.87696 -2.880507,-2.04373 -3.728734,-3.86533 l -0.592494,-1.2724 -0.0023,-39.940093 -0.0023,-39.940082 0.717819,-1.517314 c 1.311752,-2.772762 3.61732,-4.252923 7.100662,-4.55858 l 1.664586,-0.146066 0.144718,-1.221893 c 0.197281,-1.665737 0.919464,-3.174469 2.056067,-4.295386 1.517517,-1.496563 2.711871,-1.950916 5.128377,-1.950916 1.791991,0 2.260395,0.09564 3.336449,0.681312 1.594572,0.867874 2.660646,2.402666 3.365353,4.844989 l 0.5436,1.883966 3.419514,0.06988 3.419514,0.06988 v -0.87685 c 0,-1.410664 0.909783,-3.46375 2.041315,-4.606595 1.587068,-1.602937 2.759543,-2.066598 5.225871,-2.066598 1.79199,0 2.260396,0.09564 3.336448,0.681311 1.594573,0.867876 2.660646,2.402667 3.365357,4.844992 l 0.543597,1.883965 3.419506,0.06988 3.419527,0.06988 v -0.876849 c 0,-1.410664 0.90978,-3.46375 2.04131,-4.606595 1.59543,-1.61139 2.75644,-2.067025 5.25986,-2.064241 1.87527,0.0022 2.26434,0.08592 3.38672,0.729704 1.61523,0.926481 2.56356,2.303144 3.26658,4.742028 l 0.55812,1.936177 3.3837,0.06967 3.38371,0.06967 0.14955,-1.262584 c 0.20189,-1.704668 0.91586,-3.206856 2.06088,-4.336075 1.52584,-1.504776 2.70878,-1.951289 5.16236,-1.94856 1.87527,0.0022 2.26433,0.08592 3.38672,0.729705 1.6155,0.926636 2.56381,2.303529 3.26599,4.742026 l 0.55754,1.936179 2.60369,0.156201 c 2.864,0.171815 3.83566,0.444793 5.42215,1.523297 1.23939,0.842557 2.10545,1.912188 2.81532,3.477154 0.505,1.113281 0.50952,1.477173 0.51257,41.063317 l 0.003,39.940094 -0.59251,1.2724 c -0.84821,1.8216 -1.97374,2.98837 -3.72872,3.86534 l -1.53162,0.76533 H 100.76717 56.888191 Z m 88.598342,-4.19615 c 0.47373,-0.24155 1.09544,-0.75832 1.38157,-1.14837 0.51879,-0.70717 0.52043,-0.79711 0.58594,-32.090217 l 0.0658,-31.38106 H 100.76717 55.546198 l 0.06569,31.38106 c 0.0655,31.293107 0.06714,31.383047 0.585931,32.090217 0.286135,0.39005 0.907845,0.90682 1.381574,1.14837 0.809931,0.41301 3.387085,0.43921 43.187777,0.43921 39.80068,0 42.37783,-0.0263 43.18776,-0.43921 z M 62.314927,98.196217 61.580662,97.461954 v -5.690545 -5.690544 l 0.734265,-0.734262 0.734262,-0.734265 h 5.690546 5.690543 l 0.734262,0.734265 0.734265,0.734262 v 5.690544 5.690545 l -0.734265,0.734263 -0.734262,0.734255 h -5.690543 -5.690546 z m 8.811163,-6.424808 v -2.386356 h -2.386355 -2.38636 v 2.386356 2.386357 h 2.38636 2.386355 z m 12.540452,6.424808 -0.734264,-0.734263 v -5.690545 -5.690544 l 0.734264,-0.734262 0.734262,-0.734265 h 5.690546 5.690547 l 0.734257,0.734265 0.734262,0.734262 v 5.690544 5.690545 l -0.734262,0.734263 -0.734257,0.734255 H 90.09135 84.400804 Z m 8.811165,-6.424808 V 89.385053 H 90.09135 87.704993 v 2.386356 2.386357 h 2.386357 2.386357 z m 12.540453,6.424808 -0.73427,-0.734263 v -5.690545 -5.690544 l 0.73427,-0.734262 0.73427,-0.734265 h 5.69054 5.69055 l 0.73425,0.734265 0.73426,0.734262 v 5.690544 5.690545 l -0.73426,0.734263 -0.73425,0.734255 h -5.69055 -5.69054 z m 8.81116,-6.424808 v -2.386356 h -2.38635 -2.38635 v 2.386356 2.386357 h 2.38635 2.38635 z m 12.54046,6.424808 -0.73426,-0.734263 v -5.690545 -5.690544 l 0.73426,-0.734262 0.73426,-0.734265 h 5.69055 5.69054 l 0.73427,0.734265 0.73425,0.734262 v 5.690544 5.690545 l -0.73425,0.734263 -0.73427,0.734255 h -5.69054 -5.69055 z m 8.81116,-6.424808 v -2.386356 h -2.38635 -2.38636 v 2.386356 2.386357 h 2.38636 2.38635 z M 62.926317,79.346205 c -1.26254,-0.52558 -1.345655,-0.962299 -1.345655,-7.070508 0,-6.437704 0.03943,-6.58444 1.883967,-7.011815 1.370089,-0.317447 9.57328,-0.304018 10.7312,0.01756 1.652601,0.458972 1.702976,0.667932 1.702976,7.064195 0,5.670063 -0.0039,5.71223 -0.6058,6.412393 l -0.605799,0.704794 -5.61129,0.05374 c -3.086208,0.02956 -5.853528,-0.04711 -6.149599,-0.170361 z m 8.199773,-6.916848 v -2.386356 h -2.386355 -2.38636 v 2.386356 2.386359 h 2.38636 2.386355 z m 13.151843,6.916848 c -1.262539,-0.52558 -1.345655,-0.962299 -1.345655,-7.070508 0,-6.437704 0.03943,-6.58444 1.883965,-7.011815 1.370091,-0.317447 9.573283,-0.304018 10.731201,0.01756 1.6526,0.458972 1.702972,0.667932 1.702972,7.064195 0,5.670063 -0.0041,5.71223 -0.605798,6.412393 l -0.605793,0.704794 -5.611293,0.05374 c -3.086207,0.02956 -5.853528,-0.04711 -6.149599,-0.170361 z m 8.199774,-6.916848 V 70.043001 H 90.09135 87.704993 v 2.386356 2.386359 h 2.386357 2.386357 z m 13.151853,6.916848 c -1.25595,-0.522837 -1.34567,-0.980126 -1.34567,-6.859618 0,-5.759841 0.14652,-6.639274 1.1839,-7.106319 0.58847,-0.264937 9.34373,-0.459276 10.80679,-0.239877 0.6878,0.103143 1.36942,0.405007 1.73102,0.766588 0.5932,0.59321 0.59643,0.627813 0.59643,6.371354 0,5.741203 -0.004,5.779023 -0.60579,6.479704 l -0.6058,0.704795 -5.61128,0.05374 c -3.08621,0.02956 -5.85354,-0.04711 -6.1496,-0.170362 z m 8.19976,-6.916848 v -2.386356 h -2.38635 -2.38635 v 2.386356 2.386359 h 2.38635 2.38635 z m 13.15185,6.916848 c -1.25596,-0.522837 -1.34565,-0.980126 -1.34565,-6.859618 0,-5.760053 0.1468,-6.641088 1.18388,-7.105036 0.6047,-0.270518 8.82001,-0.457219 10.55887,-0.239963 0.96396,0.120437 1.56802,0.354477 1.9811,0.767557 0.59045,0.590447 0.59428,0.631554 0.59428,6.369188 0,5.741203 -0.004,5.779023 -0.60578,6.479704 l -0.60581,0.704795 -5.61129,0.05374 c -3.08622,0.02956 -5.85352,-0.04711 -6.1496,-0.170362 z m 8.19977,-6.916848 v -2.386356 h -2.38635 -2.38636 v 2.386356 2.386359 h 2.38636 2.38635 z M 62.919218,59.880194 c -0.438137,-0.190584 -0.918547,-0.574364 -1.06758,-0.852839 -0.170817,-0.319168 -0.270976,-2.59635 -0.270976,-6.160722 0,-5.613779 0.0044,-5.65947 0.605779,-6.359202 l 0.605778,-0.704793 5.462297,-0.07696 c 3.822611,-0.05386 5.679694,0.01308 6.186507,0.223018 1.406247,0.582486 1.457782,0.830407 1.457782,7.013015 0,6.350113 -0.05181,6.563736 -1.702976,7.02231 -1.446485,0.401728 -10.301837,0.320197 -11.276611,-0.103828 z m 8.206872,-6.918486 v -2.511954 h -2.386355 -2.38636 v 2.511954 2.511955 h 2.38636 2.386355 z m 13.144744,6.918486 c -0.438135,-0.190584 -0.918548,-0.574364 -1.06758,-0.852839 -0.170816,-0.319168 -0.270976,-2.59635 -0.270976,-6.160722 0,-5.61387 0.0044,-5.659458 0.605809,-6.359202 l 0.605808,-0.704793 5.452559,-0.08099 c 3.861494,-0.05735 5.666721,0.0077 6.18647,0.223015 1.417131,0.586994 1.467492,0.827833 1.467492,7.01704 0,6.350112 -0.05179,6.563735 -1.702972,7.02231 -1.446487,0.401726 -10.301836,0.320196 -11.27661,-0.103828 z m 8.206873,-6.918486 V 50.449754 H 90.09135 87.704993 v 2.511954 2.511955 h 2.386357 2.386357 z m 13.144753,6.918486 c -0.43814,-0.190584 -0.91855,-0.574364 -1.06759,-0.852839 -0.17081,-0.319168 -0.27098,-2.59635 -0.27098,-6.160722 0,-5.614716 0.004,-5.659352 0.60612,-6.359202 l 0.60609,-0.704793 h 5.94655 5.94655 l 0.60641,0.704793 c 0.60263,0.700386 0.60642,0.740512 0.60642,6.412393 0,6.396262 -0.0504,6.605223 -1.70297,7.064195 -1.44647,0.401727 -10.30183,0.320196 -11.2766,-0.103828 z m 8.20686,-6.918486 v -2.511954 h -2.38635 -2.38635 v 2.511954 2.511955 h 2.38635 2.38635 z m 14.929,6.31041 c -0.61097,-0.372574 -1.01448,-1.055165 -1.94675,-3.293221 -1.34888,-3.238103 -1.45995,-4.263302 -0.55948,-5.163768 1.22722,-1.227219 3.07808,-0.700041 4.03433,1.149082 0.21224,0.410466 0.42803,0.746302 0.47949,0.746302 0.0514,0 1.25197,-1.305566 2.66777,-2.901256 3.40968,-3.842919 4.36184,-4.319441 5.78572,-2.895563 0.56035,0.560354 0.73425,0.96614 0.73425,1.713267 0,0.912362 -0.29755,1.313071 -4.37143,5.886718 -4.84323,5.437377 -5.24784,5.71952 -6.8239,4.758439 z M 145.92198,30.10292 c 0.0568,-4.265076 0.007,-5.009662 -0.37678,-5.759643 -0.76123,-1.483298 -1.57991,-1.890101 -4.00825,-1.99168 -2.40129,-0.100451 -2.57783,10e-4 -2.58423,1.484915 -0.009,2.270417 -2.47035,5.193474 -4.98779,5.925319 -4.35497,1.266023 -8.62667,-1.483306 -9.27202,-5.967599 l -0.19468,-1.352774 h -3.3877 -3.38768 l -0.15927,1.304895 c -0.57105,4.678657 -5.18777,7.4974 -9.58505,5.852167 -2.6452,-0.989694 -4.22853,-2.964273 -4.63353,-5.77849 l -0.1984,-1.378572 h -3.387676 -3.387686 l -0.159271,1.304895 c -0.707085,5.793164 -7.404747,8.320657 -11.938939,4.505386 -1.033133,-0.869327 -2.053847,-2.862234 -2.283011,-4.457507 l -0.19433,-1.352774 -3.242772,-0.07062 c -3.57912,-0.07796 -3.648515,-0.05012 -3.655046,1.465682 -0.0021,0.490964 -0.295923,1.478785 -0.65291,2.195163 -3.190402,6.402303 -12.77103,4.796571 -13.63541,-2.285322 l -0.159267,-1.304895 -1.00478,-0.0687 c -1.20376,-0.08231 -2.51809,0.537192 -3.247687,1.530773 -0.476724,0.649213 -0.527161,1.121119 -0.602903,5.640747 -0.07541,4.500278 -0.04339,4.960976 0.365639,5.260067 0.365536,0.267284 8.705038,0.315716 45.172259,0.262346 l 44.72394,-0.06546 z M 69.241477,24.765014 c 0.875141,-0.754737 1.102129,-1.976779 1.027942,-5.534134 -0.05252,-2.518419 -0.137476,-3.061144 -0.570165,-3.642333 -0.960842,-1.290615 -2.557928,-1.368143 -3.744304,-0.181766 -0.589259,0.589259 -0.606354,0.716999 -0.606354,4.530627 v 3.924272 l 0.734263,0.734262 c 0.925883,0.925884 2.201874,0.994187 3.158618,0.169072 z m 21.36003,-0.0057 c 0.851235,-0.732201 1.074758,-1.997278 1.000708,-5.663704 -0.04829,-2.391654 -0.137072,-2.950497 -0.55861,-3.516735 -0.953641,-1.280995 -2.554387,-1.354684 -3.73704,-0.172034 -0.589258,0.589251 -0.606354,0.716992 -0.606354,4.530617 v 3.924271 l 0.734264,0.734263 c 0.928539,0.928541 2.20111,0.994164 3.167032,0.163311 z m 21.464063,-0.138602 c 0.58389,-0.583889 0.74223,-1.014548 0.89396,-2.431653 0.27639,-2.580695 -0.0168,-5.874656 -0.59185,-6.64708 -0.92638,-1.244577 -2.54122,-1.303406 -3.7095,-0.135138 -0.58926,0.589251 -0.60636,0.716992 -0.60636,4.530617 v 3.924271 l 0.73427,0.734263 c 1.00293,1.00293 2.29155,1.012639 3.27948,0.02472 z m 21.35293,-0.0011 c 0.87076,-0.870789 1.13177,-2.518283 0.94987,-5.995868 -0.0965,-1.844568 -0.2361,-2.526986 -0.62351,-3.047383 -0.95167,-1.278366 -2.55343,-1.351 -3.73505,-0.169373 -0.58927,0.58926 -0.60638,0.717001 -0.60638,4.530627 v 3.924271 l 0.73427,0.734262 c 1.0035,1.003486 2.29152,1.012677 3.2808,0.02341 z"
       id="path5250" /></g></svg>
