<?xml version="1.0" encoding="UTF-8" standalone="no"?>
<!-- Created with Inkscape (http://www.inkscape.org/) -->

<svg
   width="98.494087mm"
   height="102.38033mm"
   viewBox="0 0 98.494087 102.38033"
   version="1.1"
   id="svg5"
   xml:space="preserve"
   xmlns="http://www.w3.org/2000/svg"
   xmlns:svg="http://www.w3.org/2000/svg"><defs
     id="defs2" /><g
     id="layer1"
     transform="translate(-54.339847,-33.484461)"><path
       style="fill:#000000;stroke-width:0.242569"
       d="m 64.152799,132.36457 -0.70664,-0.60763 -0.06858,-9.69937 -0.06858,-9.69937 -1.319967,-0.6458 c -0.725984,-0.35519 -1.701153,-1.09113 -2.167051,-1.63543 -1.618844,-1.89126 -1.620613,-1.90883 -1.541127,-15.388299 l 0.07133,-12.094389 0.776573,-1.63941 c 2.009756,-4.242763 6.091199,-6.493291 11.247503,-6.201934 l 1.693461,0.09569 1.748543,1.748549 1.748542,1.748545 1.756427,-1.744696 c 1.53602,-1.525774 1.867635,-1.744698 2.642759,-1.744698 1.078832,0 1.794117,0.755881 1.794117,1.895945 0,0.666922 -0.387934,1.157644 -2.784129,3.521785 -3.457241,3.410999 -3.389554,3.407427 -6.470954,0.341541 l -2.0993,-2.088724 -1.903097,0.112836 c -2.813668,0.166824 -4.742874,1.396636 -5.820266,3.710239 l -0.565618,1.214612 -0.0028,11.67125 -0.0027,11.671258 0.545778,0.69438 0.545779,0.69438 0.121292,-8.296207 c 0.117084,-8.008846 0.13884,-8.313762 0.628281,-8.802864 0.756889,-0.756375 1.987029,-0.708082 2.68682,0.105481 l 0.566003,0.658012 v 19.850278 c 0,18.54853 -0.02787,19.8838 -0.424496,20.36155 -0.687762,0.82837 -1.794914,0.90945 -2.628686,0.19249 z m 10.197944,-0.0325 -0.595395,-0.5954 v -10.42393 -10.42388 l 0.639136,-0.50276 c 0.810898,-0.63785 1.549368,-0.63785 2.360266,0 l 0.639136,0.50276 v 10.51654 10.51655 l -0.639136,0.50274 c -0.847845,0.66691 -1.676372,0.63498 -2.404007,-0.0926 z m 10.619901,0.34396 c -0.302121,-0.12138 -0.656876,-0.50362 -0.788345,-0.84941 -0.142662,-0.37521 -0.239045,-4.57048 -0.239045,-10.40427 0,-9.52236 0.01302,-9.79211 0.502744,-10.41469 0.651164,-0.82781 2.101555,-0.89464 2.794983,-0.12877 0.435937,0.48146 0.465981,1.06805 0.530753,10.36088 0.04712,6.76416 -0.01494,10.05246 -0.198322,10.49507 -0.255374,0.61654 -1.1432,1.20983 -1.761662,1.17725 -0.160485,-0.008 -0.538985,-0.11469 -0.841106,-0.23606 z m 5.598475,0.007 c -0.291459,-0.11743 -0.646213,-0.4308 -0.788344,-0.69638 -0.172193,-0.32176 -0.258427,-4.23435 -0.258427,-11.72534 v -11.24264 l -1.10596,-0.32655 c -1.500915,-0.44317 -3.517438,-2.31745 -4.259236,-3.9588 l -0.577757,-1.27837 -0.06848,-13.425933 c -0.07362,-14.416973 -0.04126,-14.887989 1.197932,-17.455433 1.291015,-2.674816 3.854581,-4.855018 6.932085,-5.895426 1.327375,-0.448746 2.18448,-0.557162 4.481496,-0.566868 l 2.840218,-0.01201 1.283454,1.21609 c 0.7059,0.668847 1.68532,1.583552 2.17648,2.032676 l 0.89302,0.81659 2.08545,-1.908629 c 1.147,-1.049745 2.32791,-2.002746 2.62423,-2.117779 0.29633,-0.115032 1.68492,-0.152159 3.08576,-0.0825 6.18713,0.307655 10.34753,3.510296 11.76327,9.055279 0.32809,1.28502 0.37144,3.355256 0.31243,14.918005 l -0.0685,13.425928 -0.57775,1.27838 c -0.7418,1.64135 -2.75831,3.51563 -4.25923,3.9588 l -1.10596,0.32654 v 11.32093 c 0,12.5875 0.0546,12.16897 -1.62762,12.49388 -0.65165,0.12586 -0.89891,0.0301 -1.51607,-0.58703 l -0.73742,-0.73743 v -22.68747 c 0,-16.110548 0.0781,-22.858816 0.26932,-23.278553 0.53974,-1.184611 2.09127,-1.459449 3.01639,-0.534325 l 0.5954,0.595397 v 9.74338 9.743381 l 0.54578,-0.35765 c 0.30018,-0.19671 0.79399,-0.72125 1.09736,-1.16563 l 0.55159,-0.80798 -0.0665,-13.600036 -0.0665,-13.600034 -0.58773,-1.194147 c -1.34629,-2.735443 -3.86171,-4.283607 -7.25022,-4.462315 l -2.01628,-0.106335 -2.47838,2.438851 c -1.36311,1.341367 -2.76518,2.510834 -3.11572,2.598812 -0.92371,0.231837 -1.50374,-0.152887 -4.114654,-2.729144 l -2.340564,-2.309506 -2.025681,0.10683 c -3.398547,0.179231 -5.911754,1.724216 -7.25961,4.462807 l -0.587722,1.194147 -0.06913,13.341305 c -0.03805,7.337717 -0.0092,13.584915 0.06417,13.882645 0.147055,0.59719 1.505198,2.24821 1.8494,2.24821 0.124593,0 0.217446,-4.14802 0.217446,-9.713797 v -9.713794 l 0.595395,-0.595397 c 0.925122,-0.925124 2.476645,-0.650286 3.01639,0.534325 0.191244,0.419737 0.269319,7.168005 0.269319,23.278553 v 22.68747 l -0.709051,0.70904 c -0.730266,0.73028 -1.207385,0.83462 -2.125282,0.46479 z m 11.897711,-0.0394 c -0.28496,-0.13799 -0.63972,-0.51778 -0.78835,-0.84399 -0.18684,-0.41008 -0.27024,-4.2537 -0.27024,-12.45407 v -11.86116 l 0.56804,-0.66037 c 0.40587,-0.47187 0.79767,-0.66038 1.37251,-0.66038 0.57484,0 0.96664,0.18851 1.37252,0.66038 l 0.56803,0.66037 v 11.86095 c 0,8.17602 -0.0837,12.04459 -0.26932,12.45204 -0.26232,0.57575 -1.15582,1.14636 -1.74329,1.1133 -0.16048,-0.009 -0.52494,-0.1293 -0.8099,-0.26728 z m 17.46498,0 c -1.01016,-0.48914 -1.05859,-1.00239 -1.05859,-11.21704 0,-9.52679 0.013,-9.79647 0.50274,-10.41906 0.71022,-0.9029 2.1654,-0.9029 2.87562,0 0.48978,0.62265 0.50274,0.89199 0.50274,10.44252 0,10.56354 -0.0483,10.99625 -1.26376,11.32185 -0.71913,0.19263 -0.9322,0.1751 -1.55875,-0.12828 z m 10.01102,-0.21905 -0.63914,-0.50274 v -10.51675 -10.51654 l 0.63914,-0.50276 c 0.81089,-0.63785 1.54937,-0.63785 2.36026,0 l 0.63914,0.50276 v 10.42388 10.4239 l -0.5954,0.5954 c -0.72763,0.72763 -1.55616,0.75956 -2.404,0.0926 z m 10.14417,-0.0926 -0.5954,-0.5954 V 111.84843 91.96025 l 0.566,-0.658012 c 0.6998,-0.813563 1.92993,-0.861856 2.68682,-0.105481 0.48946,0.489115 0.5112,0.793936 0.62829,8.808253 l 0.12128,8.30161 0.54578,-0.76515 0.54578,-0.76515 -0.003,-11.605885 -0.003,-11.605875 -0.57105,-1.226335 c -1.09041,-2.341909 -3.45784,-3.746334 -6.3151,-3.746334 h -1.46803 l -2.06665,2.056216 c -3.04433,3.028983 -2.98567,3.032391 -6.4383,-0.374051 -2.39618,-2.364141 -2.78413,-2.854863 -2.78413,-3.521785 0,-1.141919 0.7151,-1.895945 1.79806,-1.895945 0.78111,0 1.10425,0.213967 2.63498,1.744698 l 1.7447,1.744696 1.76053,-1.748783 1.76054,-1.748785 1.68925,-0.09545 c 5.85639,-0.330915 10.44148,2.713122 11.81143,7.841582 0.49612,1.857302 0.47149,23.570226 -0.0287,25.254416 -0.47259,1.59141 -1.77073,3.06669 -3.39977,3.8637 l -1.31996,0.6458 -0.0686,9.69937 -0.0686,9.69937 -0.68058,0.58523 c -0.86916,0.74737 -1.72982,0.74384 -2.48383,-0.0102 z M 127.91336,105.6129 c -2.90408,-2.55796 -2.97591,-2.64788 -2.97591,-3.72537 0,-1.06993 1.89744,-17.665852 2.09052,-18.284692 0.33653,-1.078618 2.41634,-1.280746 3.21958,-0.312897 0.456,0.549435 0.41729,1.20241 -0.59378,10.01653 l -0.91128,7.944249 1.17042,1.02991 1.17042,1.02991 1.17202,-0.98126 c 0.64461,-0.5397 1.16969,-1.10756 1.16685,-1.2619 -0.003,-0.15435 -0.43302,-3.990533 -0.95594,-8.524859 -1.03312,-8.958194 -1.02794,-9.142888 0.27387,-9.76683 0.79228,-0.37973 1.71928,-0.08182 2.23165,0.71718 0.48499,0.756302 2.50263,18.453859 2.19227,19.229259 -0.12069,0.30153 -1.35381,1.54489 -2.74029,2.76304 -3.32552,2.92179 -3.338,2.92204 -6.5104,0.12773 z M 73.539057,74.933559 c -1.696413,-0.333156 -4.034713,-1.550955 -5.362198,-2.792662 -2.827796,-2.645071 -4.029268,-7.382841 -3.047213,-12.016057 0.945181,-4.459208 4.285695,-7.656357 8.839747,-8.460367 4.248785,-0.750114 9.307304,1.80545 11.150423,5.633196 1.183557,2.457983 1.591697,6.300337 0.978763,9.214466 -0.677935,3.223181 -2.75965,5.937989 -5.634239,7.347724 -2.52188,1.236756 -4.518645,1.546337 -6.925283,1.0737 z M 78.761453,70.5114 c 2.773788,-1.407949 3.815187,-3.56339 3.687064,-7.631348 -0.06894,-2.188813 -0.177272,-2.78872 -0.681968,-3.776819 -0.672792,-1.31718 -1.707975,-2.319652 -3.227199,-3.12523 -1.447375,-0.76747 -4.469889,-0.774169 -5.903814,-0.01307 -1.53338,0.813868 -2.353977,1.605817 -3.12868,3.019444 -0.62102,1.133187 -0.720501,1.594442 -0.8025,3.72059 -0.05152,1.334871 0.0243,2.864735 0.168315,3.399699 0.595515,2.211566 2.298428,4.028987 4.567986,4.875151 1.384098,0.516035 3.800435,0.303321 5.320796,-0.468403 z m 50.299677,4.419766 c -3.06135,-0.593456 -6.29944,-3.091872 -7.5958,-5.860683 -1.57496,-3.363915 -1.52718,-8.367718 0.11243,-11.772814 1.84312,-3.827746 6.90164,-6.38331 11.15042,-5.633196 4.55406,0.80401 7.89458,4.001159 8.83975,8.460367 1.27328,6.007131 -0.94274,11.473223 -5.57162,13.743114 -2.51235,1.231996 -4.49587,1.536081 -6.93518,1.063212 z m 5.00091,-4.296119 c 1.50706,-0.769563 2.34515,-1.571051 3.13633,-2.999346 0.68646,-1.239265 0.71653,-1.420805 0.71653,-4.325669 0,-2.904862 -0.0301,-3.086404 -0.71653,-4.325668 -0.78417,-1.415634 -1.60683,-2.207634 -3.13633,-3.019445 -1.43392,-0.761085 -4.45644,-0.754386 -5.9038,0.01307 -1.51924,0.805578 -2.55442,1.80805 -3.22721,3.125231 -0.5047,0.988098 -0.61303,1.588005 -0.68196,3.776819 -0.0608,1.930704 0.0195,2.907695 0.31136,3.786332 0.67286,2.025766 2.43887,3.677427 4.74326,4.436122 1.04406,0.343743 3.67614,0.08517 4.75835,-0.46746 z M 102.55715,68.72128 c -0.5497,-0.143358 -1.14891,-1.302336 -1.14891,-2.222176 0,-0.673142 -0.0983,-0.74606 -1.63735,-1.21481 -4.503242,-1.371548 -7.734804,-5.142152 -8.440563,-9.848497 l -0.165079,-1.100824 h -1.560187 c -1.333068,0 -1.646851,-0.08667 -2.155582,-0.595398 -0.750545,-0.750546 -0.758117,-1.614068 -0.02164,-2.470255 0.492155,-0.572172 0.796981,-0.681231 2.143737,-0.766986 l 1.569996,-0.09997 0.312885,-1.574098 c 0.851383,-4.283323 4.243541,-8.012465 8.361049,-9.191667 l 1.592754,-0.456141 v -0.92369 c 0,-0.657282 0.17172,-1.095412 0.59539,-1.519087 1.27617,-1.276168 3.28571,-0.347095 3.28571,1.519087 v 0.92369 l 1.59274,0.456141 c 4.14268,1.18641 7.51291,4.92613 8.35827,9.274629 l 0.28956,1.489475 1.58305,0.100802 c 1.3606,0.08664 1.66367,0.19453 2.15679,0.767816 0.73646,0.856187 0.72889,1.719709 -0.0216,2.470255 -0.50872,0.508726 -0.82251,0.595398 -2.15558,0.595398 h -1.56018 l -0.17135,1.142671 c -0.69609,4.641828 -3.96828,8.446441 -8.4343,9.80665 -1.53906,0.46875 -1.63734,0.541668 -1.63734,1.21481 0,1.730285 -1.12132,2.642289 -2.73219,2.222176 z m -1.14891,-7.491744 c 0,-0.76666 1.2124,-2.043179 1.94055,-2.043179 0.73774,0 1.94055,1.276556 1.94055,2.059524 0,0.553474 0.0748,0.618289 0.54579,0.472674 2.14868,-0.664372 4.00393,-2.336125 5.05266,-4.552936 0.87021,-1.839474 0.89276,-2.54073 0.10239,-3.185389 -0.33329,-0.271837 -0.67353,-0.844633 -0.75609,-1.272882 -0.12616,-0.654326 -0.0294,-0.899337 0.60597,-1.534716 0.41584,-0.415846 0.75608,-0.961905 0.75608,-1.213464 0,-0.882273 -0.98233,-3.070598 -1.81512,-4.04353 -0.93479,-1.092089 -2.80122,-2.373928 -3.82461,-2.626687 -0.59232,-0.146295 -0.66707,-0.09753 -0.66707,0.435253 0,1.035237 -0.87099,1.878278 -1.94055,1.878278 -0.72125,0 -1.05002,-0.146147 -1.43781,-0.639136 -0.2765,-0.351524 -0.50274,-0.897305 -0.50274,-1.212846 0,-0.729454 -0.33589,-0.721497 -1.872784,0.04437 -2.111071,1.051992 -3.989496,3.491363 -4.330461,5.623645 -0.135109,0.844891 -0.06574,1.035844 0.628372,1.729963 0.659168,0.659174 0.756944,0.901057 0.630124,1.558871 -0.0826,0.428249 -0.438779,1.013786 -0.79159,1.301194 -0.549271,0.447449 -0.620672,0.650787 -0.496721,1.414625 0.372541,2.295641 2.331882,4.779796 4.604612,5.837939 1.576228,0.733864 1.628448,0.73285 1.628448,-0.03157 z"
       id="path2626" /></g></svg>
