<?xml version="1.0" encoding="UTF-8" standalone="no"?>
<!-- Created with Inkscape (http://www.inkscape.org/) -->

<svg
   width="112.67605mm"
   height="124.82229mm"
   viewBox="0 0 112.67605 124.82229"
   version="1.1"
   id="svg5"
   xml:space="preserve"
   xmlns="http://www.w3.org/2000/svg"
   xmlns:svg="http://www.w3.org/2000/svg"><defs
     id="defs2"><rect
       x="401.13806"
       y="430.53589"
       width="365.10202"
       height="434.32916"
       id="rect407" /><rect
       x="401.13806"
       y="430.53589"
       width="365.10202"
       height="434.32916"
       id="rect407-3" /></defs><g
     id="layer1"
     transform="translate(-46.923501,-52.065472)"><path
       id="path248"
       style="fill:#000000;fill-opacity:1;stroke-width:0.115679"
       d="m 123.83986,92.82243 c -1.15325,-0.650563 -2.56226,-0.855736 -4.00152,-0.48901 l -0.99641,0.2541 -0.24161,-0.893758 c -0.76277,-2.820841 -3.42149,-4.498337 -6.26916,-3.95575 -0.85832,0.163496 -2.01676,0.761088 -2.61709,1.349927 l -0.47562,0.466329 -0.76391,-0.294127 c -1.12655,-0.433573 -2.50282,-0.486013 -3.77139,-0.143759 -1.27175,0.343099 -2.13113,0.834246 -2.98106,1.703831 -0.82313,0.842154 -1.29625,1.663194 -1.61669,2.805188 -0.240601,0.858717 -0.264885,0.903633 -0.483188,0.894769 -0.08032,-0.0038 -0.377759,0.05711 -0.745691,0.14524 -0.478265,0.08181 -1.050515,0.253661 -1.57108,0.471722 -0.001,-3.12e-4 -0.0063,0.0036 -0.0084,0.005 -0.05155,0.02125 -0.100054,0.04477 -0.15048,0.06684 -0.765282,0.331685 -1.393901,0.771651 -1.970078,1.377035 -0.637322,0.669658 -1.3741,2.038824 -1.566386,2.911121 l -0.15279,0.692112 -0.203772,0.0981 -0.29022,0.10538 c -1.169294,0.4241 -2.36618,1.51115 -3.1082,2.82323 -0.713939,1.26252 -0.948742,2.47141 -0.771459,3.97067 l 0.08792,0.74506 -0.486158,0.69838 c -1.117591,1.60611 -1.442518,3.56265 -0.911717,5.49006 0.280637,1.01889 0.283768,1.13127 0.05051,1.8371 -0.864786,2.61656 0.114485,5.60171 2.318863,7.069 0.43745,0.29129 0.834046,0.664 1.125459,1.05835 0.247463,0.33483 0.641484,0.79762 0.875718,1.02813 0.660802,0.65039 2.195067,1.40859 3.20911,1.58591 1.288366,0.22524 2.804778,0.0224 3.859881,-0.51659 0.115582,-0.0463 0.196749,-0.0775 0.29906,-0.11723 0.01848,0.1176 0.03318,0.21339 0.0527,0.34874 0.06089,1.18317 0.643328,2.59794 1.482598,3.60107 0.66051,0.78946 2.08429,1.73912 2.97791,1.98619 0.3168,0.0876 0.91457,0.19745 1.32829,0.24433 0.48721,0.0552 1.00837,0.21221 1.47928,0.44551 2.37293,1.17545 5.44776,0.53088 7.28135,-1.52633 0.49468,-0.55492 0.59353,-0.60839 1.61623,-0.87479 1.93456,-0.50406 3.46644,-1.76352 4.29858,-3.5344 l 0.36197,-0.77038 0.68908,-0.29618 c 1.38701,-0.59611 2.31669,-1.40407 3.05305,-2.65367 0.76456,-1.29904 1.10828,-2.87867 0.89089,-4.10339 l -0.006,-0.0301 -0.0394,-0.5237 0.49698,-0.45453 c 0.65923,-0.60272 1.47655,-1.92532 1.73782,-2.81219 0.13279,-0.45074 0.21244,-0.88935 0.2404,-1.33416 0.0171,-0.16574 0.0268,-0.32877 0.0276,-0.48686 0.004,-0.8735 -0.25301,-2.06941 -0.5753,-2.72479 -0.0545,-0.16423 -0.10226,-0.29566 -0.12795,-0.33637 -0.11674,-0.18473 -0.0901,-0.22811 0.53319,-0.86588 0.82914,-0.84827 1.30381,-1.66843 1.62208,-2.80207 0.026,-0.0937 0.0469,-0.18471 0.0689,-0.27641 0.0134,-0.0527 0.027,-0.10405 0.0386,-0.1548 0.014,-0.0615 0.0284,-0.12346 0.0389,-0.18289 0.0128,-0.0722 0.0238,-0.1448 0.034,-0.21741 0.005,-0.0385 0.008,-0.0764 0.0139,-0.11486 0.005,-0.0426 0.0105,-0.0851 0.0139,-0.12793 0.0292,-0.2756 0.0377,-0.55047 0.0253,-0.82913 -0.001,-0.0105 -0.001,-0.0177 -0.001,-0.0268 -0.005,-0.093 -0.0112,-0.18706 -0.02,-0.28165 -0.14951,-1.78433 -1.03077,-3.51974 -2.42781,-4.620051 l -0.4374,-0.344404 0.15751,-0.610823 c 0.0733,-0.283837 0.11112,-0.628336 0.1201,-0.989885 0.0125,-0.251132 0.006,-0.498821 -0.0252,-0.754636 -0.0385,-0.435041 -0.11647,-0.857159 -0.23501,-1.197509 -0.18377,-0.527323 -0.43586,-1.006814 -0.74258,-1.432842 -0.45478,-0.660254 -1.04116,-1.194599 -1.71631,-1.57533 z m -0.88317,1.665637 c 0.24186,0.138664 0.41749,0.248233 0.56231,0.359499 0.0661,0.05342 0.12816,0.108737 0.18832,0.165034 0.14931,0.146386 0.27792,0.316544 0.44552,0.570384 0.10488,0.159187 0.19435,0.319155 0.27174,0.480656 0.0344,0.08206 0.0679,0.164919 0.0976,0.252902 0.17205,0.509755 0.24991,1.15176 0.21509,1.655075 -0.0331,0.249285 -0.0865,0.429571 -0.16053,0.533468 -0.10152,0.04567 -0.29696,0.0231 -0.71,-0.04987 -1.03477,-0.182848 -1.95836,-0.120348 -3.0613,0.207489 -0.80843,0.240256 -1.18203,0.494139 -1.24455,0.888077 -0.0544,0.172496 -0.0398,0.357874 0.052,0.554689 0.25509,0.54708 0.61944,0.61344 1.71273,0.3118 1.13894,-0.31421 2.02072,-0.28983 3.08243,0.0855 1.38313,0.48884 2.45071,1.78338 2.82731,3.27285 0.19427,0.86264 0.14065,1.76682 -0.15511,2.59993 -0.0957,0.19495 -0.2245,0.42524 -0.4072,0.74168 -0.17228,0.29841 -0.30033,0.51271 -0.41103,0.68675 -0.27515,0.32693 -0.60071,0.62425 -0.97862,0.87849 -0.28813,0.19387 -0.50103,0.38605 -0.64368,0.57128 -0.0211,0.0237 -0.0392,0.0478 -0.0546,0.0722 -6.2e-4,8.2e-4 -0.002,0.002 -0.002,0.004 -0.0348,0.0478 -0.0629,0.0964 -0.0802,0.14638 -0.0698,0.15408 -0.0832,0.30076 -0.0358,0.43568 0.0285,0.0811 0.11287,0.23667 0.21621,0.40816 0.0637,0.11548 0.13933,0.24275 0.22959,0.38518 0.33279,0.53004 0.57678,1.21677 0.69353,1.88465 0.0519,0.34248 0.0732,0.68193 0.0494,0.98755 -0.0476,0.60966 -0.15397,0.9509 -0.51897,1.66436 -0.25267,0.4935 -0.55452,0.99611 -0.67135,1.11642 -0.0512,0.0529 -0.0905,0.0917 -0.12322,0.11598 -0.0603,-0.0305 -0.17036,-0.1407 -0.29517,-0.28753 -0.29302,-0.48759 -1.02485,-1.25941 -1.26528,-1.31545 -0.40732,-0.0948 -0.70978,0.0155 -0.92908,0.33398 -0.34209,0.32481 -0.2895,0.83165 0.18268,1.37129 0.47523,0.5431 0.83208,1.22095 1.03879,1.92194 0.0889,0.34604 0.14979,0.71355 0.17786,1.10817 0.007,0.11524 0.0165,0.18383 0.0239,0.27599 -0.002,0.1731 -0.0147,0.34328 -0.0398,0.50818 -0.1517,0.99642 -0.92259,2.34249 -1.68185,2.93554 -0.79337,0.62062 -0.91743,0.66677 -0.91503,0.33996 0.001,-0.14629 -0.0954,-0.63781 -0.21462,-1.09234 -0.24881,-0.94863 -0.52725,-1.20008 -1.1452,-1.0345 -0.60952,0.1633 -0.76467,0.56922 -0.57341,1.50015 0.0896,0.43602 0.13575,1.11081 0.10268,1.49963 -0.053,0.62096 -0.13413,0.83464 -0.66767,1.75875 -0.54572,0.9452 -0.67233,1.09791 -1.24964,1.50521 -0.35342,0.24927 -0.79799,0.48994 -0.98793,0.53452 l -0.34542,0.0808 0.11161,-0.47063 c 0.25627,-1.08241 -0.27644,-1.80824 -1.11219,-1.51556 -0.45814,0.16039 -0.52949,0.30138 -0.73232,1.448 -0.17678,0.99951 -0.88309,2.10168 -1.73393,2.7059 -0.64283,0.45653 -1.93169,0.89802 -2.63584,0.90298 -0.42819,0.002 -0.43218,6.3e-4 -0.24322,-0.14043 0.47841,-0.35715 0.65382,-0.72358 0.54363,-1.13514 -0.20525,-0.76603 -0.74872,-0.85171 -1.77417,-0.28001 -0.62758,0.34938 -1.72892,0.56194 -2.55204,0.49159 -0.63846,-0.0545 -0.84466,-0.13231 -1.77438,-0.66907 -0.94573,-0.546 -1.09265,-0.66799 -1.45538,-1.20893 -0.62973,-0.93905 -0.86595,-1.81156 -0.79378,-2.92972 l 0.0585,-0.91012 2.62512,-4.68029 c 0.0843,-0.14803 0.1247,-0.22345 0.20269,-0.36355 1.48342,-2.60254 2.24059,-3.85837 2.52987,-4.17483 1.25457,-1.38042 3.04091,-1.85691 4.96548,-1.32488 0.37942,0.105 0.79163,0.14586 0.91588,0.091 0.36649,-0.16192 0.60103,-0.68665 0.48248,-1.07964 -0.13638,-0.45222 -0.57159,-0.69927 -1.58337,-0.89963 -1.5901,-0.31414 -3.16091,-0.0595 -4.51003,0.7 -0.0105,-1.55854 -0.57564,-3.05692 -1.64939,-4.28462 -0.67918,-0.77648 -1.1109,-1.02995 -1.57098,-0.92156 -0.39965,0.0938 -0.73683,0.55935 -0.69374,0.95768 0.0146,0.13501 0.25622,0.47149 0.5368,0.74769 1.42311,1.4007 1.90352,3.18598 1.3354,4.96266 -0.13171,0.41146 -0.84731,1.70928 -2.38639,4.33963 -0.0774,0.13149 -0.1186,0.20055 -0.20264,0.33853 l -2.714731,4.57009 -0.760064,0.50666 c -0.932224,0.6216 -1.806191,0.85311 -2.934261,0.7773 -0.649847,-0.0437 -0.828916,-0.11 -1.774642,-0.65598 -0.929694,-0.53676 -1.100279,-0.67628 -1.466696,-1.20209 -0.472463,-0.67765 -0.839259,-1.73758 -0.850057,-2.45579 -0.01759,-1.17396 -0.363756,-1.60185 -1.129731,-1.39659 -0.41168,0.11036 -0.641301,0.44542 -0.71135,1.03828 -0.02768,0.23426 -0.03166,0.23194 -0.243212,-0.14044 -0.347741,-0.61226 -0.609877,-1.94919 -0.53596,-2.73413 0.0979,-1.03895 0.699233,-2.20175 1.476433,-2.85456 0.89159,-0.74891 0.978091,-0.88126 0.887975,-1.35818 -0.164431,-0.87013 -1.059375,-0.96854 -1.868619,-0.20539 l -0.351848,0.33189 -0.102384,-0.3395 c -0.05637,-0.18671 -0.07046,-0.69196 -0.03118,-1.12262 0.06409,-0.70365 0.132794,-0.88975 0.678506,-1.83497 0.53353,-0.92408 0.678021,-1.10127 1.18935,-1.45761 0.320071,-0.22309 0.927654,-0.52046 1.350027,-0.66092 0.901817,-0.29982 1.175806,-0.63709 1.012433,-1.2466 -0.165546,-0.61798 -0.522402,-0.73323 -1.46832,-0.47442 -0.453199,0.12396 -0.927329,0.2861 -1.053497,0.36019 -0.281699,0.16552 -0.303899,0.035 -0.163088,-0.96242 0.134601,-0.95372 0.91506,-2.29423 1.702372,-2.92368 0.075,-0.0602 0.154689,-0.11698 0.236482,-0.17196 0.118975,-0.0531 0.2405,-0.10875 0.410161,-0.1913 1.060836,-0.51584 2.061933,-0.68855 3.048741,-0.52548 0.616198,0.10174 0.933106,0.10006 1.155976,-0.0592 0.175351,-0.0984 0.288592,-0.2562 0.334084,-0.46119 0.133996,-0.32687 0.0674,-0.62599 -0.202933,-0.91467 -0.02541,-0.0266 -0.07475,-0.0561 -0.135634,-0.0856 -0.247941,-0.17568 -0.640388,-0.279438 -1.231495,-0.339712 -0.390809,-0.0399 -0.724515,-0.117104 -0.789146,-0.178533 0.0073,-0.03297 0.01312,-0.06331 0.02656,-0.110626 0.04599,-0.161242 0.329895,-0.674163 0.631065,-1.139671 0.435398,-0.67283 0.67768,-0.935585 1.181908,-1.281627 0.773629,-0.530895 2.012819,-0.879838 2.869615,-0.808128 0.35043,0.02929 0.75506,0.03118 0.89923,0.0042 0.15445,-0.02908 0.28325,-0.131559 0.38658,-0.294183 0.0772,-0.09778 0.12981,-0.229819 0.16751,-0.401871 0.049,-0.17944 0.0843,-0.387261 0.10089,-0.629435 0.0305,-0.445259 0.12247,-0.867349 0.26302,-1.262168 0.0964,-0.197078 0.22756,-0.431079 0.42154,-0.767053 0.16158,-0.279853 0.28641,-0.488595 0.39686,-0.659199 1.20738,-1.433096 3.23974,-2.089241 5.192,-1.378315 1.45352,0.529329 2.38967,1.616618 2.88833,3.354747 0.0317,0.111018 0.0631,0.206532 0.0943,0.302022 0.007,0.02237 0.0138,0.04364 0.0204,0.06487 0.007,0.02279 0.0154,0.04422 0.0232,0.0661 0.0823,0.246568 0.16659,0.435935 0.26272,0.568519 0.21693,0.327355 0.47164,0.392405 0.8498,0.278251 0.0458,-0.01348 0.0882,-0.02914 0.12857,-0.04587 0.008,-0.0022 0.0153,-0.006 0.0227,-0.01018 0.3764,-0.16418 0.51815,-0.466788 0.46189,-1.030746 -0.0136,-0.324427 -0.0911,-0.714727 -0.23681,-1.167753 -0.057,-0.177092 -0.14193,-0.380771 -0.2376,-0.590353 -0.0153,-0.03651 -0.0326,-0.07135 -0.0479,-0.107976 -0.005,-0.01148 -0.0105,-0.02039 -0.0142,-0.03212 -3.2e-4,-7.63e-4 -7.1e-4,-10e-4 -4.1e-4,-0.0012 -0.12009,-0.270391 -0.25677,-0.526546 -0.4135,-0.773081 -0.0191,-0.03048 -0.037,-0.06148 -0.0571,-0.09144 -0.26029,-0.428378 -0.52045,-0.780474 -0.68882,-0.897309 -0.0954,-0.126817 -0.14621,-0.215331 -0.15747,-0.282733 0.0222,-0.08482 0.0919,-0.181739 0.20168,-0.289731 0.41269,-0.331435 1.11019,-0.648169 1.71727,-0.770585 0.92523,-0.185828 1.69491,-0.0191 2.58377,0.55956 0.85027,0.553557 1.31608,1.212619 1.53026,2.16554 1.5e-4,4.77e-4 2.5e-4,7.35e-4 3e-5,0.0012 0.0491,0.271497 0.0711,0.559343 0.0629,0.866199 l -0.0105,0.359997 c -0.28068,0.920348 -1.37369,2.795007 -4.70729,8.650793 l -4.71208,8.27755 0.10236,0.29262 c -0.0305,0.20685 0.0481,0.29365 0.16074,0.38492 0.0861,0.14155 0.19364,0.21666 0.37423,0.27769 0.24997,0.0845 0.37001,0.20355 0.63354,-0.0413 l 0.27221,-0.0516 4.81242,-8.21962 c 3.3118,-5.6564 4.42035,-7.591673 5.08282,-8.340557 l 0.33794,-0.206632 c 1.2204,-0.748807 2.41087,-0.765015 3.65859,-0.04952 z m -17.02527,-0.911273 c -0.60134,-0.347174 -1.4778,0.279739 -1.27427,0.911579 0.0157,0.04727 0.0543,0.128225 0.10174,0.219924 0.0725,0.183043 0.1882,0.391818 0.35034,0.63899 0.22824,0.34793 0.41121,0.713996 0.54842,1.083582 0.19087,0.564817 0.29593,1.175115 0.26963,1.682146 l -0.0288,0.552891 -0.56324,0.254765 c -0.91157,0.411944 -1.86794,1.143409 -2.56498,1.962309 -0.74509,0.87533 -0.98358,1.42297 -0.7957,1.82599 0.0304,0.0652 0.0683,0.12347 0.11099,0.17737 0.2035,0.31407 0.58241,0.4719 0.93425,0.35784 0.0415,-0.0139 0.0862,-0.0353 0.13167,-0.0616 0.22564,-0.0776 0.35934,-0.20314 0.53454,-0.49337 0.0844,-0.0981 0.17377,-0.20688 0.27224,-0.33407 1.6635,-2.14888 4.28756,-2.821936 6.73269,-1.72697 0.59111,0.26466 0.86455,0.32576 1.15347,0.25793 0.42843,-0.10069 0.67075,-0.43508 0.64066,-0.85164 0.0519,-0.563945 -0.5581,-1.004812 -1.93121,-1.441323 -0.44678,-0.142039 -1.25935,-0.285642 -1.80599,-0.319249 l -0.89082,-0.05491 c -0.0613,-0.02016 -0.0952,-0.04357 -0.0902,-0.06898 0.0277,-0.133639 0.0127,-0.38494 -0.0256,-0.680556 -0.0234,-0.358368 -0.10888,-0.7705 -0.23771,-1.19331 -0.0798,-0.303137 -0.16865,-0.586518 -0.2593,-0.794918 -0.29439,-0.676745 -0.592,-1.180736 -0.88684,-1.513586 -0.14448,-0.175165 -0.28835,-0.312376 -0.42501,-0.391294 z m 18.45123,10.654256 c -0.43567,-0.22648 -1.18264,-0.28432 -2.2213,-0.16613 -0.76596,0.0871 -2.25007,0.59585 -2.57252,0.88186 -0.0605,0.0537 -0.27931,-0.20519 -0.54842,-0.6493 -0.52416,-0.86545 -1.56085,-1.9168 -2.32482,-2.35786 -0.43926,-0.25364 -0.61167,-0.29209 -0.92741,-0.2075 -0.40796,0.10925 -0.64754,0.40828 -0.64919,0.77465 -0.0804,0.35136 0.16124,0.66378 0.88712,1.19962 1.07245,0.79167 1.84205,1.96684 2.15546,3.20375 0.24487,1.09132 0.14586,2.27442 -0.33011,3.43764 -0.06,0.14639 -0.1085,0.27571 -0.15069,0.39642 -0.20867,0.3689 -0.24524,0.554 -0.16519,0.8532 0.11935,0.44548 0.51999,0.72755 0.97668,0.68745 0.44303,-0.0387 0.79789,-0.51926 1.18336,-1.60223 0.32469,-0.91213 0.48124,-1.9696 0.43729,-2.89797 -0.004,-0.0907 -0.008,-0.17898 -0.0176,-0.2641 -0.002,-0.0127 -10e-4,-0.0277 -0.002,-0.0404 l -0.061,-0.61513 0.46432,-0.3012 c 0.70822,-0.45944 1.84476,-0.75262 2.71444,-0.70022 0.43064,0.0259 0.90762,0.0204 1.05986,-0.0125 0.39738,-0.0856 0.58947,-0.52089 0.54036,-0.92594 -10e-4,-0.30775 -0.15249,-0.54069 -0.44882,-0.6948 z m -28.087996,3.84229 c -0.180076,-0.10467 -0.369591,-0.0925 -0.659811,-0.0149 -0.831404,0.22274 -0.839393,0.60271 -0.04588,2.16989 0.282934,0.5589 0.422946,1.05781 0.470265,1.67484 l 0.0673,0.87874 -0.374273,0.17101 c -0.572544,0.26143 -1.618031,1.04693 -2.08503,1.56659 -0.701953,0.78113 -0.953932,1.31079 -0.83497,1.75483 0.129542,0.48336 0.484812,0.6983 0.995392,0.60177 0.324814,-0.0614 0.48342,-0.19457 0.919679,-0.77143 1.070137,-1.41519 2.77303,-2.12245 4.49628,-1.86736 0.957944,0.1418 1.204194,0.0778 1.469164,-0.38109 0.13525,-0.23426 0.14551,-0.42865 0.0371,-0.70048 -0.20008,-0.50142 -0.73044,-0.71652 -1.91044,-0.77506 -0.495557,-0.0246 -0.901043,-0.0593 -0.901012,-0.0775 0.0021,-1.10195 -0.417361,-2.51025 -1.046389,-3.50705 -0.248707,-0.3941 -0.417875,-0.61752 -0.597447,-0.72296 z m 20.411356,11.81273 c -0.18066,-0.10362 -0.45918,-0.13767 -0.92481,-0.15595 -1.17781,-0.0464 -2.60754,0.29386 -3.56043,0.84734 -0.0152,0.008 -0.24852,-0.3247 -0.51759,-0.7416 -0.64065,-0.99264 -1.09229,-1.34418 -1.62656,-1.26674 -0.28961,0.0419 -0.45273,0.14791 -0.58799,0.38211 -0.26499,0.45897 -0.19722,0.70421 0.40455,1.4629 1.08252,1.36489 1.3215,3.19325 0.63097,4.82759 -0.28151,0.6662 -0.31751,0.87017 -0.20825,1.18219 0.17177,0.49031 0.53543,0.69067 1.01883,0.56116 0.44405,-0.11898 0.77676,-0.60205 1.10224,-1.6005 0.21649,-0.66431 0.37422,-1.96231 0.31441,-2.58888 l -0.0392,-0.40979 0.79474,-0.38093 c 0.558,-0.26758 1.06011,-0.39579 1.6856,-0.43019 1.7539,-0.0964 2.07899,-0.2933 1.85623,-1.1247 -0.0777,-0.29023 -0.16168,-0.46113 -0.34277,-0.56401 z" /><path
       style="fill:none;fill-opacity:1;stroke:#000000;stroke-width:2.63214;stroke-linecap:round;stroke-linejoin:round;stroke-dasharray:none;stroke-dashoffset:2.26772;stroke-opacity:1;paint-order:fill markers stroke"
       d="m 139.52323,58.131546 c -27.69008,10.8183 -56.002158,31.999503 -59.567574,56.746184 l 1.077341,16.7051 24.124653,13.92837 15.00571,-7.41952 c 19.64855,-15.46109 23.836,-50.570705 19.35987,-79.960134 z"
       id="path9164" /><path
       style="fill:#000000;fill-opacity:1;stroke:#000000;stroke-width:2.63214;stroke-linecap:round;stroke-linejoin:round;stroke-dasharray:none;stroke-dashoffset:2.26772;stroke-opacity:1;paint-order:fill markers stroke"
       d="m 105.15765,145.5112 c 8.38573,8.68496 7.74928,18.39882 10.81831,27.69008 2.8395,-10.07246 8.0819,-17.43081 4.1874,-35.1096 z"
       id="path9168" /><path
       style="fill:#000000;fill-opacity:1;stroke:#000000;stroke-width:2.63214;stroke-linecap:round;stroke-linejoin:round;stroke-dasharray:none;stroke-dashoffset:2.26772;stroke-opacity:1;paint-order:fill markers stroke"
       d="m 81.032997,131.58283 c -11.714251,-2.91977 -19.808464,2.48836 -29.389438,4.47612 7.303261,-7.49534 11.054564,-15.71455 28.312081,-21.18123 z"
       id="path9168-0" /><path
       style="fill:#000000;fill-opacity:1;stroke:#000000;stroke-width:2.63214;stroke-linecap:round;stroke-linejoin:round;stroke-dasharray:none;stroke-dashoffset:2.26772;stroke-opacity:1;paint-order:fill markers stroke"
       d="m 115.85395,71.271216 24.12461,13.928365 c 2.75682,-0.716091 1.14055,-13.921203 -0.45533,-27.068035 -12.63563,5.339489 -24.53386,10.529906 -23.66928,13.13967 z"
       id="path9170" /><path
       style="fill:none;fill-opacity:1;stroke:#000000;stroke-width:2.63141;stroke-linecap:round;stroke-linejoin:round;stroke-dasharray:none;stroke-dashoffset:2.26772;stroke-opacity:1;paint-order:fill markers stroke"
       d="m 81.578811,136.82477 20.003139,11.54881 -11.106737,12.63812 2.091906,-10.22261 -20.563654,22.41865 5.833627,-23.3028 -6.157252,4.06538 z"
       id="path9194" /></g></svg>
