<?xml version="1.0" encoding="UTF-8" standalone="no"?>
<!-- Created with Inkscape (http://www.inkscape.org/) -->

<svg
   width="112.67605mm"
   height="124.82229mm"
   viewBox="0 0 112.67605 124.82229"
   version="1.1"
   id="svg5"
   xml:space="preserve"
   xmlns="http://www.w3.org/2000/svg"
   xmlns:svg="http://www.w3.org/2000/svg"><defs
     id="defs2"><rect
       x="401.13806"
       y="430.53589"
       width="365.10202"
       height="434.32916"
       id="rect407" /><rect
       x="401.13806"
       y="430.53589"
       width="365.10202"
       height="434.32916"
       id="rect407-3" /></defs><g
     id="layer1"
     transform="translate(-46.923501,-52.065472)"><path
       id="path248"
       style="fill:#ffffff;fill-opacity:1;stroke-width:0.138053"
       d="m 121.01456,73.996676 c -1.37629,-0.776388 -3.05782,-1.021243 -4.77545,-0.58359 l -1.18911,0.303246 -0.28835,-1.066619 c -0.9103,-3.366417 -4.08324,-5.368356 -7.48167,-4.720827 -1.02433,0.195117 -2.40682,0.908289 -3.12326,1.611015 l -0.56761,0.55652 -0.91166,-0.351013 c -1.34443,-0.51743 -2.986878,-0.580012 -4.5008,-0.171564 -1.517718,0.409458 -2.54331,0.995598 -3.557624,2.033368 -0.982326,1.005035 -1.546951,1.98487 -1.929368,3.347737 -0.287134,1.024801 -0.31611,1.078403 -0.576643,1.067825 -0.09583,-0.0046 -0.450822,0.06815 -0.889913,0.173331 -0.57076,0.09763 -1.253688,0.302721 -1.874941,0.562957 -0.0012,-3.72e-4 -0.0071,0.0043 -0.0096,0.006 -0.06146,0.02536 -0.1194,0.05343 -0.179584,0.07976 -0.913292,0.395836 -1.663492,0.920895 -2.351111,1.643366 -0.760584,0.799176 -1.639863,2.433151 -1.869332,3.474158 l -0.182341,0.825973 -0.243181,0.117072 -0.346351,0.125762 c -1.395454,0.506125 -2.82382,1.80342 -3.709354,3.369269 -0.852034,1.506702 -1.132258,2.949402 -0.920679,4.738632 l 0.104901,0.889162 -0.580188,0.833453 c -1.333742,1.916746 -1.721521,4.251699 -1.088055,6.551891 0.334918,1.21595 0.338654,1.35006 0.06027,2.1924 -1.032041,3.12263 0.136634,6.68513 2.767373,8.43621 0.522056,0.34763 0.995351,0.79243 1.343121,1.26305 0.295333,0.39958 0.76556,0.95188 1.045093,1.22697 0.788605,0.77619 2.619616,1.68102 3.82978,1.89264 1.537552,0.26881 3.34725,0.0268 4.606416,-0.6165 0.137946,-0.0553 0.234803,-0.0925 0.356901,-0.13991 0.02208,0.14035 0.03962,0.25467 0.06289,0.41619 0.07268,1.41201 0.767756,3.1004 1.769348,4.29755 0.788254,0.94215 2.487407,2.07548 3.55386,2.37034 0.378072,0.10454 1.091456,0.23564 1.585194,0.29159 0.58144,0.0658 1.203398,0.25325 1.765388,0.53167 2.83187,1.40279 6.5014,0.63356 8.68963,-1.82154 0.59035,-0.66224 0.70831,-0.72605 1.92881,-1.04398 2.30872,-0.60154 4.13689,-2.1046 5.12997,-4.21798 l 0.43198,-0.91938 0.82235,-0.35347 c 1.65527,-0.7114 2.76476,-1.67562 3.64353,-3.1669 0.91244,-1.55029 1.32264,-3.43543 1.06321,-4.89703 l -0.007,-0.0359 -0.047,-0.62497 0.5931,-0.54244 c 0.78672,-0.71931 1.76212,-2.29771 2.07392,-3.35611 0.15848,-0.53791 0.25353,-1.061359 0.2869,-1.592197 0.0204,-0.197791 0.0319,-0.392355 0.033,-0.581021 0.005,-1.042443 -0.30195,-2.469652 -0.68657,-3.251789 -0.065,-0.195993 -0.12204,-0.352843 -0.1527,-0.401427 -0.13931,-0.220458 -0.10752,-0.272228 0.63632,-1.033349 0.98951,-1.012333 1.55598,-1.991119 1.9358,-3.344015 0.031,-0.111822 0.056,-0.220434 0.0822,-0.32987 0.016,-0.06289 0.0323,-0.124175 0.0461,-0.18474 0.0167,-0.07339 0.0339,-0.147338 0.0464,-0.218263 0.0153,-0.08616 0.0284,-0.172805 0.0406,-0.259458 0.006,-0.04595 0.009,-0.09117 0.0166,-0.137075 0.006,-0.05084 0.0125,-0.101562 0.0166,-0.152673 0.0348,-0.328904 0.045,-0.656936 0.0302,-0.989492 -0.001,-0.01253 -0.001,-0.02113 -0.001,-0.03198 -0.006,-0.110987 -0.0133,-0.223239 -0.0239,-0.336123 -0.17842,-2.129436 -1.23013,-4.20049 -2.89737,-5.513611 l -0.52199,-0.411015 0.18797,-0.728961 c 0.0875,-0.338734 0.13261,-0.749862 0.14334,-1.181338 0.0148,-0.299703 0.007,-0.595298 -0.0301,-0.900589 -0.046,-0.519182 -0.13899,-1.022942 -0.28045,-1.429119 -0.21932,-0.629311 -0.52017,-1.201541 -0.8862,-1.709966 -0.54275,-0.787952 -1.24254,-1.425645 -2.04827,-1.880013 z m -1.05398,1.987786 c 0.28865,0.165483 0.49824,0.296243 0.67107,0.429029 0.0789,0.06376 0.15294,0.129768 0.22474,0.196953 0.17819,0.174698 0.33167,0.377767 0.53169,0.680702 0.12516,0.189974 0.23193,0.380882 0.3243,0.573618 0.041,0.09793 0.081,0.196816 0.11648,0.301817 0.20532,0.608346 0.29824,1.37452 0.25668,1.975181 -0.0395,0.297498 -0.10323,0.512653 -0.19157,0.636645 -0.12116,0.05451 -0.3544,0.02757 -0.84732,-0.05951 -1.23491,-0.218212 -2.33713,-0.143625 -3.65339,0.247619 -0.96478,0.286724 -1.41065,0.58971 -1.48526,1.059839 -0.0649,0.205859 -0.0475,0.427091 0.0621,0.661971 0.30442,0.65289 0.73924,0.732085 2.04398,0.372105 1.35922,-0.374981 2.41155,-0.345886 3.67859,0.102037 1.65065,0.583385 2.92471,2.128301 3.37414,3.905848 0.23185,1.029482 0.16786,2.108538 -0.18511,3.10278 -0.1142,0.232655 -0.26791,0.507485 -0.48595,0.885127 -0.2056,0.356126 -0.35841,0.611873 -0.49053,0.819574 -0.32836,0.390161 -0.71689,0.744985 -1.16789,1.048398 -0.34386,0.231366 -0.59794,0.460715 -0.76817,0.681771 -0.0251,0.02828 -0.0468,0.05705 -0.0651,0.08616 -7.4e-4,9.79e-4 -0.002,0.0023 -0.002,0.0048 -0.0415,0.05705 -0.0751,0.115045 -0.0957,0.174692 -0.0833,0.18388 -0.0993,0.358929 -0.0427,0.519944 0.034,0.09679 0.1347,0.282444 0.25803,0.487101 0.076,0.137816 0.16627,0.289701 0.27399,0.459678 0.39715,0.632554 0.68833,1.452104 0.82767,2.249158 0.062,0.408719 0.0873,0.813822 0.0589,1.178552 -0.0568,0.727571 -0.18374,1.134815 -0.61934,1.986259 -0.30154,0.58895 -0.66177,1.18876 -0.8012,1.33234 -0.0611,0.0631 -0.108,0.10944 -0.14705,0.13841 -0.072,-0.0364 -0.20331,-0.16791 -0.35226,-0.34314 -0.34969,-0.58189 -1.22307,-1.50299 -1.50999,-1.56986 -0.48611,-0.11314 -0.84706,0.0185 -1.10878,0.39857 -0.40825,0.38763 -0.34549,0.9925 0.21801,1.63651 0.56715,0.64813 0.99302,1.45709 1.23971,2.29366 0.10609,0.41296 0.17876,0.85155 0.21226,1.3225 0.008,0.13752 0.0197,0.21938 0.0285,0.32936 -0.002,0.20659 -0.0175,0.40968 -0.0475,0.60647 -0.18104,1.18914 -1.10103,2.79555 -2.00714,3.5033 -0.94681,0.74065 -1.09487,0.79573 -1.092,0.40571 0.001,-0.17458 -0.11385,-0.76116 -0.25613,-1.3036 -0.29693,-1.13211 -0.62923,-1.4322 -1.36669,-1.23459 -0.72741,0.19488 -0.91257,0.67932 -0.68431,1.7903 0.10693,0.52034 0.162,1.32564 0.12254,1.78967 -0.0633,0.74106 -0.16008,0.99606 -0.79681,2.0989 -0.65126,1.12801 -0.80236,1.31026 -1.49133,1.79633 -0.42177,0.29748 -0.95233,0.5847 -1.17901,0.63791 l -0.41222,0.0965 0.13319,-0.56165 c 0.30584,-1.29176 -0.3299,-2.15798 -1.32729,-1.80869 -0.54675,0.19141 -0.6319,0.35967 -0.87396,1.72806 -0.21097,1.19283 -1.05388,2.50817 -2.06929,3.22925 -0.76715,0.54483 -2.3053,1.07171 -3.14563,1.07762 -0.51101,0.002 -0.51577,7.5e-4 -0.29026,-0.16759 0.57094,-0.42622 0.78028,-0.86353 0.64877,-1.35469 -0.24494,-0.91419 -0.89352,-1.01643 -2.11731,-0.33416 -0.74896,0.41695 -2.0633,0.67062 -3.045622,0.58666 -0.761945,-0.065 -1.008025,-0.1579 -2.117562,-0.79847 -1.128642,-0.6516 -1.303978,-0.79719 -1.736864,-1.44274 -0.75152,-1.12067 -1.033427,-2.16194 -0.947298,-3.49635 l 0.06981,-1.08616 3.132837,-5.5855 c 0.100605,-0.17665 0.148818,-0.26666 0.241892,-0.43385 1.770326,-3.1059 2.673937,-4.60462 3.019167,-4.98228 1.49722,-1.6474 3.62905,-2.216054 5.92585,-1.58112 0.4528,0.125304 0.94474,0.17407 1.09302,0.108604 0.43737,-0.193242 0.71727,-0.819455 0.5758,-1.288457 -0.16277,-0.539684 -0.68215,-0.834515 -1.88961,-1.073627 -1.89764,-0.374897 -3.77226,-0.07101 -5.38232,0.835386 -0.0125,-1.859975 -0.68697,-3.648155 -1.968389,-5.113304 -0.810539,-0.926658 -1.325758,-1.229151 -1.874822,-1.099798 -0.476945,0.111942 -0.87934,0.667534 -0.827915,1.142904 0.01742,0.161123 0.305775,0.562681 0.640622,0.8923 1.698352,1.671608 2.271677,3.802177 1.593678,5.922486 -0.157183,0.491036 -1.011188,2.039856 -2.847939,5.178946 -0.09237,0.15692 -0.141538,0.23934 -0.241833,0.404 l -3.239778,5.45399 -0.907062,0.60465 c -1.112532,0.74182 -2.155535,1.0181 -3.501784,0.92763 -0.775525,-0.0522 -0.989229,-0.13126 -2.117872,-0.78285 -1.1095,-0.64057 -1.313084,-0.80708 -1.750361,-1.43458 -0.56385,-0.80871 -1.00158,-2.07364 -1.014469,-2.93076 -0.021,-1.40101 -0.434114,-1.91166 -1.34823,-1.6667 -0.491303,0.1317 -0.765333,0.53157 -0.848931,1.23909 -0.03305,0.27957 -0.03783,0.2768 -0.290249,-0.16761 -0.415008,-0.73067 -0.727849,-2.32617 -0.639632,-3.26293 0.116835,-1.2399 0.83448,-2.62759 1.761997,-3.406646 1.064032,-0.893764 1.167261,-1.051704 1.059712,-1.620868 -0.196233,-1.038421 -1.264262,-1.155864 -2.230017,-0.245114 l -0.419913,0.39608 -0.122192,-0.405162 c -0.06731,-0.222821 -0.08414,-0.825791 -0.03724,-1.339744 0.0765,-0.839743 0.158485,-1.061837 0.809752,-2.18987 0.636719,-1.102805 0.809155,-1.314265 1.419381,-1.739525 0.381974,-0.266238 1.107066,-0.621122 1.611138,-0.788748 1.076228,-0.357808 1.40321,-0.760309 1.208243,-1.487704 -0.19757,-0.737502 -0.623437,-0.875043 -1.752306,-0.566176 -0.540853,0.147934 -1.106684,0.341433 -1.257257,0.429853 -0.336183,0.197534 -0.362677,0.04177 -0.194633,-1.148561 0.160645,-1.138177 1.092041,-2.737954 2.031636,-3.489146 0.0895,-0.07185 0.184608,-0.139604 0.282217,-0.205217 0.14198,-0.06337 0.287015,-0.129784 0.489489,-0.2283 1.266015,-0.615608 2.460725,-0.821722 3.638393,-0.627113 0.735378,0.121418 1.113582,0.119412 1.379557,-0.07065 0.209265,-0.117431 0.344406,-0.30575 0.398694,-0.550388 0.159917,-0.39009 0.08044,-0.747062 -0.242178,-1.091575 -0.03032,-0.03174 -0.08927,-0.06695 -0.161874,-0.102156 -0.295894,-0.209658 -0.764235,-0.333484 -1.469671,-0.405415 -0.466396,-0.04762 -0.864649,-0.139753 -0.941779,-0.213063 0.0083,-0.03935 0.01563,-0.07555 0.03174,-0.132022 0.05489,-0.192428 0.393705,-0.804552 0.753124,-1.360094 0.519611,-0.802961 0.808749,-1.116535 1.410502,-1.529505 0.923245,-0.633575 2.402105,-1.050007 3.424618,-0.964427 0.418207,0.03496 0.901095,0.03721 1.07315,0.005 0.184321,-0.0347 0.338033,-0.157004 0.461348,-0.351081 0.09213,-0.116691 0.154916,-0.274268 0.199907,-0.479596 0.05848,-0.214146 0.100606,-0.462161 0.120404,-0.751174 0.0364,-0.531375 0.146151,-1.035101 0.313885,-1.506283 0.115045,-0.235194 0.271573,-0.514453 0.503069,-0.915407 0.192831,-0.333979 0.341805,-0.583094 0.473617,-0.786695 1.440898,-1.710269 3.866335,-2.493318 6.196173,-1.644893 1.73464,0.631706 2.85185,1.929287 3.44696,4.003585 0.0379,0.13249 0.0753,0.246478 0.11253,0.360436 0.008,0.02669 0.0165,0.05208 0.0243,0.07741 0.008,0.0272 0.0184,0.05278 0.0277,0.07889 0.0982,0.294256 0.19881,0.520249 0.31354,0.678476 0.25888,0.390668 0.56286,0.468299 1.01415,0.332067 0.0546,-0.01609 0.10527,-0.03477 0.15345,-0.05474 0.009,-0.0026 0.0182,-0.0071 0.0271,-0.01215 0.44921,-0.195934 0.61837,-0.557068 0.55123,-1.230101 -0.0163,-0.387174 -0.10872,-0.852961 -0.28262,-1.393607 -0.068,-0.211343 -0.16937,-0.454415 -0.28354,-0.704533 -0.0182,-0.04358 -0.0389,-0.08515 -0.0572,-0.128859 -0.006,-0.0137 -0.0125,-0.02433 -0.0169,-0.03834 -3.8e-4,-9.11e-4 -8.4e-4,-0.0012 -4.9e-4,-0.0014 -0.14331,-0.322688 -0.30643,-0.628385 -0.49347,-0.922602 -0.0228,-0.03637 -0.0442,-0.07337 -0.0682,-0.109126 -0.31063,-0.51123 -0.6211,-0.931424 -0.82204,-1.070856 -0.11386,-0.151345 -0.17449,-0.256979 -0.18793,-0.337416 0.0265,-0.101226 0.10968,-0.216889 0.24068,-0.345768 0.49252,-0.395537 1.32492,-0.773531 2.04942,-0.919623 1.10417,-0.221769 2.02271,-0.0228 3.08349,0.667784 1.01472,0.66062 1.57062,1.447151 1.82622,2.584375 1.9e-4,5.69e-4 3.1e-4,8.77e-4 4e-5,0.0014 0.0586,0.324007 0.0849,0.667525 0.0751,1.033729 l -0.0125,0.429624 c -0.33497,1.098352 -1.63938,3.335586 -5.61773,10.323934 l -5.62344,9.878503 0.12216,0.349215 c -0.0364,0.246857 0.0574,0.350445 0.19183,0.459367 0.10275,0.168926 0.2311,0.258563 0.44662,0.331398 0.29831,0.100839 0.44157,0.242918 0.75606,-0.04928 l 0.32487,-0.06158 5.74318,-9.809368 c 3.95233,-6.750399 5.27528,-9.05997 6.06588,-9.953696 l 0.4033,-0.246596 c 1.45643,-0.893633 2.87715,-0.912976 4.3662,-0.05909 z M 99.642478,74.89694 c -0.717645,-0.41432 -1.76362,0.333843 -1.520725,1.087887 0.01874,0.05641 0.0648,0.153025 0.121417,0.262459 0.08652,0.218446 0.2246,0.4676 0.418099,0.762577 0.272383,0.415222 0.490742,0.852088 0.65449,1.293156 0.227785,0.674058 0.353165,1.402393 0.321778,2.007489 l -0.03437,0.659824 -0.672176,0.30404 c -1.087876,0.491616 -2.229216,1.364554 -3.06107,2.341837 -0.889197,1.044626 -1.173813,1.698184 -0.949595,2.179152 0.03628,0.07781 0.08151,0.147351 0.132456,0.211676 0.242859,0.374813 0.695054,0.563169 1.114943,0.427048 0.04953,-0.01659 0.102871,-0.04213 0.157136,-0.07352 0.269281,-0.09261 0.42884,-0.242428 0.637924,-0.588791 0.100728,-0.117074 0.20738,-0.246893 0.324894,-0.398683 1.985237,-2.564493 5.116811,-3.367723 8.034851,-2.060981 0.70543,0.315848 1.03175,0.388764 1.37656,0.307816 0.5113,-0.120164 0.80048,-0.519229 0.76457,-1.016355 0.062,-0.673017 -0.66605,-1.199151 -2.30472,-1.720088 -0.5332,-0.16951 -1.50292,-0.340887 -2.15529,-0.380995 l -1.06311,-0.06553 c -0.0732,-0.02406 -0.11362,-0.05199 -0.10765,-0.08232 0.0331,-0.159486 0.0152,-0.45939 -0.0305,-0.812181 -0.0279,-0.42768 -0.12994,-0.919522 -0.28369,-1.424108 -0.0953,-0.361766 -0.20126,-0.699956 -0.30943,-0.948662 -0.35133,-0.807634 -0.7065,-1.4091 -1.05837,-1.806327 -0.172427,-0.209043 -0.344122,-0.372792 -0.507214,-0.466973 z m 22.019862,12.714885 c -0.51994,-0.270283 -1.41137,-0.33931 -2.65093,-0.198261 -0.91409,0.103946 -2.68525,0.711093 -3.07006,1.05242 -0.0721,0.06408 -0.33333,-0.244876 -0.6545,-0.774881 -0.62553,-1.032836 -1.86273,-2.287526 -2.77445,-2.813891 -0.52422,-0.302696 -0.72998,-0.348583 -1.10678,-0.247633 -0.48687,0.130381 -0.77278,0.487245 -0.77475,0.924475 -0.096,0.419317 0.19243,0.792161 1.05869,1.431637 1.27988,0.944786 2.19833,2.347245 2.57236,3.823384 0.29222,1.302391 0.17407,2.714313 -0.39397,4.102511 -0.0716,0.174702 -0.12947,0.329034 -0.17983,0.47309 -0.24903,0.440249 -0.29267,0.661149 -0.19714,1.018217 0.14243,0.53164 0.62057,0.868264 1.16558,0.820409 0.52871,-0.04618 0.95221,-0.619689 1.41223,-1.912115 0.38749,-1.088544 0.57432,-2.350538 0.52187,-3.458464 -0.005,-0.108242 -0.009,-0.213596 -0.021,-0.31518 -0.002,-0.01515 -0.001,-0.03305 -0.002,-0.04822 l -0.0728,-0.734101 0.55412,-0.359456 c 0.84519,-0.548299 2.20155,-0.898183 3.23944,-0.835648 0.51393,0.03091 1.08316,0.02434 1.26485,-0.01492 0.47423,-0.102155 0.70347,-0.621634 0.64486,-1.105025 -0.001,-0.367272 -0.18197,-0.645264 -0.53562,-0.82918 z m -33.520465,4.585423 c -0.214897,-0.124914 -0.441072,-0.11039 -0.787423,-0.01778 -0.992201,0.26582 -1.001736,0.719279 -0.05478,2.589566 0.337663,0.666996 0.504751,1.262399 0.561224,1.998769 l 0.08031,1.048696 -0.446657,0.204085 c -0.683287,0.311993 -1.930983,1.249412 -2.488294,1.86958 -0.837725,0.932216 -1.13844,1.564306 -0.99646,2.094226 0.154594,0.57685 0.578577,0.83336 1.187907,0.71816 0.387632,-0.0733 0.576918,-0.2322 1.097554,-0.92063 1.277103,-1.6889 3.30936,-2.532949 5.365902,-2.228518 1.143214,0.169225 1.437091,0.09281 1.753308,-0.454799 0.161409,-0.27957 0.173653,-0.511555 0.04428,-0.835959 -0.238778,-0.5984 -0.871714,-0.855103 -2.279936,-0.924965 -0.591406,-0.02936 -1.075309,-0.07077 -1.075274,-0.09249 0.0023,-1.315076 -0.498081,-2.995754 -1.248772,-4.185345 -0.296812,-0.470322 -0.498689,-0.736953 -0.713001,-0.862786 z m 24.359095,14.097412 c -0.21561,-0.12365 -0.548,-0.16429 -1.10369,-0.18611 -1.4056,-0.0554 -3.11186,0.3507 -4.24904,1.01123 -0.0181,0.009 -0.29659,-0.38751 -0.6177,-0.88504 -0.76455,-1.18463 -1.30355,-1.60415 -1.94115,-1.51173 -0.34563,0.05 -0.54029,0.17651 -0.70171,0.45601 -0.31624,0.54774 -0.23537,0.84041 0.48279,1.74583 1.29189,1.62888 1.57709,3.81086 0.753,5.76129 -0.33594,0.79505 -0.37891,1.03848 -0.24852,1.41084 0.20499,0.58514 0.63899,0.82425 1.21588,0.66969 0.52994,-0.14199 0.92699,-0.71849 1.31542,-1.91005 0.25836,-0.79279 0.4466,-2.34183 0.37522,-3.08959 l -0.0468,-0.48905 0.94845,-0.4546 c 0.66592,-0.31933 1.26515,-0.47234 2.01162,-0.5134 2.09312,-0.11503 2.48108,-0.35002 2.21523,-1.34222 -0.0927,-0.34636 -0.19294,-0.55032 -0.40906,-0.6731 z" /><path
       id="path11417"
       style="fill:none;fill-opacity:1;stroke:#ffffff;stroke-width:2.51809;stroke-linecap:round;stroke-linejoin:round;stroke-dasharray:none;stroke-dashoffset:2.26772;stroke-opacity:1;paint-order:fill markers stroke"
       d="M 121.36257,60.437916 C 103.23971,49.974691 80.06611,56.184035 69.602861,74.306904 69.027465,75.315453 68.499346,76.350265 68.01926,77.407517 62.063396,97.114849 64.212547,105.10722 50.792917,128.3507 l 14.730206,-9.72569 -9.064833,56.74907 41.089803,-36.43643 -2.424864,16.83019 C 107.96498,130.3677 124.53405,130.3699 135.23154,112.19761 145.69478,94.074758 139.48542,70.901163 121.36257,60.437916 Z" /></g></svg>
