<svg width="110" height="110" viewBox="0 0 110 110" fill="none" xmlns="http://www.w3.org/2000/svg">
<path d="M55.2665 108.627L55.2665 108.627C45.9122 108.421 32.4489 105.03 21.3117 95.8198C10.1499 86.589 1.37286 71.5513 1.37286 48.1654C1.37286 33.011 7.96175 20.4471 20.3924 11.8953L20.3924 11.8952C29.9737 5.30452 42.9979 1.37286 55.2803 1.37286C61.0926 1.37286 76.0378 2.26663 88.993 10.7037C101.875 19.091 108.798 32.5206 109.052 49.4744M55.2665 108.627L108.425 49.4838M55.2665 108.627H55.2803H95.3326C98.2549 108.627 100.788 106.966 101.933 104.27C103.077 101.577 102.525 98.5764 100.511 96.4755M55.2665 108.627L89.348 85.722L89.7914 86.1851C89.9725 86.0728 90.1531 85.9592 90.3332 85.8442M109.052 49.4744L108.425 49.4838M109.052 49.4744C109.052 49.4743 109.052 49.4742 109.052 49.4741L108.425 49.4838M109.052 49.4744C109.34 68.1423 100.738 79.2016 90.3332 85.8442M108.425 49.4838C108.711 67.9672 100.186 78.8475 89.891 85.3823L90.3332 85.8442M90.3332 85.8442L100.511 96.4755M100.511 96.4755L100.058 96.9095L100.511 96.4758L100.511 96.4755ZM85.0871 81.3013C100.426 72.6344 102.75 60.3223 102.595 49.6001M85.0871 81.3013L85.54 80.8674L85.2011 80.5137M85.0871 81.3013L63.3566 58.6161M85.0871 81.3013L84.7786 80.7553C84.9206 80.675 85.0614 80.5945 85.2011 80.5137M102.595 49.6001L60.2772 95.4553M102.595 49.6001C102.499 42.6569 99.739 8.22131 55.9605 7.85839L102.595 49.6001ZM85.2011 80.5137C92.5023 76.2891 96.705 71.234 99.0798 65.9638C101.506 60.5805 102.045 54.9259 101.968 49.6092L101.968 49.6088C101.921 46.1674 101.206 35.872 95.0356 26.454C88.8953 17.0814 77.2914 8.48263 55.261 8.48263H54.2467L54.2625 8.45084C37.5647 8.68088 26.1842 14.5702 18.9454 22.333C11.5459 30.268 8.43742 40.1993 8.43742 48.1654C8.43742 74.0671 19.7155 87.3597 31.1702 94.2168C42.6491 101.088 54.3776 101.536 55.345 101.556H95.3326C95.3685 101.556 95.3867 101.551 95.393 101.549C95.3963 101.547 95.3986 101.546 95.4002 101.545C95.4015 101.545 95.4023 101.544 95.403 101.544C95.4082 101.539 95.4194 101.526 95.4281 101.505L95.4334 101.491L95.4394 101.478C95.4489 101.457 95.4524 101.444 95.4537 101.437C95.4499 101.43 95.4388 101.413 95.4118 101.386L95.4025 101.376L95.4026 101.376L83.8993 89.3693C74.9768 93.4943 65.8224 95.1181 60.3865 96.0728M85.2011 80.5137L63.8119 58.1847L63.3566 58.6161M60.3865 96.0728C60.3862 96.0729 60.3859 96.0729 60.3857 96.073L60.2772 95.4553M60.3865 96.0728C60.3871 96.0727 60.3878 96.0726 60.3884 96.0725L60.2772 95.4553M60.3865 96.0728C58.263 96.4549 56.1015 95.8584 54.4525 94.4827L54.4489 94.4796C52.7991 93.0821 51.8449 91.0465 51.8449 88.8824V62.998C51.8449 60.145 53.5489 57.6062 56.2093 56.5409C58.8652 55.4773 61.85 56.1146 63.811 58.1838L63.8095 58.1822L63.3566 58.6161M60.2772 95.4553C58.3404 95.8043 56.3649 95.2614 54.8542 94.0011C53.3436 92.7214 52.472 90.8601 52.472 88.8824V62.998C52.472 60.3999 54.0214 58.0926 56.4424 57.1231C58.8633 56.1537 61.5748 56.7353 63.3566 58.6161M58.9288 63.2222V63.0822M58.9288 63.2222L58.7395 63.0245L58.9288 63.0822M58.9288 63.2222V88.863C58.9288 88.9156 58.942 88.9491 58.9562 88.9737C58.9729 89.0025 58.9954 89.0257 59.0133 89.0407L59.02 89.0462L59.02 89.0463C59.0334 89.0579 59.0531 89.0702 59.076 89.0775C59.0952 89.0837 59.1255 89.0894 59.1737 89.0804L59.1801 89.0792C66.9372 87.7056 73.3239 85.8829 78.5607 83.7319L58.9288 63.2222ZM58.9288 63.0822H59.4711V62.8818L58.9288 63.0822ZM58.844 62.4551C58.844 62.4551 58.7084 62.4551 58.6309 62.4939L58.844 62.4551Z" fill="white" stroke="white" stroke-width="1.25427"/>
</svg>
