<?xml version="1.0" encoding="UTF-8" standalone="no"?>
<!-- Created with Inkscape (http://www.inkscape.org/) -->

<svg
   width="98.494087mm"
   height="102.38033mm"
   viewBox="0 0 98.494087 102.38033"
   version="1.1"
   id="svg5"
   xml:space="preserve"
   xmlns="http://www.w3.org/2000/svg"
   xmlns:svg="http://www.w3.org/2000/svg"><defs
     id="defs2" /><g
     id="layer1"
     transform="translate(-54.339847,-33.484461)"><path
       style="fill:#000000;stroke-width:0.131588"
       d="m 101.88955,128.10925 c -6.887165,-0.58757 -11.735146,-1.89692 -17.237115,-4.65543 -4.375881,-2.19393 -7.9503,-4.779 -11.457578,-8.28628 -5.724411,-5.72441 -9.700928,-12.69921 -11.633243,-20.404663 -1.00845,-4.02138 -1.300139,-6.471707 -1.300139,-10.921793 0,-4.450078 0.291689,-6.900405 1.300139,-10.921785 1.932315,-7.705454 5.908832,-14.680249 11.633243,-20.404661 5.724411,-5.724412 12.699206,-9.700928 20.404657,-11.633244 4.021379,-1.008449 6.471706,-1.300138 10.921786,-1.300138 4.45009,0 6.90041,0.291689 10.92179,1.300138 7.70545,1.932316 14.68025,5.908832 20.40466,11.633244 5.72441,5.724412 9.70093,12.699207 11.63324,20.404661 1.00846,4.02138 1.30014,6.471707 1.30014,10.921785 0,4.450086 -0.29168,6.900413 -1.30014,10.921793 -1.93231,7.705453 -5.90883,14.680253 -11.63324,20.404663 -7.11563,7.11563 -15.96221,11.42336 -26.06293,12.69099 -1.56751,0.19672 -6.64007,0.3578 -7.89527,0.25072 z m 8.08038,-7.15804 c 6.84808,-1.04002 13.40482,-3.97994 18.59997,-8.33985 l 0.95494,-0.80142 -4.9191,-4.93776 c -5.50526,-5.52614 -5.44242,-5.44293 -5.31437,-7.038235 0.14879,-1.85371 1.49552,-3.08104 3.38905,-3.088586 1.33788,-0.005 1.50691,0.128496 6.68524,5.293171 l 4.77723,4.76463 0.32636,-0.39476 c 1.59329,-1.92728 4.1246,-6.56644 5.24137,-9.605916 0.7991,-2.174888 1.56145,-5.156563 1.93814,-7.580348 0.42738,-2.749983 0.42738,-8.012113 0,-10.762096 -0.62691,-4.033897 -1.79968,-7.737889 -3.58405,-11.319624 -1.97388,-3.962155 -3.78442,-6.455066 -7.08605,-9.75669 -3.30162,-3.301623 -5.79453,-5.112166 -9.75668,-7.086052 -3.58175,-1.784369 -7.28573,-2.957135 -11.31963,-3.584046 -2.74998,-0.427375 -8.01211,-0.427375 -10.762096,0 -2.423791,0.376684 -5.405467,1.139036 -7.580348,1.938139 -3.038221,1.116313 -7.668938,3.642698 -9.605909,5.240707 l -0.394764,0.325682 5.345946,5.370041 c 5.916245,5.942918 5.861175,5.872287 5.748156,7.372217 -0.09694,1.286439 -0.779008,2.320851 -1.895672,2.874894 -0.692815,0.343759 -2.292889,0.34809 -2.948011,0.008 -0.253306,-0.131504 -2.889449,-2.662013 -5.858097,-5.623346 l -5.397542,-5.384244 -0.802192,0.955867 c -3.539022,4.216986 -6.172825,9.371233 -7.555927,14.786643 -0.884355,3.462613 -1.096389,5.253992 -1.096389,9.262883 0,2.957958 0.04467,3.774461 0.294342,5.381045 0.62691,4.033897 1.799677,7.737889 3.584046,11.319624 1.973885,3.96216 3.784428,6.45507 7.086052,9.75669 3.301623,3.30162 5.794534,5.11217 9.756688,7.08606 4.269385,2.12693 8.944747,3.44021 13.805737,3.8779 1.59302,0.14344 6.57301,-0.0423 8.34356,-0.3112 z m -16.699388,-4.91483 c -2.424923,-1.17502 -2.879247,-4.27774 -1.025593,-7.00412 0.292287,-0.4299 0.989918,-1.28495 1.550291,-1.90013 1.383889,-1.51921 2.681415,-3.20616 3.577745,-4.65154 0.724301,-1.16798 2.279564,-4.263293 2.279564,-4.536834 0,-0.219388 0.668831,-0.68071 0.986911,-0.68071 0.50371,0 0.98691,0.486591 0.98691,0.993823 0,0.984755 -1.894421,4.625731 -3.780854,7.266591 -0.451066,0.63147 -1.504489,1.91791 -2.340935,2.85876 -1.769211,1.99003 -2.299834,2.9072 -2.299834,3.97518 0,1.53516 1.046233,2.31257 2.17412,1.61549 0.583736,-0.36076 0.976291,-0.90727 4.677263,-6.5115 2.84093,-4.30188 4.85994,-7.738956 4.85994,-8.273328 0,-0.261862 -1.17371,-1.316409 -3.02651,-2.719251 -3.059744,-2.316676 -4.430731,-3.860794 -5.237569,-5.898979 -0.300097,-0.758091 -0.347855,-1.081061 -0.362563,-2.452141 l -0.01693,-1.579053 -1.040408,-1.060073 c -1.200281,-1.222963 -1.835389,-2.31411 -2.370052,-4.071856 -0.329307,-1.082604 -0.361126,-1.37635 -0.370614,-3.421277 -0.0064,-1.411819 0.05661,-2.576774 0.171268,-3.158107 0.454352,-2.303852 1.834934,-6.317885 3.783421,-11.000297 l 0.871899,-2.095251 -0.339498,-0.492175 c -0.765509,-1.109793 -1.052655,-1.98238 -1.113293,-3.383113 -0.04801,-1.109793 -0.01138,-1.456009 0.230498,-2.175192 1.047455,-3.114781 4.224851,-4.924615 7.372911,-4.199586 2.09399,0.482269 4.04846,2.360681 4.59486,4.416057 l 0.145,0.545437 5.09767,0.0603 c 5.62334,0.06651 5.86016,0.09734 7.08752,0.92256 0.34884,0.23454 0.80224,0.699464 1.00757,1.033166 0.94129,1.529824 0.40855,3.377253 -1.29895,4.504511 -1.11367,0.735227 -1.68193,0.786406 -7.68571,0.692187 -3.00349,-0.04714 -5.72736,-0.11867 -6.05304,-0.158965 l -0.59215,-0.07326 v 2.957974 2.95797 l 0.57549,0.0789 c 0.3783,0.05185 0.78408,0.0057 1.18429,-0.135201 0.81802,-0.287673 2.42172,-0.377392 3.3396,-0.186844 3.16266,0.656572 5.36299,3.804075 4.87287,6.970517 -0.29577,1.910856 -1.56279,3.735144 -3.20036,4.607961 l -0.78407,0.417902 0.9975,0.667163 c 1.3116,0.877255 3.16412,2.652619 4.15116,3.978252 2.27231,3.05183 2.63562,5.608775 1.01373,7.134736 -0.80216,0.754706 -1.23179,0.903094 -2.61008,0.901472 -1.02539,-7.11e-4 -1.37287,-0.05676 -1.93316,-0.308944 -1.32767,-0.597606 -2.68743,-2.441238 -3.19065,-4.326064 l -0.14878,-0.557251 -0.64134,0.424389 -0.64135,0.424389 0.25146,0.330246 c 1.6455,2.16109 3.22304,4.599056 4.42846,6.843842 2.57869,4.802207 4.77028,11.781667 4.77028,15.191697 0,2.01466 -0.53378,3.19068 -1.7701,3.89981 -0.55923,0.32078 -0.80992,0.38102 -1.58539,0.38097 -1.14247,-6e-5 -2.03424,-0.37996 -2.88204,-1.22775 -1.06069,-1.06069 -1.44524,-2.09778 -1.91027,-5.15174 -0.29621,-1.94528 -0.71033,-3.46947 -1.36243,-5.01452 -0.42707,-1.01188 -1.41026,-2.77788 -1.92408,-3.45598 l -0.23646,-0.31206 -0.69299,1.29897 c -1.21315,2.27395 -7.468517,11.72123 -8.443912,12.75257 -1.226312,1.29664 -2.811631,1.70727 -4.128211,1.06931 z m 22.392538,-2.39098 c 0.50281,-0.56195 0.62675,-1.60604 0.37258,-3.13874 -0.81075,-4.88882 -2.90351,-10.46293 -5.61768,-14.962734 -0.98043,-1.62546 -2.65307,-4.028371 -3.36113,-4.828623 l -0.49594,-0.560494 -0.78953,0.228129 c -0.58183,0.168117 -1.28578,0.229019 -2.67604,0.231522 l -1.88652,0.0036 -0.31757,-0.369206 c -0.3895,-0.452816 -0.40356,-0.867682 -0.0449,-1.323691 0.26664,-0.338986 0.30678,-0.346717 1.80008,-0.346717 2.48554,0 5.09067,-0.725724 5.97858,-1.665473 0.74654,-0.790153 0.8074,-1.476539 0.18601,-2.097942 -0.77735,-0.777338 -1.56587,-0.54388 -3.36865,0.99733 -0.64413,0.550679 -1.53705,1.158632 -2.1054,1.433489 -0.96628,0.467296 -1.01992,0.477274 -2.56597,0.477274 -0.868479,0 -1.779701,-0.05092 -2.024949,-0.113154 l -0.445889,-0.113147 0.06429,1.001945 c 0.132678,2.067409 1.31764,3.659229 4.549098,6.111021 3.11411,2.362762 4.47456,3.743906 5.98372,6.074731 1.81329,2.80053 2.7192,5.25202 3.25565,8.81002 0.4369,2.89776 0.87187,3.83294 2.03072,4.36596 0.63452,0.29185 1.08444,0.22649 1.47938,-0.2149 z m 0.57102,-22.107193 c 0.90576,-0.468384 0.78679,-1.749268 -0.32992,-3.552105 -1.80678,-2.916884 -4.88504,-5.326695 -8.2189,-6.43417 -1.52279,-0.505851 -3.51136,-0.866885 -4.78191,-0.868173 -0.63363,-6.47e-4 -0.81723,-0.0554 -1.0856,-0.323766 -0.3945,-0.394504 -0.41273,-0.882411 -0.0546,-1.461845 0.14761,-0.238826 0.41538,-1.104424 0.59506,-1.923559 0.17968,-0.819127 0.35452,-1.616235 0.38855,-1.771351 0.0557,-0.253861 -0.0314,-0.303077 -0.87148,-0.492801 -1.96345,-0.443407 -3.622088,-1.731829 -4.507295,-3.501247 -0.784007,-1.567133 -0.587669,-2.632291 0.485205,-2.632291 0.482033,0 0.912958,0.368367 1.077555,0.921116 0.424367,1.425118 1.570725,2.607939 2.938635,3.032108 1.17906,0.365614 3.62311,0.588295 4.33953,0.395385 0.54477,-0.146695 0.97359,-0.565942 0.86589,-0.846566 -0.16043,-0.418088 -0.66947,-0.536064 -2.61929,-0.607036 -1.73469,-0.06316 -2.0531,-0.110501 -2.62832,-0.390933 -1.4718,-0.717524 -2.498499,-2.331206 -2.97864,-4.681536 -0.209489,-1.02544 -0.232411,-1.36021 -0.112899,-1.648735 0.289493,-0.698909 1.368979,-0.832859 1.757109,-0.218036 0.10207,0.16169 0.282,0.781167 0.39983,1.376616 0.26274,1.327688 0.57828,2.086576 1.12778,2.712438 0.41047,0.467496 1.3492,0.887617 1.54524,0.691564 0.13595,-0.135942 0.21338,-3.589075 0.10615,-4.733392 l -0.0901,-0.961789 -0.67591,0.133641 c -0.82698,0.163517 -2.37906,-0.03504 -3.273799,-0.418824 l -0.612775,-0.262838 -0.808239,1.971323 c -1.940294,4.73244 -3.23016,8.596058 -3.562553,10.671155 -0.223258,1.393789 -0.09884,4.125508 0.235383,5.1678 0.658756,2.054423 2.192953,4.01343 3.143108,4.01343 0.162946,0 0.450881,0.143288 0.639844,0.318418 0.546021,0.506036 1.876931,0.692872 2.961611,0.415755 0.97184,-0.248278 1.438,-0.52758 2.63682,-1.579809 1.66216,-1.458915 3.0227,-1.974532 4.39801,-1.666746 1.65377,0.370095 2.61997,1.74264 3.16744,4.499537 0.50208,2.52834 1.25319,4.049856 2.26214,4.582457 0.59727,0.315274 1.60807,0.350593 2.14139,0.0748 z m -4.97104,-12.545176 c 0.787,-0.344527 1.74816,-1.2985 2.11607,-2.10026 0.39566,-0.862206 0.39774,-2.474771 0.004,-3.331636 -0.65485,-1.42622 -1.95706,-2.344214 -3.48122,-2.454075 l -0.8695,-0.06266 0.0577,0.970353 c 0.0524,0.88111 0.0257,1.018758 -0.29093,1.496702 -0.61877,0.934074 -1.68455,1.513259 -2.7846,1.513259 -0.56624,0 -0.5725,0.005 -0.5725,0.459146 0,0.586005 0.40842,1.6642 0.84943,2.242382 1.13829,1.492384 3.23524,2.026741 4.9712,1.266801 z m -7.98239,-17.476207 c 2.69325,-0.903358 3.74434,-3.995874 2.14715,-6.317302 -1.40687,-2.044815 -4.45549,-2.360172 -6.221736,-0.643587 -1.679789,1.632569 -1.762895,4.098395 -0.195434,5.798886 1.13346,1.229665 2.75374,1.670591 4.27002,1.162003 z m 15.11697,-0.05996 c 0.64453,-0.178942 1.38785,-0.894742 1.38785,-1.33647 0,-0.436536 -0.46637,-1.002338 -1.04191,-1.264037 -0.40346,-0.183462 -1.19238,-0.220268 -5.47719,-0.25554 l -5.00584,-0.04121 -0.23709,0.791494 c -0.1304,0.435321 -0.40919,1.06287 -0.61954,1.394551 -0.21035,0.331681 -0.38244,0.627205 -0.38244,0.656716 0,0.210601 10.63046,0.261522 11.37616,0.05449 z"
       id="path7282" /></g></svg>
