<?xml version="1.0" encoding="UTF-8" standalone="no"?>
<!-- Created with Inkscape (http://www.inkscape.org/) -->

<svg
   width="98.475578mm"
   height="102.38519mm"
   viewBox="0 0 98.475578 102.38519"
   version="1.1"
   id="svg5"
   xml:space="preserve"
   inkscape:version="1.2.1 (9c6d41e410, 2022-07-14)"
   sodipodi:docname="manipulate.svg"
   xmlns:inkscape="http://www.inkscape.org/namespaces/inkscape"
   xmlns:sodipodi="http://sodipodi.sourceforge.net/DTD/sodipodi-0.dtd"
   xmlns="http://www.w3.org/2000/svg"
   xmlns:svg="http://www.w3.org/2000/svg"><sodipodi:namedview
     id="namedview7"
     pagecolor="#ffffff"
     bordercolor="#000000"
     borderopacity="0.25"
     inkscape:showpageshadow="2"
     inkscape:pageopacity="0.0"
     inkscape:pagecheckerboard="0"
     inkscape:deskcolor="#d1d1d1"
     inkscape:document-units="mm"
     showgrid="false"
     inkscape:zoom="1.0544998"
     inkscape:cx="80.132782"
     inkscape:cy="313.89291"
     inkscape:window-width="1920"
     inkscape:window-height="1017"
     inkscape:window-x="1912"
     inkscape:window-y="-8"
     inkscape:window-maximized="1"
     inkscape:current-layer="layer1" /><defs
     id="defs2" /><g
     inkscape:label="Ebene 1"
     inkscape:groupmode="layer"
     id="layer1"
     transform="translate(-51.527085,-8.6723301)"><path
       style="fill:#506c00;fill-opacity:1;stroke-width:0.225359"
       d="m 53.577901,110.32715 c -1.511924,-1.32749 -1.439108,-0.26036 -1.439108,-21.089893 V 70.333661 l 0.69005,-0.952587 c 1.312847,-1.812334 -0.0048,-1.70667 21.282469,-1.70667 h 18.930167 l 0.921742,0.528301 c 0.506953,0.290564 1.115419,0.848329 1.352155,1.239476 0.414752,0.685287 0.430415,1.412544 0.430415,19.979384 v 19.268205 l -0.491494,0.78876 c -1.051803,1.68797 0.442221,1.57752 -21.338935,1.57752 H 54.408068 Z m 37.393823,-3.36131 c 0.270733,-0.1425 0.566747,-0.37068 0.657816,-0.50705 0.09106,-0.13638 0.167122,-7.980604 0.169013,-17.431604 l 0.0034,-17.183637 h -17.66653 c -15.901721,0 -17.680249,0.03562 -17.803373,0.356471 -0.255038,0.664616 -0.155209,33.66798 0.103299,34.15102 0.132051,0.24673 0.461638,0.53787 0.732418,0.64697 0.778605,0.31371 33.205474,0.28284 33.803957,-0.0322 z M 67.755014,98.649944 C 66.310137,98.206538 66.33642,98.401731 66.33642,88.11461 v -9.319598 l 0.691682,-0.691682 0.691681,-0.69168 5.223997,0.133443 c 3.149494,0.08046 5.561828,0.243474 6.07472,0.410518 3.657706,1.191277 4.587944,6.132747 1.641504,8.719756 -0.441119,0.387306 -0.802034,0.74284 -0.802034,0.790073 0,0.04723 0.499906,0.396637 1.110899,0.776452 1.509301,0.938232 2.277747,2.15154 2.430648,3.837773 0.218332,2.407797 -0.938588,4.697168 -2.872178,5.683612 -0.460977,0.235174 -1.687519,0.527288 -2.725647,0.649146 -2.899676,0.340366 -9.224303,0.489891 -10.046678,0.237521 z m 8.903515,-3.350775 c 1.837936,-0.355315 2.861523,-2.057389 2.321402,-3.860148 -0.480345,-1.603248 -1.324543,-1.885703 -6.277113,-2.100222 l -2.309933,-0.100052 v 2.983518 c 0,1.640934 0.06761,3.051127 0.15024,3.133757 0.212442,0.212444 4.950252,0.168395 6.115404,-0.05685 z M 76.544201,85.78196 c 1.60285,-0.40177 2.305474,-2.659639 1.220259,-3.921276 -0.45768,-0.532085 -0.754786,-0.623835 -2.628857,-0.811812 -1.162074,-0.11656 -2.628519,-0.181856 -3.258771,-0.145102 l -1.145908,0.06683 -0.06353,2.652408 -0.06353,2.652407 2.542478,-0.139522 c 1.398366,-0.07674 2.9274,-0.236005 3.397858,-0.353929 z m 40.723389,18.94826 c -13.43936,-3.51343 -18.365047,-4.889228 -19.004244,-5.308068 -1.094722,-0.717318 -1.59878,-1.862047 -1.425073,-3.236369 0.170179,-1.346461 9.513747,-35.668867 9.925627,-36.460535 0.62849,-1.207979 1.3982,-1.706096 2.78823,-1.80437 1.12116,-0.07926 3.66986,0.527392 19.20379,4.570985 9.85109,2.564308 18.28506,4.853177 18.74217,5.086377 1.00315,0.51177 1.67902,1.407556 1.8832,2.495997 0.12118,0.645888 -0.80054,4.357952 -4.61457,18.58452 -2.6213,9.777585 -4.98783,18.228513 -5.25898,18.779823 -0.27115,0.55134 -0.76767,1.20182 -1.10338,1.44553 -1.36862,0.99354 -1.68498,0.93138 -21.13677,-4.15389 z m 18.90564,-0.26594 c 0.41769,-1.11659 9.0918,-33.319026 8.99969,-33.411133 -0.24771,-0.247719 -33.94082,-8.909374 -34.43377,-8.852059 -0.47734,0.05551 -0.61458,0.272838 -0.96584,1.529531 -3.88696,13.906462 -8.63824,31.956285 -8.48836,32.246806 0.1264,0.245022 2.09647,0.847617 6.22458,1.903936 3.32179,0.85 10.80598,2.784459 16.63152,4.298809 5.82553,1.51433 10.87328,2.76185 11.2172,2.77225 0.45196,0.0137 0.6779,-0.12164 0.81498,-0.48814 z M 121.91031,93.56645 c -4.68031,-1.026879 -7.49697,-4.16288 -7.73587,-8.61289 -0.26497,-4.935789 2.11178,-9.598248 5.79746,-11.37289 3.64035,-1.752809 8.43386,-1.048924 11.38558,1.671884 1.54131,1.420729 2.178,2.646419 2.30588,4.43909 0.12368,1.733719 -0.24398,2.422773 -1.41293,2.648041 -1.0232,0.19718 -1.76378,-0.520907 -2.48574,-2.41028 -1.04121,-2.724789 -2.63485,-4.019493 -4.94756,-4.019493 -1.48145,0 -2.71482,0.589502 -3.87335,1.851307 -1.84485,2.009307 -2.67401,4.534143 -2.51608,7.661584 0.0679,1.344348 0.20201,1.850717 0.68247,2.576752 0.73519,1.110943 2.26547,1.879277 4.0686,2.042779 1.82738,0.165701 3.0295,-0.343059 4.42915,-1.874488 1.35359,-1.481053 1.923,-1.740184 2.91098,-1.324774 1.62811,0.684567 1.31806,2.686863 -0.73375,4.73868 -1.92843,1.928435 -4.81522,2.655991 -7.87484,1.984698 z M 86.344667,63.831073 C 86.008006,63.648351 85.48321,63.069296 85.178457,62.544279 84.873704,62.019265 81.659927,53.983835 78.036728,44.687769 70.896807,26.36883 70.774035,25.976562 71.707733,24.465811 c 0.256165,-0.414488 0.851062,-0.967315 1.321987,-1.228505 1.061449,-0.588714 33.46452,-13.4659658 34.76691,-13.8166649 0.51977,-0.139958 1.24321,-0.1889781 1.60764,-0.1089339 0.83497,0.1833889 1.91283,1.0802548 2.37699,1.9778478 0.50003,0.966959 13.05524,33.480823 13.47696,34.900901 0.25717,0.866026 0.28917,1.370703 0.12544,1.978745 -0.48079,1.785512 -0.44659,1.769034 -18.98831,9.14577 -18.365264,7.306534 -18.508525,7.35309 -20.050683,6.516102 z M 105.21087,53.367974 c 8.80028,-3.506869 16.02287,-6.392944 16.0502,-6.413501 0.0403,-0.03026 -4.91432,-12.88908 -11.79934,-30.623545 -0.95151,-2.450897 -1.0758,-2.655652 -1.54107,-2.538874 -0.57573,0.144497 -32.181099,12.741127 -32.322363,12.882392 -0.05058,0.05058 2.788617,7.550868 6.309336,16.667295 5.737668,14.856928 6.448032,16.566361 6.852024,16.488842 0.247896,-0.04757 7.650942,-2.955744 16.451213,-6.462609 z M 93.800622,49.201843 c -0.326162,-0.182227 -0.680066,-0.511854 -0.786467,-0.732504 -0.301912,-0.626136 -0.389028,-18.943215 -0.09482,-19.939771 0.458625,-1.553547 2.560527,-2.423654 4.025156,-1.666263 0.90111,0.465984 13.050339,13.294462 13.521229,14.277187 0.43177,0.901096 0.1991,1.722218 -0.6717,2.370477 -0.89048,0.662907 -1.60405,0.366449 -3.4678,-1.440736 -0.89369,-0.866559 -1.81718,-1.590048 -2.05219,-1.607751 -0.51875,-0.03908 -6.57734,2.264856 -7.091168,2.696588 -0.283471,0.238184 -0.388807,0.865745 -0.46802,2.788288 -0.08501,2.062289 -0.175487,2.554195 -0.536416,2.915123 -0.592444,0.592451 -1.653709,0.743915 -2.3778,0.339362 z m 8.182828,-11.626681 c 0.0398,-0.06956 -1.16989,-1.51783 -2.68825,-3.218378 l -2.760653,-3.091902 v 4.265591 4.265592 l 2.688254,-1.047215 c 1.478539,-0.575968 2.720829,-1.104127 2.760649,-1.173688 z"
       id="path8899" /></g></svg>
