<?xml version="1.0" encoding="UTF-8" standalone="no"?>
<!-- Created with Inkscape (http://www.inkscape.org/) -->

<svg
   width="98.475578mm"
   height="102.38519mm"
   viewBox="0 0 98.475578 102.38519"
   version="1.1"
   id="svg5"
   xml:space="preserve"
   xmlns="http://www.w3.org/2000/svg"
   xmlns:svg="http://www.w3.org/2000/svg"><defs
     id="defs2" /><g
     id="layer1"
     transform="translate(-51.527085,-8.6723301)"><path
       style="fill:#506c00;fill-opacity:1;stroke-width:0.264583"
       d="m 143.01564,110.57684 c -1.00472,-0.46715 -7.85373,-7.19655 -8.47443,-8.32642 -0.2582,-0.47001 -0.3681,-0.44756 -2.11666,0.43246 -3.18462,1.60275 -5.15658,2.09413 -8.98808,2.23967 -2.90343,0.11029 -3.80725,0.0428 -5.79828,-0.43294 -8.0545,-1.92458 -14.27495,-8.341438 -15.91041,-16.412758 -0.6112,-3.0164 -0.42149,-7.83951 0.41167,-10.4661 3.94279,-12.42987 17.6233,-18.61214 29.28073,-13.23207 10.06811,4.64658 14.88367,15.88329 11.30988,26.39068 -0.35076,1.03127 -0.995,2.50805 -1.43164,3.28173 l -0.79389,1.40671 0.72639,0.38161 c 0.39951,0.20988 2.41085,2.08789 4.46964,4.173348 2.94115,2.97924 3.80544,4.01852 4.03342,4.85007 0.35599,1.29842 0.35624,1.34957 0.0126,2.58692 -0.34535,1.2436 -1.68489,2.80083 -2.81573,3.27333 -1.18038,0.49319 -2.65875,0.43797 -3.91523,-0.14624 z m 2.6918,-4.15091 c 0.11354,-0.29585 -0.77511,-1.36474 -2.98486,-3.59028 -2.91458,-2.935388 -4.14079,-3.925938 -4.85997,-3.925938 -0.67737,0 0.78,1.925788 3.65415,4.828638 2.98184,3.01164 3.85215,3.56978 4.19068,2.68758 z m -18.43451,-6.07798 c 7.44243,-2.203748 12.43541,-8.838648 12.43541,-16.524728 0,-4.79176 -1.6624,-8.83298 -5.01104,-12.18163 -3.31489,-3.31489 -7.40363,-5.01473 -12.04402,-5.00714 -4.95469,0.008 -8.50863,1.48369 -12.08181,5.01635 -1.88465,1.86327 -2.46693,2.64711 -3.34636,4.50474 -1.42119,3.00197 -1.77975,4.62511 -1.75343,7.9375 0.0182,2.29545 0.14762,3.14543 0.74468,4.89225 2.14434,6.27362 7.14155,10.60919 13.584,11.785438 1.74504,0.31861 5.73024,0.0931 7.47257,-0.42278 z M 111.14134,85.604782 c -1.22247,-0.61505 -1.4876,-1.48916 -1.11493,-3.67591 0.18154,-1.06528 0.67931,-2.68549 1.10614,-3.60046 0.88057,-1.88764 3.25368,-4.53145 4.9712,-5.53827 1.63963,-0.96116 4.10792,-1.66168 5.85496,-1.66168 1.24445,0 1.62142,0.11029 2.0931,0.61236 0.71404,0.76007 0.73594,1.75787 0.0575,2.62037 -0.40924,0.52026 -0.84426,0.69238 -2.07514,0.82103 -2.06295,0.21562 -3.73691,0.96453 -5.22794,2.33892 -1.5599,1.43786 -2.4672,3.23642 -2.72879,5.40932 -0.28369,2.35648 -1.45226,3.42086 -2.9361,2.67432 z M 81.103138,108.8758 c -0.727604,-0.18878 -2.037292,-0.65436 -2.910417,-1.03462 -1.028176,-0.4478 -2.240044,-0.73299 -3.439583,-0.80946 -6.044472,-0.38534 -11.398249,-5.17865 -12.67753,-11.350388 -0.345104,-1.66491 -0.479442,-1.88352 -2.200464,-3.5808 -3.255622,-3.21072 -4.84956,-7.45771 -4.472604,-11.91709 l 0.163964,-1.93969 -1.026377,-1.37483 c -2.065682,-2.76699 -2.982838,-5.43019 -3.012429,-8.74738 -0.03075,-3.44753 1.096655,-6.96984 2.927757,-9.14705 l 0.764645,-0.90917 -0.507829,-1.60437 c -0.616516,-1.94774 -0.722999,-5.50213 -0.226409,-7.55749 0.638986,-2.64474 1.853693,-4.74976 3.988338,-6.9116 1.095291,-1.10923 2.201137,-2.12675 2.457436,-2.26114 0.442589,-0.23207 0.439267,-0.34886 -0.06615,-2.325 -0.672236,-2.62842 -0.674242,-4.79535 -0.0069,-7.40481 0.689135,-2.69449 1.829689,-4.65028 3.956369,-6.78425 2.121383,-2.12866 4.907597,-3.59862 7.63493,-4.02807 l 1.849652,-0.29125 0.408382,-1.46725 c 0.515702,-1.85284 2.127332,-4.36171 3.640449,-5.66721 5.020162,-4.3313101 12.204662,-4.0486701 16.941492,0.6665 l 1.5005,1.49364 1.68342,-1.64254 c 4.86278,-4.7446901 12.10234,-4.8180601 16.98642,-0.17215 1.78022,1.69341 2.68685,3.11658 3.34844,5.25618 l 0.46652,1.50874 1.28174,0.18523 c 5.22908,0.75568 9.97004,4.62209 11.78948,9.6147 1.02189,2.80411 0.95546,7.66041 -0.14282,10.44069 -0.10615,0.2687 0.19265,0.6105 0.92515,1.05834 1.40117,0.85663 3.41289,3.05954 4.45106,4.87407 1.26309,2.20765 1.95978,5.34679 1.79368,8.08202 -0.0754,1.2416 -0.33201,2.81927 -0.57026,3.50595 l -0.43318,1.24851 1.05158,1.54056 c 1.2846,1.88194 1.65893,2.81759 1.45397,3.63423 -0.25305,1.0082 -0.99549,1.50135 -2.11931,1.4077 -0.92245,-0.0769 -1.11248,-0.24417 -2.34105,-2.06098 -1.51138,-2.23502 -3.29707,-3.72154 -5.43816,-4.52706 -1.93622,-0.72844 -2.38125,-1.16934 -2.38125,-2.35917 0,-1.0181 0.4787,-1.65367 1.47286,-1.95552 0.58101,-0.1764 3.25217,0.63841 4.26204,1.3001 0.56896,0.3728 0.61362,0.3566 0.77353,-0.28054 0.0933,-0.3719 0.11714,-1.71243 0.0529,-2.97896 -0.0929,-1.83066 -0.27235,-2.62827 -0.87542,-3.89029 -0.92525,-1.93625 -2.98072,-4.04468 -4.75985,-4.8825 -0.72761,-0.34263 -1.53128,-0.80168 -1.78594,-1.0201 -0.65259,-0.55971 -0.57546,-1.75235 0.21823,-3.37459 3.13644,-6.41065 -0.73267,-13.98897 -7.77542,-15.22953 -3.48438,-0.61376 -6.58176,0.4693 -9.55724,3.34188 -2.00794,1.9385 -2.91767,2.19379 -3.93997,1.1056 -1.02732,-1.09353 -0.78102,-2.12015 0.94607,-3.94337 1.80989,-1.91063 3.5679,-3.09096 5.82672,-3.91205 1.4549,-0.52886 1.63912,-0.67203 1.49388,-1.16096 -0.3465,-1.16653 -1.47045,-2.79412 -2.6411,-3.82456 -1.62023,-1.42618 -3.33557,-1.97638 -5.75784,-1.84682 -2.31725,0.12395 -3.99391,0.897 -5.50794,2.53953 -2.07371,2.2497 -1.93098,0.54092 -2.07883,24.8883 l -0.13229,21.78501 -0.77077,0.66287 c -0.60121,0.51705 -0.94967,0.6271 -1.58396,0.50024 -1.7181,-0.34362 -1.60099,1.17974 -1.74631,-22.71587 l -0.13229,-21.75266 -0.90318,-1.6657 c -1.56101,-2.87889 -3.90075,-4.2721 -7.1905,-4.28162 -1.715727,-0.005 -2.243251,0.11162 -3.621489,0.80033 -1.811499,0.90522 -3.0637,2.18166 -3.822057,3.89605 -0.554511,1.25357 -0.478213,1.91239 0.221469,1.91239 0.941623,0 4.277424,1.87781 5.822527,3.27765 2.469946,2.23774 3.042777,4.05158 1.598917,5.0629 -1.130803,0.79205 -1.928863,0.50659 -3.749546,-1.34118 -1.896655,-1.92488 -3.671104,-2.88477 -6.203235,-3.35567 -4.403042,-0.81883 -9.334215,1.84813 -11.36366,6.14589 -0.609988,1.29177 -0.687163,1.78207 -0.687163,4.36562 0,2.75665 0.04651,3.00651 0.880361,4.7291 1.236001,2.55337 1.069647,3.04542 -1.486788,4.39772 -2.147359,1.13592 -4.311661,3.45591 -5.114357,5.48226 -0.471723,1.19084 -0.608822,2.06877 -0.617746,3.95586 -0.0063,1.33394 0.07535,2.51216 0.18147,2.61828 0.106117,0.10612 0.921938,-0.13421 1.812936,-0.53407 2.183025,-0.97968 3.302214,-0.99337 4.113415,-0.0503 1.183795,1.37625 0.625021,2.76202 -1.390637,3.44883 -2.987719,1.01802 -5.691871,3.49799 -6.740677,6.18184 -0.839053,2.14712 -0.851753,5.69512 -0.0277,7.73818 0.861748,2.13652 1.054818,2.36975 1.423644,1.7198 0.165155,-0.29105 0.918765,-1.15425 1.674688,-1.91823 1.577689,-1.59452 2.416655,-1.77431 3.451332,-0.73963 1.020544,1.02054 0.863662,2.0021 -0.579749,3.62731 -0.676049,0.76119 -1.539252,2.04509 -1.918229,2.8531 -0.605317,1.29059 -0.689049,1.80671 -0.689049,4.24724 0,2.49634 0.07651,2.94372 0.75429,4.41072 0.414859,0.89793 1.020378,1.88257 1.345598,2.1881 l 0.591308,0.5555 0.317562,-1.05993 c 0.730173,-2.43709 2.61535,-3.26589 3.936086,-1.73044 0.723961,0.84166 0.703918,1.20279 -0.205679,3.70584 -0.792892,2.1819 -0.654426,5.17303 0.33992,7.34289 0.751235,1.63934 2.799316,3.987808 4.188442,4.802758 0.844765,0.4956 0.855462,0.4956 0.642433,0 -0.539208,-1.25442 -0.467665,-2.180748 0.221667,-2.870078 1.282528,-1.28253 2.457199,-0.83096 3.834615,1.474118 0.842735,1.4103 2.781821,3.09025 4.492624,3.89224 1.32709,0.62212 1.824334,0.7039 4.279675,0.7039 2.49768,0 2.928261,-0.0737 4.265388,-0.73038 2.321174,-1.13991 3.787184,-2.59755 4.922974,-4.894868 l 0.9981,-2.0188 0.0863,-11.39152 c 0.0617,-8.14392 -0.004,-11.80637 -0.23007,-12.84672 -0.90643,-4.16902 -3.89947,-7.15584 -8.320219,-8.30293 -0.871638,-0.22617 -1.734841,-0.61642 -1.918229,-0.86721 -0.540919,-0.73976 -0.405352,-2.04713 0.278935,-2.68999 0.787355,-0.73968 1.932148,-0.73147 4.165433,0.0299 4.78022,1.62964 8.28963,5.3032 9.67926,10.132 0.38401,1.33437 0.47326,3.38536 0.60357,13.86907 l 0.15291,12.30313 0.74071,1.5875 c 1.53558,3.291108 4.66695,5.534378 8.29305,5.941028 2.36045,0.26471 3.00479,0.7201 3.00479,2.12365 0,2.01785 -1.66017,2.56468 -5.23059,1.72288 -3.14983,-0.74263 -6.24897,-2.71762 -8.11956,-5.17434 l -1.04702,-1.37509 -0.40819,0.62989 c -1.47361,2.274 -4.24509,4.41004 -7.054718,5.43722 -2.211205,0.80841 -6.117466,1.06112 -8.170135,0.52856 z M 72.359863,90.587362 c -0.743479,-0.74348 -0.849966,-2.08082 -0.352806,-4.43078 0.33075,-1.56337 1.503055,-4.31481 2.338017,-5.48741 l 0.546174,-0.76703 -1.138534,-1.66371 c -0.799362,-1.16809 -1.64755,-1.99613 -2.847181,-2.77955 -3.363857,-2.19675 -3.782509,-2.95872 -2.390455,-4.35077 0.971828,-0.97184 1.447985,-0.96841 3.334531,0.024 2.385959,1.25508 4.828561,3.56392 6.083093,5.74996 0.02053,0.0358 0.863415,-0.35879 1.873078,-0.87682 2.404287,-1.23356 3.70105,-1.41386 4.670795,-0.64942 0.525714,0.41441 0.727604,0.81115 0.727604,1.42983 0,1.21211 -0.414747,1.62025 -2.474367,2.43488 -3.705145,1.4655 -6.269365,4.81371 -6.770624,8.84071 -0.204327,1.64153 -0.366458,2.08662 -0.939683,2.57969 -0.900877,0.7749 -1.850303,0.75579 -2.659642,-0.0536 z m 2.595001,-37.32588 c -0.833067,-0.5835 -0.986549,-1.9413 -0.511741,-4.52714 0.444217,-2.41924 1.501582,-4.96196 2.836177,-6.82035 l 0.824675,-1.14834 -0.575488,-1.12805 c -0.877453,-1.71995 -2.793333,-3.60031 -4.575928,-4.49108 -0.882677,-0.44108 -1.820905,-0.99747 -2.084954,-1.23644 -1.125686,-1.01873 -0.106924,-3.26287 1.481227,-3.26287 2.074905,0 6.722475,3.36515 8.251907,5.97493 l 0.6589,1.12433 2.038416,-1.01553 c 1.121129,-0.55854 2.895356,-1.20337 3.942731,-1.43296 4.255074,-0.93274 5.881214,-0.32902 5.645894,2.0961 -0.10157,1.0468 -0.86095,1.45491 -3.19744,1.71837 -4.208783,0.47459 -8.115863,3.07573 -9.893758,6.58677 -0.884049,1.74585 -1.470469,3.89176 -1.470469,5.38095 0,1.01358 -0.137938,1.42486 -0.649433,1.93635 -0.74595,0.74596 -1.861987,0.84643 -2.720716,0.24496 z m 41.025536,-0.19084 c -0.37484,-0.41564 -0.62877,-1.27115 -0.84141,-2.83469 -0.83758,-6.15885 -5.26537,-10.49282 -11.36087,-11.12016 -1.47343,-0.15164 -2.085,-0.34318 -2.57969,-0.80792 -0.84815,-0.7968 -0.84774,-1.92914 0.001,-2.7779 0.52873,-0.52873 0.91425,-0.64943 2.07434,-0.64943 2.0177,0 5.27314,0.897 7.3012,2.01176 1.04099,0.5722 1.77021,0.83497 1.82886,0.65902 0.31175,-0.93524 2.66947,-3.64007 4.087,-4.68867 3.41726,-2.52791 5.6462,-2.89963 6.41553,-1.06993 0.58259,1.38557 0.086,2.17797 -2.03416,3.24565 -2.15387,1.08467 -3.88704,2.71605 -4.80038,4.51843 l -0.65013,1.28297 0.64918,0.7907 c 1.74103,2.12061 3.2645,6.50073 3.2645,9.38586 0,1.22484 -0.11202,1.60428 -0.61237,2.07434 -0.80731,0.75843 -2.04882,0.74937 -2.74266,-0.02 z"
       id="path248" /></g></svg>
