<?xml version="1.0" encoding="UTF-8" standalone="no"?>
<!-- Created with Inkscape (http://www.inkscape.org/) -->

<svg
   width="112.67605mm"
   height="124.82229mm"
   viewBox="0 0 112.67605 124.82229"
   version="1.1"
   id="svg5"
   xml:space="preserve"
   inkscape:version="1.2.1 (9c6d41e410, 2022-07-14)"
   sodipodi:docname="NeuroloyalNeu.svg"
   xmlns:inkscape="http://www.inkscape.org/namespaces/inkscape"
   xmlns:sodipodi="http://sodipodi.sourceforge.net/DTD/sodipodi-0.dtd"
   xmlns="http://www.w3.org/2000/svg"
   xmlns:svg="http://www.w3.org/2000/svg"><sodipodi:namedview
     id="namedview7"
     pagecolor="#ffffff"
     bordercolor="#000000"
     borderopacity="0.25"
     inkscape:showpageshadow="2"
     inkscape:pageopacity="0.0"
     inkscape:pagecheckerboard="true"
     inkscape:deskcolor="#d1d1d1"
     inkscape:document-units="mm"
     showgrid="true"
     inkscape:zoom="0.61002798"
     inkscape:cx="336.86979"
     inkscape:cy="175.40179"
     inkscape:window-width="1920"
     inkscape:window-height="1017"
     inkscape:window-x="1912"
     inkscape:window-y="-8"
     inkscape:window-maximized="1"
     inkscape:current-layer="layer1"><inkscape:grid
       type="xygrid"
       id="grid5087" /></sodipodi:namedview><defs
     id="defs2"><rect
       x="401.13806"
       y="430.53589"
       width="365.10202"
       height="434.32916"
       id="rect407" /><rect
       x="401.13806"
       y="430.53589"
       width="365.10202"
       height="434.32916"
       id="rect407-3" /></defs><g
     inkscape:label="Ebene 1"
     inkscape:groupmode="layer"
     id="layer1"
     transform="translate(-46.923501,-52.065472)"><path
       id="path248"
       style="fill:#000000;fill-opacity:1;stroke-width:0.144088"
       d="m 109.82646,78.214299 c -1.64914,0.01671 -3.29688,0.67267 -4.62098,1.964628 l -0.91661,0.894641 -0.81724,-0.813599 c -2.57964,-2.567825 -6.492302,-2.721535 -9.226223,-0.362751 -0.824025,0.710959 -1.701506,2.077054 -1.982349,3.086098 l -0.222608,0.799242 -1.007216,0.15844 c -1.485274,0.233885 -3.00248,1.034455 -4.15776,2.193705 -1.158164,1.162134 -1.779288,2.227147 -2.154581,3.694528 -0.363427,1.421083 -0.362435,2.601399 0.0037,4.032799 0.275243,1.076193 0.277049,1.139751 0.03603,1.266138 -0.08867,0.04644 -0.371931,0.296868 -0.713973,0.621099 -0.464901,0.386161 -0.975165,0.927842 -1.40093,1.487322 -0.0022,0.0024 -0.0048,0.006 -0.0069,0.0096 -0.04202,0.0553 -0.08058,0.110359 -0.120729,0.165766 -0.618999,0.834396 -1.023054,1.700487 -1.267536,2.712375 -0.270437,1.11932 -0.212483,3.0551 0.123265,4.11582 l 0.266227,0.84173 -0.158722,0.23274 -0.247373,0.29439 c -0.997196,1.18567 -1.611294,3.10371 -1.594548,4.98119 0.01612,1.80651 0.515756,3.25679 1.640704,4.76367 l 0.558907,0.74887 -0.08949,1.05617 c -0.205286,2.42855 0.662752,4.74142 2.435726,6.48993 0.937247,0.92432 1.010644,1.04358 1.198585,1.95027 0.696681,3.36107 3.612147,5.97134 6.903894,6.18118 0.653256,0.0418 1.313226,0.19686 1.873159,0.44074 0.475494,0.20708 1.188739,0.46087 1.584969,0.56366 1.11787,0.29004 3.24513,0.15238 4.449342,-0.28787 1.53009,-0.55939 3.03949,-1.72276 3.84198,-2.96116 0.0959,-0.12185 0.16395,-0.20603 0.24963,-0.31266 0.0931,0.11563 0.1688,0.20957 0.27411,0.34333 0.80251,1.23841 2.31191,2.40177 3.842,2.96115 1.20419,0.44025 3.33146,0.57793 4.44931,0.28792 0.39624,-0.10282 1.10948,-0.35662 1.58499,-0.56371 0.55993,-0.24388 1.21989,-0.39906 1.87316,-0.44071 3.29173,-0.20985 6.2072,-2.82014 6.90389,-6.18119 0.18794,-0.90671 0.26134,-1.02595 1.19858,-1.95027 1.77297,-1.74852 2.64102,-4.06113 2.43573,-6.48964 l -0.0894,-1.05647 0.5589,-0.74859 c 1.12493,-1.50688 1.62458,-2.95744 1.64069,-4.76394 0.0166,-1.87748 -0.59734,-3.79551 -1.59456,-4.9812 l -0.0242,-0.0287 -0.36866,-0.54034 0.25301,-0.79981 c 0.33574,-1.06071 0.39369,-2.99647 0.12321,-4.11582 -0.13745,-0.568963 -0.32471,-1.09166 -0.57157,-1.588923 -0.0848,-0.189358 -0.17575,-0.371355 -0.27354,-0.542303 -0.54032,-0.944385 -1.56173,-2.074764 -2.31753,-2.580943 -0.16109,-0.143192 -0.29449,-0.255286 -0.34756,-0.283116 -0.24103,-0.126398 -0.23925,-0.189944 0.0359,-1.266113 0.36608,-1.431425 0.36732,-2.611716 0.004,-4.032799 -0.0302,-0.117421 -0.0645,-0.228439 -0.0979,-0.341096 -0.0176,-0.06499 -0.0356,-0.128924 -0.0548,-0.191082 -0.0232,-0.07517 -0.0463,-0.150768 -0.0719,-0.221496 -0.0312,-0.08594 -0.0644,-0.171152 -0.0987,-0.255813 -0.0178,-0.04501 -0.0382,-0.0881 -0.0566,-0.132491 -0.0211,-0.04907 -0.0425,-0.09803 -0.0648,-0.146626 -0.14014,-0.315505 -0.30216,-0.617293 -0.48912,-0.910128 -0.006,-0.0096 -0.0122,-0.01879 -0.0181,-0.02813 -0.063,-0.09755 -0.12812,-0.195032 -0.19699,-0.291267 -1.27257,-1.831674 -3.30398,-3.154834 -5.49621,-3.471655 l -0.68633,-0.09899 -0.21051,-0.757026 c -0.0978,-0.351712 -0.27149,-0.746934 -0.48686,-1.142577 -0.14227,-0.278394 -0.30388,-0.541352 -0.49644,-0.798125 -0.31252,-0.445253 -0.6594,-0.852107 -0.99933,-1.145388 -0.52663,-0.454364 -1.0972,-0.814605 -1.69333,-1.083206 -0.90178,-0.429 -1.86713,-0.640174 -2.83253,-0.630391 z m 0.0846,2.346793 c 0.34724,-0.0011 0.60497,0.0074 0.83047,0.03743 0.10462,0.0162 0.20602,0.03731 0.3059,0.06075 0.25221,0.06491 0.49697,0.168367 0.83585,0.337717 0.2124,0.106145 0.40815,0.223711 0.59267,0.348957 0.0881,0.06738 0.17599,0.135454 0.26284,0.211919 0.50307,0.442799 0.98689,1.086767 1.26278,1.651394 0.11976,0.289471 0.17423,0.517275 0.15899,0.675417 -0.0815,0.111915 -0.30599,0.209874 -0.79701,0.388351 -1.23012,0.44717 -2.18739,1.089886 -3.17305,2.130386 -0.72241,0.762627 -0.96731,1.269165 -0.78939,1.733021 0.0486,0.219868 0.1801,0.410806 0.40159,0.565931 0.61583,0.431358 1.05021,0.275982 2.04173,-0.730285 1.0329,-1.048268 1.99925,-1.571121 3.37823,-1.827568 1.79644,-0.334094 3.75428,0.39746 5.08814,1.7696 0.74681,0.809571 1.25209,1.818303 1.45186,2.901187 0.0174,0.269925 0.0229,0.598537 0.0229,1.053666 0,0.429204 -0.004,0.740124 -0.0168,0.996799 -0.0932,0.524026 -0.2592,1.047466 -0.50853,1.557105 -0.19009,0.388543 -0.30003,0.728466 -0.33855,1.017087 -0.006,0.0389 -0.0122,0.07577 -0.0151,0.112035 -1.9e-4,0.0024 -5.4e-4,0.0048 -8.9e-4,0.0072 -0.006,0.07313 -0.006,0.143059 0.004,0.207982 0.0206,0.209647 0.0976,0.376227 0.23275,0.492211 0.0814,0.06966 0.26921,0.184978 0.48741,0.30563 0.14065,0.08522 0.3015,0.175043 0.48715,0.273253 0.6891,0.364532 1.37995,0.953349 1.92184,1.601021 0.26934,0.337134 0.50374,0.689996 0.66839,1.034527 0.32842,0.687275 0.42613,1.121595 0.47674,2.118545 0.0348,0.68973 0.0221,1.41988 -0.0287,1.62241 -0.0224,0.0891 -0.0407,0.15514 -0.0607,0.20178 -0.0839,0.004 -0.27134,-0.0456 -0.49756,-0.12614 -0.61991,-0.34313 -1.88983,-0.72029 -2.18411,-0.63094 -0.49837,0.15129 -0.75589,0.45883 -0.79418,0.93882 -0.16694,0.5634 0.20567,1.0774 1.05111,1.36547 0.85086,0.28991 1.65795,0.79889 2.31752,1.42625 0.31131,0.3179 0.60595,0.6764 0.88199,1.08461 0.0807,0.11921 0.13197,0.18822 0.19784,0.28283 0.10545,0.18804 0.19792,0.37947 0.27355,0.57298 0.45693,1.1693 0.46367,3.10142 0.0148,4.21402 -0.46929,1.16355 -0.57446,1.29055 -0.77531,0.93659 -0.09,-0.15848 -0.50014,-0.62859 -0.91182,-1.04465 -0.85919,-0.86834 -1.31615,-0.96618 -1.87961,-0.40271 -0.5558,0.55578 -0.47034,1.09025 0.31574,1.97533 0.36816,0.41454 0.83826,1.1137 1.04464,1.55374 0.32964,0.70285 0.37514,0.98393 0.37514,2.31303 0,1.35947 -0.0413,1.60304 -0.4106,2.40195 -0.22593,0.48899 -0.55571,1.02545 -0.73282,1.19184 l -0.32223,0.30224 -0.1728,-0.5772 c -0.39764,-1.32722 -1.42434,-1.7784 -2.1436,-0.94221 -0.39427,0.45835 -0.38335,0.65495 0.11203,2.01809 0.4318,1.18823 0.35634,2.81708 -0.18517,3.99874 -0.40913,0.89279 -1.52444,2.17176 -2.28095,2.61559 -0.46006,0.26987 -0.46581,0.26987 -0.34981,0 0.29365,-0.68316 0.25467,-1.18764 -0.12062,-1.56306 -0.69845,-0.69844 -1.33804,-0.4524 -2.08817,0.80292 -0.45895,0.76802 -1.51502,1.68293 -2.44672,2.11967 -0.72271,0.33881 -0.99358,0.38333 -2.33074,0.38333 -1.36022,0 -1.59469,-0.0401 -2.32288,-0.39766 -1.26408,-0.6208 -2.06231,-1.41485 -2.68084,-2.66593 l -0.50374,-1.01819 -0.0831,-6.68355 c -0.002,-0.21222 -0.005,-0.31865 -0.006,-0.51838 -0.0207,-3.7313 0.0156,-5.55752 0.12892,-6.07906 0.49364,-2.27039 2.12373,-3.89693 4.53121,-4.52162 0.47468,-0.12321 0.94478,-0.33566 1.04464,-0.47224 0.29457,-0.40286 0.22068,-1.115 -0.15196,-1.46509 -0.42879,-0.40283 -1.05207,-0.39832 -2.26829,0.0163 -1.91088,0.65144 -3.4468,1.90444 -4.42905,3.56395 -0.98138,-1.67505 -2.52477,-2.93909 -4.447632,-3.59464 -1.21621,-0.41462 -1.83977,-0.41913 -2.26855,-0.0163 -0.37265,0.3501 -0.44655,1.06223 -0.15198,1.4651 0.1,0.13657 0.56998,0.34907 1.04466,0.47225 2.407492,0.62466 4.037572,2.25122 4.531212,4.52161 0.11419,0.52587 0.15046,2.37147 0.12865,6.16742 -0.002,0.18994 -0.004,0.29021 -0.006,0.49137 l -0.0822,6.6205 -0.50431,1.01988 c -0.61854,1.25109 -1.41706,2.04516 -2.681142,2.66592 -0.72818,0.35762 -0.96266,0.39764 -2.32287,0.39764 -1.33714,0 -1.60804,-0.0444 -2.330754,-0.38329 -0.931684,-0.43674 -1.987476,-1.35164 -2.446418,-2.11967 -0.750125,-1.25533 -1.389998,-1.50136 -2.08845,-0.80291 -0.375401,0.37541 -0.414376,0.87989 -0.120729,1.56302 0.116021,0.26992 0.11024,0.26992 -0.349811,0 -0.7565,-0.44379 -1.871826,-1.72278 -2.280941,-2.61555 -0.541509,-1.18167 -0.616976,-2.81051 -0.185178,-3.99875 0.495357,-1.36314 0.506267,-1.55974 0.111999,-2.0181 -0.719256,-0.83619 -1.745963,-0.38499 -2.143607,0.94222 l -0.172794,0.57718 -0.321951,-0.30253 c -0.177109,-0.16637 -0.506899,-0.70253 -0.732827,-1.19154 -0.36911,-0.79891 -0.410878,-1.04246 -0.410878,-2.40194 0,-1.32908 0.0455,-1.61021 0.375138,-2.31304 0.206387,-0.44002 0.676476,-1.1392 1.044647,-1.55374 0.786063,-0.88508 0.871533,-1.41953 0.315756,-1.97531 -0.563473,-0.56348 -1.020158,-0.46564 -1.879348,0.40272 -0.411667,0.41606 -0.822154,0.88614 -0.912097,1.04465 -0.200857,0.35395 -0.306025,0.22693 -0.775323,-0.93661 -0.448769,-1.1126 -0.441743,-3.04472 0.0152,-4.21402 0.04365,-0.11168 0.09418,-0.22254 0.148028,-0.33265 0.09519,-0.13158 0.191714,-0.26713 0.323358,-0.4618 0.823079,-1.21716 1.795414,-2.02689 2.961423,-2.46556 0.728138,-0.27394 1.068869,-0.47331 1.210125,-0.78377 0.127247,-0.21563 0.151826,-0.45602 0.07317,-0.70552 -0.05908,-0.43605 -0.317271,-0.71723 -0.788551,-0.86031 -0.04453,-0.0134 -0.115637,-0.0144 -0.19953,-0.007 -0.376839,-0.0353 -0.864833,0.0974 -1.539951,0.40047 -0.446451,0.20037 -0.854494,0.3249 -0.962471,0.29887 -0.01301,-0.0402 -0.02535,-0.0766 -0.04024,-0.13593 -0.05082,-0.20252 -0.06396,-0.93266 -0.02899,-1.62239 0.05058,-0.99695 0.148307,-1.43129 0.476732,-2.118576 0.503881,-1.054456 1.623305,-2.202621 2.592196,-2.6589 0.396249,-0.186581 0.833917,-0.436577 0.972602,-0.555518 0.148556,-0.127464 0.223657,-0.318282 0.233864,-0.558056 0.02244,-0.153581 -0.0038,-0.328719 -0.06951,-0.537815 -0.05891,-0.224105 -0.150269,-0.470295 -0.283113,-0.741824 -0.244304,-0.499345 -0.408029,-1.011916 -0.502341,-1.525313 -0.01871,-0.272642 -0.02308,-0.6067 -0.02308,-1.089958 0,-0.402511 0.0048,-0.705424 0.01745,-0.958257 0.409897,-2.297815 2.193547,-4.271364 4.742275,-4.720317 1.897553,-0.334249 3.584528,0.255585 5.20494,1.819967 0.10333,0.09995 0.19663,0.183505 0.28987,0.267077 0.0209,0.01951 0.0418,0.03878 0.0622,0.05733 0.0223,0.01963 0.0443,0.03806 0.0662,0.05685 0.24234,0.214721 0.45118,0.366507 0.63743,0.449707 0.43792,0.217989 0.75316,0.129451 1.08996,-0.229073 0.0407,-0.04345 0.0767,-0.08654 0.11012,-0.129713 0.006,-0.0084 0.0123,-0.01724 0.0186,-0.02562 0.30382,-0.411525 0.26824,-0.826233 -0.1438,-1.399526 -0.21664,-0.341539 -0.54348,-0.714222 -0.98274,-1.112197 -0.17181,-0.15564 -0.39019,-0.322376 -0.62393,-0.488812 -0.0393,-0.03016 -0.0795,-0.05697 -0.11903,-0.08618 -0.0123,-0.0096 -0.0237,-0.01688 -0.0355,-0.02561 -8.7e-4,-6.23e-4 -0.003,-0.0011 -0.003,-0.0012 -0.29797,-0.216864 -0.6049,-0.40809 -0.92758,-0.576357 -0.0397,-0.02071 -0.0783,-0.04297 -0.11855,-0.06308 -0.5476,-0.299932 -1.047459,-0.51779 -1.301859,-0.53894 -0.18197,-0.07732 -0.291865,-0.141181 -0.346152,-0.20657 -0.02888,-0.105212 -0.01459,-0.253383 0.03714,-0.438169 0.238805,-0.614504 0.793326,-1.39092 1.372501,-1.900732 0.88236,-0.776686 1.81649,-1.076091 3.13564,-1.005528 1.261932,0.0675 2.174892,0.488412 2.999402,1.382919 4.3e-4,4.42e-4 7.2e-4,6.5e-4 9.1e-4,0.0012 0.22214,0.262286 0.42506,0.559082 0.6073,0.895199 l 0.21389,0.394276 c 0.27041,1.167592 0.25889,3.870517 0.30986,12.263326 l 0.0722,11.86371 0.29268,0.25189 c 0.096,0.24212 0.23493,0.28679 0.41313,0.31521 0.18115,0.0989 0.34386,0.11299 0.57664,0.0664 0.32227,-0.0645 0.52587,-0.01 0.65768,-0.43903 l 0.26147,-0.22514 0.0721,-11.863712 c 0.0496,-8.164179 0.0401,-10.942176 0.28846,-12.162578 l 0.23527,-0.43368 c 0.85011,-1.567809 2.12417,-2.32669 3.91574,-2.331881 z m -18.932853,9.620199 c -0.864889,0 -1.419878,1.222125 -0.806842,1.776913 0.04606,0.04177 0.138456,0.104494 0.246809,0.173917 0.192257,0.152229 0.447013,0.305487 0.775884,0.471097 0.462914,0.233131 0.888224,0.514116 1.266411,0.827394 0.557688,0.490308 1.051059,1.083279 1.338453,1.646613 l 0.313224,0.614361 -0.448872,0.625599 c -0.726803,1.01206 -1.30282,2.396732 -1.544737,3.714215 -0.258574,1.40823 -0.174786,2.14753 0.278892,2.4653 0.07341,0.0515 0.15093,0.0901 0.229922,0.12272 0.415116,0.21205 0.92217,0.14622 1.230668,-0.19586 0.03659,-0.0406 0.07067,-0.0918 0.103274,-0.1486 0.195159,-0.22417 0.260721,-0.44311 0.269324,-0.8651 0.02998,-0.1584 0.05855,-0.33148 0.08556,-0.52992 0.456137,-3.354047 2.867571,-5.714332 6.187103,-6.055966 0.80242,-0.08259 1.13547,-0.18706 1.40486,-0.440144 0.39952,-0.375329 0.45255,-0.887074 0.1607,-1.317642 -0.29525,-0.640621 -1.22782,-0.73633 -2.980842,-0.352048 -0.57039,0.12507 -1.53643,0.476208 -2.14697,0.780378 l -0.99513,0.495586 c -0.0787,0.01592 -0.12993,0.01221 -0.14014,-0.01831 -0.0537,-0.161158 -0.22605,-0.423111 -0.45141,-0.718172 -0.248459,-0.37198 -0.597352,-0.763336 -0.999598,-1.139215 -0.274884,-0.277299 -0.547204,-0.527629 -0.774762,-0.695969 -0.739052,-0.546708 -1.373933,-0.905028 -1.899611,-1.07982 -0.264966,-0.09899 -0.505635,-0.157315 -0.702152,-0.157315 z m 26.538873,0.0024 c -0.61101,0.02705 -1.4528,0.42985 -2.49962,1.204207 -0.77195,0.571066 -2.05602,2.044061 -2.22577,2.553389 -0.0321,0.09588 -0.42906,-0.04728 -0.99596,-0.358823 -1.10447,-0.607095 -2.87743,-1.095584 -3.97625,-1.095584 -0.6318,0 -0.84171,0.06583 -1.12965,0.353748 -0.37195,0.371953 -0.44427,0.843685 -0.21782,1.239948 0.13211,0.42912 0.58733,0.615629 1.70402,0.741537 1.64991,0.186054 3.21201,0.974439 4.32043,2.113508 0.94378,1.024688 1.57384,2.362571 1.7848,3.913769 0.0264,0.19529 0.0547,0.365 0.0841,0.52149 0.004,0.5279 0.0804,0.75035 0.35319,1.02326 0.40623,0.40623 1.01406,0.46093 1.48171,0.1334 0.45367,-0.31778 0.53719,-1.05707 0.27861,-2.4653 -0.21781,-1.186154 -0.70749,-2.424342 -1.3331,-3.398459 -0.0602,-0.09564 -0.12149,-0.187407 -0.18351,-0.273839 -0.01,-0.01353 -0.0184,-0.02861 -0.0281,-0.04201 l -0.44887,-0.625612 0.31322,-0.614061 c 0.47785,-0.936676 1.52123,-1.960753 2.49201,-2.445866 0.48071,-0.240193 0.99175,-0.543285 1.13556,-0.67343 0.37544,-0.339791 0.31149,-0.929016 0.007,-1.335357 -0.19351,-0.33097 -0.50126,-0.488297 -0.91687,-0.469996 z M 89.611402,111.82129 c -0.259406,-0.001 -0.456385,0.13024 -0.721009,0.39484 -0.758096,0.75809 -0.530049,1.17298 1.301869,2.3693 0.653304,0.42665 1.115041,0.87767 1.550365,1.51379 l 0.619977,0.9059 -0.297184,0.41764 c -0.454711,0.63859 -1.093323,2.13704 -1.273445,2.98843 -0.270747,1.27977 -0.212675,2.00806 0.192215,2.41294 0.440756,0.44078 0.957883,0.45126 1.448489,0.0292 0.312171,-0.26853 0.400357,-0.51092 0.511629,-1.40489 0.272981,-2.19304 1.66944,-4.01651 3.68721,-4.81459 1.12166,-0.44364 1.34747,-0.66596 1.34747,-1.32608 0,-0.33692 -0.11,-0.55301 -0.39625,-0.7787 -0.52811,-0.4163 -1.23417,-0.31803 -2.543509,0.35376 -0.549852,0.28211 -1.008981,0.49707 -1.020163,0.47756 -0.683202,-1.19048 -2.013558,-2.44789 -3.312923,-3.13139 -0.513697,-0.27024 -0.835332,-0.40592 -1.094741,-0.40779 z m 29.374768,0.0306 c -0.25941,0.001 -0.58103,0.13757 -1.09474,0.40777 -1.29936,0.68351 -2.62973,1.94094 -3.31294,3.13143 -0.0108,0.0195 -0.4703,-0.19546 -1.02015,-0.47759 -1.30934,-0.67179 -2.01542,-0.76976 -2.5435,-0.35346 -0.2863,0.22567 -0.39626,0.44149 -0.39626,0.77841 0,0.6601 0.22583,0.88243 1.34747,1.32608 2.01777,0.79811 3.41424,2.62155 3.68721,4.8146 0.11132,0.89397 0.19945,1.13636 0.51164,1.40487 0.4906,0.422 1.00772,0.41154 1.44848,-0.0292 0.40491,-0.4049 0.46296,-1.13318 0.19221,-2.41294 -0.18011,-0.8514 -0.81843,-2.34985 -1.27314,-2.98843 l -0.29748,-0.41764 0.61999,-0.90591 c 0.4353,-0.63613 0.89705,-1.08714 1.55035,-1.51379 1.83191,-1.19632 2.05997,-1.61121 1.30188,-2.3693 -0.26462,-0.26462 -0.46162,-0.3967 -0.72102,-0.39484 z" /><path
       id="path5914"
       style="fill:none;fill-opacity:1;stroke:#000000;stroke-width:3.71172;stroke-linecap:round;stroke-linejoin:round;stroke-dasharray:none;stroke-dashoffset:2.26772;stroke-opacity:1;paint-order:fill markers stroke"
       d="m 104.3839,69.988917 a 35.551005,35.551005 0 0 0 -35.550753,35.550743 35.551005,35.551005 0 0 0 16.01098,29.67955 h -1.045336 l 6.333877,14.25122 h 28.503082 l 6.33326,-14.25122 h -1.04473 A 35.551005,35.551005 0 0 0 139.93526,105.53966 35.551005,35.551005 0 0 0 104.3839,69.988917 Z" /><path
       id="path8940"
       style="fill:none;fill-opacity:1;stroke:#000000;stroke-width:3.37165;stroke-linecap:round;stroke-linejoin:round;stroke-dasharray:none;stroke-dashoffset:2.26772;stroke-opacity:1;paint-order:fill markers stroke"
       d="m 90.062771,155.80431 a 14.658421,16.626431 0 0 0 14.632249,15.8347 14.658421,16.626431 0 0 0 14.63226,-15.8347 z" /><path
       style="fill:none;fill-opacity:1;stroke:#000000;stroke-width:3.26335;stroke-linecap:round;stroke-linejoin:round;stroke-dasharray:none;stroke-dashoffset:2.26772;stroke-opacity:1;paint-order:fill markers stroke"
       d="m 103.80892,53.697146 v 8.738783"
       id="path9017" /><path
       style="fill:none;fill-opacity:1;stroke:#000000;stroke-width:3.26335;stroke-linecap:round;stroke-linejoin:round;stroke-dasharray:none;stroke-dashoffset:2.26772;stroke-opacity:1;paint-order:fill markers stroke"
       d="m 57.45982,80.641727 7.388073,4.369392"
       id="path9017-4-4" /><path
       style="fill:none;fill-opacity:1;stroke:#000000;stroke-width:3.26335;stroke-linecap:round;stroke-linejoin:round;stroke-dasharray:none;stroke-dashoffset:2.26772;stroke-opacity:1;paint-order:fill markers stroke"
       d="M 51.201008,104.67339 H 59.73202"
       id="path9017-4-3" /><path
       style="fill:none;fill-opacity:1;stroke:#000000;stroke-width:3.26335;stroke-linecap:round;stroke-linejoin:round;stroke-dasharray:none;stroke-dashoffset:2.26772;stroke-opacity:1;paint-order:fill markers stroke"
       d="m 75.372209,62.15024 4.265507,7.568008"
       id="path9017-4-2" /><path
       style="fill:none;fill-opacity:1;stroke:#000000;stroke-width:3.26335;stroke-linecap:round;stroke-linejoin:round;stroke-dasharray:none;stroke-dashoffset:2.26772;stroke-opacity:1;paint-order:fill markers stroke"
       d="m 150.15801,80.641719 -7.38808,4.369392"
       id="path9017-4-4-4" /><path
       style="fill:none;fill-opacity:1;stroke:#000000;stroke-width:3.26335;stroke-linecap:round;stroke-linejoin:round;stroke-dasharray:none;stroke-dashoffset:2.26772;stroke-opacity:1;paint-order:fill markers stroke"
       d="m 156.41682,104.67339 h -8.53101"
       id="path9017-4-3-4" /><path
       style="fill:none;fill-opacity:1;stroke:#000000;stroke-width:3.26335;stroke-linecap:round;stroke-linejoin:round;stroke-dasharray:none;stroke-dashoffset:2.26772;stroke-opacity:1;paint-order:fill markers stroke"
       d="m 132.24561,62.150233 -4.2655,7.568007"
       id="path9017-4-2-8" /></g></svg>
