<?xml version="1.0" encoding="UTF-8" standalone="no"?>
<!-- Created with Inkscape (http://www.inkscape.org/) -->

<svg
   width="98.494087mm"
   height="102.38033mm"
   viewBox="0 0 98.494087 102.38033"
   version="1.1"
   id="svg5"
   xml:space="preserve"
   xmlns="http://www.w3.org/2000/svg"
   xmlns:svg="http://www.w3.org/2000/svg"><defs
     id="defs2" /><g
     id="layer1"
     transform="translate(-54.339847,-33.484461)"><path
       style="fill:#000000;stroke-width:0.264583"
       d="m 145.84691,135.38412 c -0.99891,-0.46446 -7.85399,-7.19549 -8.46666,-8.31347 -0.24699,-0.45069 -0.41413,-0.41129 -2.51354,0.59263 -3.22582,1.54254 -5.82416,2.13912 -9.31666,2.13912 -5.69459,0 -10.37529,-1.76947 -14.50688,-5.48412 -2.67243,-2.40275 -4.57652,-5.36669 -5.85226,-9.10976 -0.72536,-2.12824 -0.85774,-2.93135 -0.95255,-5.77903 -0.12924,-3.88186 0.26025,-6.14055 1.58879,-9.21342 4.78278,-11.062501 17.58755,-16.031411 28.42431,-11.030101 10.06811,4.64658 14.88367,15.883281 11.30987,26.390671 -0.35076,1.03127 -0.99499,2.50805 -1.43163,3.28173 l -0.79389,1.40671 0.72638,0.38161 c 0.39952,0.20988 2.41086,2.08789 4.46965,4.17335 2.94115,2.97924 3.80544,4.01852 4.03342,4.85007 0.35598,1.29842 0.35623,1.34957 0.0126,2.58692 -0.34535,1.2436 -1.68489,2.80083 -2.81573,3.27333 -1.18038,0.49319 -2.65875,0.43797 -3.91523,-0.14624 z m 2.69181,-4.15091 c 0.11353,-0.29585 -0.77512,-1.36474 -2.98486,-3.59028 -2.91458,-2.93539 -4.1408,-3.92594 -4.85998,-3.92594 -0.67736,0 0.78001,1.92579 3.65415,4.82864 2.98185,3.01163 3.85216,3.56978 4.19069,2.68758 z m -19.89001,-5.79504 c 6.33157,-1.12795 11.76485,-6.19299 13.36824,-12.46221 1.54769,-6.0514 -0.105,-12.11673 -4.50576,-16.536031 -3.28904,-3.3029 -7.38649,-5.00577 -12.02663,-4.99818 -4.95469,0.008 -8.50863,1.48369 -12.08181,5.01634 -1.88465,1.86327 -2.46693,2.64711 -3.34637,4.504741 -1.42499,3.01002 -1.78162,4.62969 -1.7477,7.93749 0.0233,2.27318 0.15872,3.16239 0.74503,4.89225 1.30869,3.86123 3.57395,6.8783 6.74919,8.9892 3.99332,2.65475 8.09448,3.50283 12.84581,2.6564 z m -14.67609,-15.02611 c -1.22248,-0.61505 -1.4876,-1.48915 -1.11494,-3.6759 0.45493,-2.66944 1.58785,-4.95546 3.39454,-6.849591 2.4384,-2.5564 5.46038,-3.95082 8.56222,-3.95082 1.21889,0 1.59909,0.11255 2.06865,0.61237 0.71503,0.76111 0.73575,1.75809 0.0546,2.62411 -0.41681,0.52989 -0.85245,0.6992 -2.18282,0.848341 -2.14279,0.24022 -3.57157,0.88305 -5.10567,2.29712 -1.57104,1.44813 -2.47828,3.24248 -2.74043,5.42006 -0.28369,2.35647 -1.45226,3.42085 -2.9361,2.67431 z m -30.170494,23.19817 c -0.80037,-0.21487 -2.09468,-0.68328 -2.87625,-1.04092 -0.9428,-0.43141 -1.89541,-0.65024 -2.83061,-0.65024 -1.88166,0 -5.2054,-1.08531 -6.96236,-2.27344 -3.21501,-2.17411 -5.46541,-5.48771 -6.22918,-9.17212 -0.3458,-1.66813 -0.48486,-1.89921 -2.06985,-3.43959 -1.87923,-1.82633 -2.86573,-3.35428 -3.86431,-5.98529 -0.56897,-1.4991 -0.66807,-2.21094 -0.68786,-4.94083 l -0.0231,-3.18939 -0.95334,-1.30852 c -2.0164,-2.767631 -2.9378,-5.476181 -2.96491,-8.715651 -0.0283,-3.37976 1.12512,-6.94694 2.94639,-9.11245 l 0.76465,-0.90918 -0.51398,-1.60437 c -0.62199,-1.94154 -0.7249,-5.47664 -0.22,-7.55749 0.6463,-2.66362 1.8343,-4.758178 3.84097,-6.771993 1.03068,-1.034349 2.14175,-2.058287 2.46904,-2.275417 l 0.59507,-0.394785 -0.52893,-2.068099 c -0.6686,-2.614205 -0.67023,-4.785905 -0.005,-7.384804 0.71773,-2.806284 1.66705,-4.451878 3.84224,-6.660302 2.23497,-2.269109 4.92974,-3.715224 7.75097,-4.159458 l 1.84965,-0.291249 0.40838,-1.467256 c 0.80861,-2.905205 3.28693,-5.896289 6.06,-7.313802 4.94193,-2.526178 10.5593,-1.631427 14.521939,2.313098 l 1.5005,1.493635 1.683425,-1.64254 c 4.79093,-4.674576 12.01625,-4.817367 16.81088,-0.332225 1.91664,1.792925 2.84457,3.2191 3.52403,5.41626 l 0.46657,1.508734 1.33384,0.193507 c 2.92927,0.424966 6.12228,2.043124 8.27049,4.191335 3.72589,3.725888 5.25485,9.704534 3.71659,14.532865 -0.33067,1.037937 -0.44273,1.755704 -0.28262,1.810369 0.1459,0.04982 0.85583,0.557379 1.57761,1.127916 3.7286,2.947286 5.76472,7.565831 5.46996,12.407551 -0.0753,1.23692 -0.33342,2.80446 -0.5736,3.48342 l -0.4367,1.23446 1.07948,1.58143 c 1.37778,2.01844 1.70093,2.92812 1.35935,3.82656 -0.33066,0.86969 -1.13205,1.30636 -2.20396,1.20091 -0.70719,-0.0696 -1.03625,-0.38176 -2.17059,-2.05931 -1.51128,-2.23502 -3.29691,-3.72151 -5.43807,-4.52705 -1.93622,-0.72845 -2.38125,-1.16935 -2.38125,-2.35917 0,-2.00781 1.56278,-2.44031 4.49137,-1.24298 1.00714,0.41176 1.81077,0.60292 1.94986,0.46383 0.13014,-0.13013 0.18547,-1.40705 0.12296,-2.83759 -0.0952,-2.17769 -0.2376,-2.85932 -0.87527,-4.18847 -0.96386,-2.009036 -3.00281,-4.05921 -4.9544,-4.981674 -2.26278,-1.069546 -2.5365,-1.923918 -1.37618,-4.295518 2.0199,-4.128532 1.22669,-8.979894 -1.995,-12.201582 -4.38995,-4.389959 -10.95767,-4.213834 -15.47901,0.415099 -1.2635,1.293574 -1.74356,1.6168 -2.40127,1.6168 -1.08258,0 -1.97264,-0.944496 -1.97264,-2.093299 0,-1.811017 4.44513,-5.488384 8.01389,-6.629738 0.85371,-0.273031 0.97632,-0.405371 0.82638,-0.892008 -0.55688,-1.807449 -2.20343,-3.797825 -4.02473,-4.865182 -1.56855,-0.91923 -4.63874,-1.142617 -6.6271,-0.482188 -1.69241,0.562126 -3.76814,2.398033 -4.58381,4.054193 l -0.61608,1.250931 -0.1323,21.784999 -0.13229,21.784997 -0.77077,0.66288 c -0.60121,0.51705 -0.949665,0.62709 -1.583965,0.50024 -1.71809,-0.34362 -1.60098,1.17973 -1.74631,-22.715871 l -0.13233,-21.752662 -0.6503,-1.311753 c -1.4822,-2.989839 -4.121229,-4.634511 -7.443379,-4.638787 -1.71194,-0.0022 -2.2463,0.116363 -3.62149,0.803556 -1.77423,0.886593 -2.97738,2.09151 -3.81975,3.825371 -0.58801,1.210306 -0.50261,1.983071 0.21916,1.983071 0.94162,0 4.27742,1.877809 5.82253,3.277651 2.46994,2.237732 3.04277,4.051577 1.59891,5.062897 -1.1206,0.784899 -1.93131,0.503996 -3.68895,-1.278187 -1.89323,-1.919673 -3.82743,-2.96836 -6.26763,-3.398191 -4.52215,-0.796563 -9.15559,1.692605 -11.30744,6.074563 -0.67362,1.371737 -0.73958,1.76563 -0.73958,4.416475 0,2.758802 0.0459,3.004917 0.88151,4.724505 1.23929,2.550364 1.07083,3.048773 -1.48793,4.402315 -2.14737,1.135914 -4.31167,3.455905 -5.11436,5.482257 -0.47173,1.19083 -0.60882,2.06877 -0.61775,3.95585 -0.006,1.33394 0.0753,2.51217 0.18147,2.61829 0.10612,0.10612 0.92194,-0.13422 1.81294,-0.53407 2.18302,-0.97969 3.30221,-0.99337 4.11341,-0.0503 0.34517,0.40128 0.62759,1.02604 0.62759,1.38834 0,0.74571 -1.07524,1.95759 -1.73688,1.95759 -0.93065,0 -3.63549,1.73623 -4.99868,3.20864 -1.98086,2.13956 -2.62088,3.8662 -2.63555,7.11011 -0.01,2.21988 0.0773,2.70674 0.74725,4.16719 0.41724,0.9095 0.83575,1.65364 0.93003,1.65364 0.0943,0 0.37078,-0.33752 0.61446,-0.75004 0.74022,-1.25309 2.76341,-2.95412 3.51361,-2.95412 0.93641,0 1.97826,1.10374 1.97826,2.09581 0,0.57323 -0.34504,1.18544 -1.22918,2.18093 -0.67605,0.7612 -1.53926,2.045091 -1.91823,2.853091 -0.60532,1.29059 -0.68905,1.80671 -0.68905,4.24724 0,2.49634 0.0765,2.94372 0.75429,4.41072 0.41486,0.89793 1.02038,1.88257 1.34559,2.1881 l 0.59131,0.5555 0.31757,-1.05992 c 0.73017,-2.4371 2.61534,-3.26589 3.93608,-1.73044 0.72396,0.84165 0.70392,1.20278 -0.20568,3.70583 -0.79289,2.18191 -0.65442,5.17303 0.33992,7.34289 0.75124,1.63934 2.79932,3.98781 4.18844,4.80276 0.84477,0.4956 0.85547,0.4956 0.64244,0 -0.53921,-1.25442 -0.46767,-2.18075 0.22166,-2.87008 1.28253,-1.28253 2.4572,-0.83096 3.83462,1.47412 0.84273,1.4103 2.78182,3.09025 4.49262,3.89224 1.32709,0.62212 1.82434,0.7039 4.27968,0.7039 2.44649,0 2.95183,-0.0824 4.23333,-0.69058 2.25354,-1.06943 3.811119,-2.62084 4.955029,-4.93537 l 0.9981,-2.01952 V 109.70779 97.390959 l -0.84485,-1.78349 c -1.45806,-3.07799 -4.285869,-5.35937 -7.496479,-6.04793 -0.73769,-0.1582 -1.57369,-0.53713 -1.85778,-0.84207 -0.7119,-0.76413 -0.66692,-2.07318 0.0958,-2.78977 0.78736,-0.73967 1.93215,-0.73146 4.16544,0.0299 4.645809,1.58382 7.970089,4.96076 9.562104,9.71358 0.54967,1.64098 0.58289,2.2957 0.72485,14.287491 l 0.14879,12.5677 0.75428,1.45521 c 1.70783,3.2949 4.73826,5.41161 8.3232,5.81364 2.29758,0.25767 2.96106,0.76547 2.96106,2.26626 0,1.17992 -1.00282,1.97567 -2.48308,1.97036 -3.78965,-0.0136 -8.44566,-2.38912 -10.83594,-5.52852 l -1.015895,-1.33427 -1.03807,1.31324 c -3.49286,4.41881 -9.575369,6.52779 -14.789519,5.12795 z m -8.64734,-18.25194 c -0.64615,-0.64615 -0.67694,-0.79524 -0.53286,-2.57969 0.18287,-2.26482 0.9511,-4.61579 2.16945,-6.63906 l 0.89393,-1.48451 -1.11993,-1.63652 c -0.78039,-1.14037 -1.63794,-1.97479 -2.82857,-2.75233 -3.36386,-2.196761 -3.78251,-2.958731 -2.39045,-4.350781 0.97182,-0.97183 1.44798,-0.96841 3.33453,0.024 2.38596,1.25509 4.82856,3.56392 6.08309,5.749951 0.0205,0.0358 0.86342,-0.35879 1.87308,-0.87681 1.00966,-0.51802 2.33064,-1.008241 2.9355,-1.089371 0.93799,-0.12581 1.20001,-0.0472 1.78133,0.534071 0.74324,0.74324 0.89792,1.90382 0.35084,2.63245 -0.1819,0.24226 -0.86261,0.62605 -1.51268,0.85286 -1.83443,0.64003 -3.22053,1.55217 -4.60035,3.02731 -1.60833,1.71943 -2.49173,3.65098 -2.80279,6.12828 -0.20214,1.60989 -0.36743,2.05919 -0.93813,2.55008 -0.91267,0.78505 -1.85237,0.75372 -2.69599,-0.0899 z m 2.63135,-37.289521 c -0.8503,-0.59557 -0.99755,-1.97475 -0.4898,-4.58744 0.47448,-2.4415 1.46445,-4.838522 2.80002,-6.779711 l 0.82502,-1.199119 -0.72181,-1.326202 c -0.937,-1.721567 -2.92121,-3.561278 -4.73818,-4.393115 -2.22656,-1.019352 -2.79334,-2.234242 -1.69423,-3.631538 0.39254,-0.499026 0.79407,-0.69714 1.41295,-0.69714 2.07815,0 6.32452,3.052257 8.1363,5.848304 0.46168,0.712494 0.88126,1.295445 0.93241,1.295445 0.0511,0 0.56466,-0.297757 1.14116,-0.661683 2.51503,-1.587667 7.97573,-2.742303 9.389929,-1.985449 1.1997,0.642064 1.37862,2.518322 0.32364,3.393881 -0.21745,0.18047 -1.339349,0.43579 -2.493119,0.567378 -2.37047,0.270359 -3.84274,0.779952 -5.77366,1.998427 -3.26639,2.061202 -5.66817,6.289462 -5.67734,9.994782 -0.002,0.99176 -0.14494,1.4106 -0.65257,1.91823 -0.74595,0.74595 -1.86199,0.84643 -2.72072,0.24495 z m 41.015344,-0.19083 c -0.39321,-0.42789 -0.62895,-1.22778 -0.83826,-2.84427 -0.38172,-2.94803 -1.61178,-5.49317 -3.63048,-7.511864 -1.81999,-1.819992 -4.64826,-3.288591 -6.71812,-3.488428 -3.39736,-0.328007 -4.23333,-0.780375 -4.23333,-2.290792 0,-1.245555 1.04272,-2.054748 2.64772,-2.054748 2.06099,0 4.73466,0.709231 7.0404,1.867569 1.14642,0.575932 2.12465,0.926423 2.17383,0.77887 0.27929,-0.837856 2.59423,-3.548835 3.79918,-4.449135 3.58525,-2.67879 5.92075,-3.127079 6.69523,-1.285127 0.58259,1.385573 0.086,2.177976 -2.03416,3.245655 -2.14567,1.080542 -3.88254,2.711264 -4.7904,4.497633 l -0.6428,1.264822 0.8582,1.207042 c 1.84955,2.60133 3.03822,6.125793 3.03822,9.008453 0,1.22485 -0.11202,1.60429 -0.61237,2.07435 -0.80648,0.75765 -2.04652,0.74863 -2.75286,-0.02 z"
       id="path316" /></g></svg>
