<?xml version="1.0" encoding="UTF-8" standalone="no"?>
<!-- Created with Inkscape (http://www.inkscape.org/) -->

<svg
   width="112.67605mm"
   height="124.82229mm"
   viewBox="0 0 112.67605 124.82229"
   version="1.1"
   id="svg5"
   xml:space="preserve"
   xmlns="http://www.w3.org/2000/svg"
   xmlns:svg="http://www.w3.org/2000/svg"><defs
     id="defs2"><rect
       x="401.13806"
       y="430.53589"
       width="365.10202"
       height="434.32916"
       id="rect407" /><rect
       x="401.13806"
       y="430.53589"
       width="365.10202"
       height="434.32916"
       id="rect407-3" /></defs><g
     id="layer1"
     transform="translate(-46.923501,-52.065472)"><path
       id="path248"
       style="fill:#000000;fill-opacity:1;stroke-width:0.191443"
       d="m 111.27965,91.433761 c -2.19113,0.0222 -4.38041,0.893744 -6.13967,2.610309 l -1.21787,1.188667 -1.08583,-1.08099 c -3.427439,-3.411749 -8.626007,-3.615976 -12.25844,-0.481971 -1.094844,0.944618 -2.260711,2.759686 -2.633854,4.100355 l -0.295769,1.061914 -1.338241,0.210513 c -1.973414,0.310752 -3.989254,1.374432 -5.524221,2.914662 -1.538798,1.54408 -2.364057,2.95911 -2.862692,4.90875 -0.482868,1.88812 -0.48155,3.45636 0.0049,5.3582 0.365703,1.42988 0.368101,1.51432 0.04788,1.68226 -0.117812,0.0617 -0.494167,0.39444 -0.948623,0.82522 -0.617692,0.51307 -1.295655,1.23278 -1.86135,1.97614 -0.0029,0.002 -0.0063,0.008 -0.0091,0.0133 -0.05583,0.0735 -0.107067,0.14664 -0.160407,0.22025 -0.822436,1.10862 -1.359284,2.25936 -1.684117,3.60381 -0.359317,1.48718 -0.282315,4.05916 0.163778,5.46849 l 0.353722,1.11837 -0.210886,0.30923 -0.328672,0.39114 c -1.324929,1.57535 -2.140852,4.12375 -2.118603,6.61828 0.02142,2.40023 0.685261,4.32714 2.179928,6.32926 l 0.742593,0.99499 -0.118902,1.40328 c -0.272753,3.2267 0.880568,6.29971 3.236236,8.62287 1.245276,1.2281 1.342795,1.38655 1.592504,2.59122 0.925647,4.46571 4.79929,7.93384 9.172881,8.21266 0.867951,0.0556 1.744821,0.26156 2.488778,0.58558 0.631767,0.27514 1.579422,0.61234 2.105875,0.74892 1.485261,0.38536 4.311663,0.20245 5.911633,-0.38248 2.032949,-0.74325 4.038429,-2.28895 5.104659,-3.93436 0.12742,-0.1619 0.21783,-0.27374 0.33167,-0.41541 0.1237,0.15362 0.22427,0.27844 0.3642,0.45616 1.06625,1.64542 3.07173,3.19112 5.10468,3.93435 1.59995,0.58492 4.42635,0.76786 5.9116,0.38254 0.52647,-0.13661 1.47411,-0.47383 2.10589,-0.74898 0.74395,-0.32403 1.62081,-0.53022 2.48878,-0.58555 4.37357,-0.27882 8.24721,-3.74698 9.17287,-8.21265 0.24972,-1.20471 0.34723,-1.36314 1.5925,-2.59124 2.35567,-2.32317 3.50901,-5.39583 3.23625,-8.62248 l -0.11879,-1.40369 0.74259,-0.99461 c 1.49464,-2.00212 2.1585,-3.92941 2.17991,-6.32963 0.022,-2.49452 -0.79366,-5.04291 -2.11862,-6.61829 l -0.0322,-0.0382 -0.48982,-0.71793 0.33617,-1.06268 c 0.44608,-1.40932 0.52307,-3.98126 0.16371,-5.4685 -0.18264,-0.75594 -0.43144,-1.45042 -0.75943,-2.11112 -0.11271,-0.25159 -0.23351,-0.4934 -0.36344,-0.72052 -0.7179,-1.25477 -2.07499,-2.75665 -3.0792,-3.42918 -0.21402,-0.19025 -0.39127,-0.33919 -0.46178,-0.37616 -0.32024,-0.16795 -0.31788,-0.25239 0.0477,-1.68224 0.4864,-1.90186 0.48805,-3.47007 0.006,-5.35819 -0.0402,-0.15601 -0.0858,-0.3035 -0.13009,-0.45319 -0.0234,-0.0864 -0.0474,-0.1713 -0.0728,-0.25388 -0.0309,-0.0999 -0.0614,-0.20032 -0.0955,-0.2943 -0.0414,-0.11413 -0.0857,-0.2274 -0.13113,-0.33988 -0.0237,-0.0598 -0.0508,-0.11705 -0.0752,-0.17603 -0.0281,-0.0652 -0.0564,-0.13021 -0.0861,-0.19482 -0.1862,-0.4192 -0.40146,-0.82017 -0.64987,-1.20925 -0.008,-0.0133 -0.0163,-0.025 -0.024,-0.0373 -0.0838,-0.12954 -0.17023,-0.25912 -0.26174,-0.38698 -1.6908,-2.43366 -4.38984,-4.191681 -7.30256,-4.612626 l -0.91189,-0.131524 -0.2797,-1.005824 c -0.12994,-0.467304 -0.36072,-0.992417 -0.64687,-1.51809 -0.18902,-0.369889 -0.40375,-0.719268 -0.6596,-1.060431 -0.41522,-0.591587 -0.87611,-1.132155 -1.32776,-1.521824 -0.6997,-0.603691 -1.45779,-1.082328 -2.24984,-1.439204 -1.19815,-0.569993 -2.48076,-0.85057 -3.76345,-0.837571 z m 0.11235,3.118073 c 0.46135,-0.0014 0.80379,0.0098 1.1034,0.04974 0.13901,0.02152 0.27373,0.04958 0.40643,0.08072 0.3351,0.08624 0.6603,0.223701 1.11056,0.448709 0.28222,0.141029 0.54229,0.297234 0.78746,0.463644 0.11707,0.08952 0.23382,0.17997 0.34922,0.281566 0.66841,0.588326 1.31123,1.443936 1.6778,2.19413 0.15911,0.384607 0.23148,0.687279 0.21123,0.897395 -0.10823,0.148696 -0.40654,0.278849 -1.05895,0.515983 -1.6344,0.594129 -2.90627,1.448079 -4.21588,2.830529 -0.95982,1.01327 -1.28522,1.68629 -1.04882,2.3026 0.0646,0.29212 0.23929,0.54581 0.53358,0.75192 0.81822,0.57312 1.39536,0.36668 2.71275,-0.97029 1.37236,-1.3928 2.6563,-2.08748 4.48849,-2.42821 2.38684,-0.44389 4.98814,0.52808 6.76037,2.35118 0.99226,1.07563 1.66359,2.4159 1.92902,3.85468 0.0231,0.35863 0.0304,0.79524 0.0304,1.39994 0,0.57028 -0.006,0.98338 -0.0224,1.3244 -0.12383,0.69626 -0.34439,1.39173 -0.67566,2.06887 -0.25256,0.51623 -0.39864,0.96788 -0.44981,1.35136 -0.008,0.0517 -0.0163,0.10069 -0.02,0.14884 -2.4e-4,0.002 -7.1e-4,0.007 -10e-4,0.009 -0.008,0.0971 -0.008,0.19008 0.006,0.27633 0.0274,0.27856 0.12968,0.49988 0.30925,0.65399 0.10812,0.0926 0.35768,0.24578 0.64759,0.40608 0.18687,0.11318 0.4006,0.23257 0.64726,0.36305 0.91558,0.48434 1.83347,1.26668 2.55346,2.12721 0.35785,0.44792 0.66929,0.91677 0.88806,1.37452 0.43635,0.91314 0.56616,1.49021 0.63341,2.81481 0.0462,0.91642 0.0294,1.88653 -0.0382,2.15562 -0.0298,0.11839 -0.0541,0.20612 -0.0806,0.2681 -0.11154,0.006 -0.36052,-0.0605 -0.66109,-0.16759 -0.82364,-0.45591 -2.51092,-0.95702 -2.90192,-0.83831 -0.66216,0.20102 -1.00431,0.60963 -1.0552,1.24737 -0.22179,0.74856 0.27328,1.43149 1.39656,1.81424 1.1305,0.38518 2.20285,1.06143 3.07918,1.89499 0.41364,0.42238 0.80511,0.8987 1.17187,1.44106 0.10717,0.1584 0.17534,0.25008 0.26286,0.37579 0.14011,0.24984 0.26297,0.50418 0.36345,0.7613 0.6071,1.55358 0.61606,4.1207 0.0197,5.59896 -0.62352,1.54596 -0.76326,1.7147 -1.03012,1.24441 -0.11958,-0.21056 -0.66452,-0.83519 -1.21149,-1.38799 -1.14157,-1.15371 -1.74871,-1.28371 -2.49735,-0.53505 -0.73848,0.73843 -0.62493,1.44855 0.4195,2.62453 0.48916,0.55078 1.11376,1.47972 1.38797,2.06438 0.43797,0.93384 0.49842,1.3073 0.49842,3.07321 0,1.80627 -0.0549,2.12988 -0.54553,3.19136 -0.3002,0.6497 -0.73835,1.36246 -0.97366,1.58354 l -0.42814,0.40157 -0.22959,-0.76689 c -0.52833,-1.76341 -1.89245,-2.36288 -2.84811,-1.25187 -0.52384,0.60898 -0.50933,0.87019 0.14886,2.68134 0.57371,1.57874 0.47345,3.74292 -0.24603,5.31293 -0.5436,1.18622 -2.02546,2.88553 -3.03059,3.47522 -0.61127,0.35857 -0.61891,0.35857 -0.46478,0 0.39016,-0.90769 0.33837,-1.57796 -0.16026,-2.07676 -0.928,-0.92799 -1.7778,-0.60109 -2.77446,1.0668 -0.60978,1.02042 -2.01294,2.23603 -3.25084,2.81631 -0.96023,0.45015 -1.32012,0.5093 -3.09674,0.5093 -1.80726,0 -2.1188,-0.0533 -3.08631,-0.52835 -1.67952,-0.82483 -2.74008,-1.87984 -3.5619,-3.5421 l -0.6693,-1.35282 -0.11035,-8.88012 c -0.002,-0.28196 -0.007,-0.42336 -0.008,-0.68875 -0.0275,-4.9576 0.0207,-7.384 0.17129,-8.07695 0.65587,-3.01656 2.8217,-5.17767 6.02041,-6.00768 0.63068,-0.1637 1.25528,-0.44596 1.38797,-0.62743 0.39137,-0.53527 0.2932,-1.48146 -0.20191,-1.94661 -0.56971,-0.53521 -1.39784,-0.52922 -3.01378,0.0217 -2.53889,0.86555 -4.57958,2.53035 -5.88466,4.73526 -1.30392,-2.22555 -3.35455,-3.90502 -5.909369,-4.77603 -1.61591,-0.55088 -2.444405,-0.55688 -3.014103,-0.0217 -0.495123,0.46517 -0.593311,1.41134 -0.201929,1.94661 0.132865,0.18146 0.757306,0.4638 1.38799,0.62746 3.198712,0.82995 5.364531,2.99109 6.020401,6.00766 0.15172,0.69869 0.19991,3.15085 0.17093,8.19434 -0.003,0.25238 -0.005,0.3856 -0.008,0.65287 l -0.10921,8.79635 -0.67005,1.35507 c -0.82182,1.66226 -1.882779,2.7173 -3.562299,3.54209 -0.9675,0.47514 -1.27904,0.52831 -3.08629,0.52831 -1.776596,0 -2.136527,-0.059 -3.096764,-0.50925 -1.237886,-0.58027 -2.640666,-1.79587 -3.250442,-2.81631 -0.996654,-1.6679 -1.846824,-1.99479 -2.774825,-1.06678 -0.498777,0.49878 -0.550562,1.16906 -0.160407,2.07671 0.154152,0.35863 0.146471,0.35863 -0.464777,0 -1.005126,-0.58966 -2.487008,-2.28899 -3.03058,-3.47517 -0.719477,-1.57003 -0.819747,-3.73419 -0.246037,-5.31295 0.658157,-1.81113 0.672653,-2.07235 0.148808,-2.68135 -0.955642,-1.111 -2.319779,-0.51152 -2.84811,1.25188 l -0.229584,0.76687 -0.427761,-0.40195 c -0.235317,-0.22105 -0.673493,-0.93341 -0.973674,-1.58314 -0.490418,-1.06148 -0.545913,-1.38508 -0.545913,-3.19136 0,-1.76588 0.06045,-2.13941 0.498428,-3.07322 0.274217,-0.58463 0.898802,-1.5136 1.387973,-2.06439 1.044407,-1.17596 1.157966,-1.88606 0.419531,-2.62449 -0.748661,-0.74867 -1.355437,-0.61867 -2.497002,0.53507 -0.546963,0.55279 -1.092358,1.17737 -1.211861,1.38798 -0.266869,0.47028 -0.4066,0.30151 -1.030135,-1.24444 -0.596259,-1.47825 -0.586923,-4.04536 0.0202,-5.59897 0.05799,-0.14837 0.125132,-0.29566 0.196678,-0.44197 0.126475,-0.17482 0.254721,-0.35493 0.42963,-0.61356 1.093587,-1.61719 2.385483,-2.69305 3.934705,-3.27589 0.967443,-0.36397 1.420155,-0.62885 1.607836,-1.04135 0.169067,-0.2865 0.201724,-0.6059 0.09722,-0.9374 -0.0785,-0.57935 -0.421543,-0.95294 -1.047711,-1.14305 -0.05917,-0.0178 -0.153642,-0.0191 -0.265107,-0.009 -0.500687,-0.0469 -1.149062,0.1294 -2.04606,0.53208 -0.593178,0.26622 -1.135327,0.43168 -1.27879,0.3971 -0.01729,-0.0535 -0.03368,-0.10176 -0.05347,-0.1806 -0.06752,-0.26909 -0.08499,-1.23918 -0.03853,-2.1556 0.0672,-1.3246 0.197049,-1.90169 0.633411,-2.81485 0.669484,-1.40101 2.15681,-2.92654 3.444129,-3.53276 0.526479,-0.24791 1.107988,-0.58006 1.292251,-0.73809 0.19738,-0.16936 0.297163,-0.42288 0.310725,-0.74146 0.02982,-0.20405 -0.005,-0.43676 -0.09236,-0.71457 -0.07827,-0.29776 -0.199655,-0.62486 -0.376158,-0.98563 -0.324595,-0.66346 -0.542129,-1.34449 -0.667437,-2.02662 -0.02486,-0.36225 -0.03066,-0.80611 -0.03066,-1.44817 0,-0.5348 0.0063,-0.93727 0.0232,-1.2732 0.54461,-3.053 2.914463,-5.67515 6.300839,-6.27166 2.521189,-0.44409 4.762594,0.33958 6.91556,2.4181 0.13729,0.13287 0.261253,0.24382 0.385136,0.35486 0.02777,0.0259 0.05554,0.0516 0.08264,0.0761 0.02963,0.026 0.05886,0.0507 0.08795,0.0755 0.321985,0.28529 0.599462,0.48696 0.846924,0.59751 0.581843,0.28963 1.000691,0.17199 1.448171,-0.30436 0.0541,-0.0576 0.10192,-0.11493 0.14631,-0.17235 0.008,-0.0106 0.0164,-0.0228 0.0247,-0.034 0.40367,-0.54676 0.35639,-1.09777 -0.19106,-1.85947 -0.28784,-0.45379 -0.72209,-0.94897 -1.305714,-1.47773 -0.228276,-0.20679 -0.518427,-0.42832 -0.828987,-0.64946 -0.05222,-0.0401 -0.10563,-0.0757 -0.158149,-0.1145 -0.01635,-0.0128 -0.03149,-0.0224 -0.04717,-0.034 -0.0011,-8.2e-4 -0.004,-0.001 -0.004,-0.002 -0.395899,-0.28813 -0.803703,-0.5422 -1.232433,-0.76577 -0.05275,-0.0275 -0.104029,-0.0571 -0.157511,-0.0838 -0.727571,-0.398511 -1.391711,-0.687968 -1.729719,-0.71607 -0.241776,-0.102733 -0.387788,-0.18758 -0.459917,-0.27446 -0.03837,-0.13979 -0.01938,-0.336657 0.04934,-0.582173 0.317289,-0.816463 1.054055,-1.848051 1.823577,-2.525415 1.17235,-1.031945 2.413485,-1.429751 4.166173,-1.335997 1.67667,0.08968 2.88967,0.64893 3.985169,1.837419 5.7e-4,5.87e-4 9.5e-4,8.64e-4 10e-4,0.0016 0.29515,0.348488 0.56475,0.742826 0.80689,1.189408 l 0.28418,0.523857 c 0.35928,1.551324 0.34398,5.142571 0.41171,16.293691 l 0.0959,15.76276 0.38887,0.33468 c 0.12755,0.32169 0.31214,0.38104 0.54891,0.41879 0.24069,0.13141 0.45688,0.15013 0.76615,0.0882 0.42819,-0.0858 0.6987,-0.0133 0.87383,-0.58331 l 0.34741,-0.29913 0.0957,-15.76277 c 0.066,-10.84735 0.0532,-14.538335 0.38326,-16.159826 l 0.3126,-0.576211 c 1.12949,-2.083074 2.82228,-3.091363 5.20266,-3.098261 z M 86.236864,107.33374 c -1.149137,0 -1.886525,1.62377 -1.072013,2.3609 0.0612,0.0556 0.18396,0.13882 0.327924,0.23108 0.255442,0.20226 0.593925,0.40587 1.03088,0.62591 0.615052,0.30975 1.180142,0.68308 1.682621,1.09933 0.740975,0.65145 1.396494,1.4393 1.77834,2.18778 l 0.416167,0.81627 -0.596396,0.8312 c -0.965669,1.34468 -1.730995,3.18444 -2.052419,4.9349 -0.343555,1.87106 -0.23223,2.85334 0.370551,3.27554 0.09754,0.0685 0.200533,0.1197 0.305485,0.16305 0.551547,0.28174 1.225245,0.19427 1.635133,-0.26022 0.04862,-0.054 0.0939,-0.12199 0.137214,-0.19745 0.259299,-0.29783 0.346409,-0.58874 0.357839,-1.14941 0.03983,-0.21047 0.07779,-0.44043 0.113673,-0.70409 0.606048,-4.45637 3.810008,-7.59236 8.220508,-8.04627 1.06614,-0.10977 1.508649,-0.24854 1.866569,-0.58481 0.53083,-0.49868 0.60128,-1.17862 0.21352,-1.75069 -0.39229,-0.85117 -1.631349,-0.97833 -3.960499,-0.46774 -0.757852,0.16617 -2.041385,0.6327 -2.852582,1.03684 l -1.322182,0.65848 c -0.104571,0.0211 -0.172632,0.0163 -0.186198,-0.0242 -0.07135,-0.21412 -0.300341,-0.56218 -0.599766,-0.95421 -0.330117,-0.49423 -0.793675,-1.01421 -1.328119,-1.51363 -0.365226,-0.36843 -0.727045,-0.70103 -1.029391,-0.9247 -0.981944,-0.72638 -1.82548,-1.20246 -2.523923,-1.43469 -0.352049,-0.13154 -0.671815,-0.20903 -0.932918,-0.20903 z m 35.260956,0.003 c -0.81182,0.036 -1.93028,0.57112 -3.32113,1.59996 -1.02565,0.75875 -2.73175,2.71586 -2.95727,3.39258 -0.0426,0.12742 -0.57009,-0.0629 -1.32329,-0.47676 -1.46746,-0.80661 -3.82311,-1.45564 -5.28306,-1.45564 -0.83945,0 -1.11835,0.0874 -1.5009,0.46999 -0.49421,0.49421 -0.59029,1.12098 -0.28942,1.64747 0.17553,0.57016 0.78035,0.81796 2.26405,0.98525 2.19216,0.2472 4.26764,1.29468 5.74036,2.80811 1.25395,1.36147 2.09108,3.13905 2.37137,5.20004 0.0351,0.25948 0.0727,0.48496 0.11177,0.69289 0.006,0.70139 0.10682,0.99696 0.46928,1.35955 0.53973,0.53975 1.34733,0.61241 1.96868,0.17725 0.60277,-0.42222 0.71373,-1.40447 0.37017,-3.27553 -0.2894,-1.57598 -0.94,-3.22111 -1.77123,-4.51537 -0.0799,-0.12702 -0.16141,-0.249 -0.24381,-0.36384 -0.0133,-0.0179 -0.0245,-0.038 -0.0373,-0.0558 l -0.5964,-0.83122 0.41616,-0.81587 c 0.6349,-1.24453 2.02119,-2.60517 3.31102,-3.24971 0.6387,-0.31913 1.3177,-0.72185 1.50877,-0.89476 0.49882,-0.45146 0.41386,-1.23434 0.009,-1.77421 -0.25711,-0.43975 -0.66599,-0.64878 -1.21819,-0.62446 z m -37.076966,28.74881 c -0.344661,-0.001 -0.606377,0.17305 -0.95797,0.52461 -1.007247,1.00723 -0.704252,1.55848 1.729733,3.14798 0.868014,0.56686 1.481502,1.16611 2.059896,2.0113 l 0.823735,1.20362 -0.394855,0.5549 c -0.604152,0.84847 -1.452647,2.83938 -1.691966,3.97059 -0.359728,1.70037 -0.282571,2.66801 0.255387,3.20596 0.585612,0.58563 1.272694,0.59957 1.924539,0.0387 0.414768,-0.35678 0.531936,-0.67883 0.679778,-1.86662 0.362697,-2.91377 2.218106,-5.33653 4.899024,-6.39692 1.490296,-0.58944 1.79032,-0.88483 1.79032,-1.76189 0,-0.44765 -0.146152,-0.73476 -0.526479,-1.03462 -0.701676,-0.55312 -1.639784,-0.42255 -3.379441,0.47001 -0.730564,0.37483 -1.340586,0.66044 -1.355443,0.63452 -0.907739,-1.58174 -2.675321,-3.2524 -4.401727,-4.16053 -0.682525,-0.35905 -1.109865,-0.53933 -1.454531,-0.54181 z m 39.028876,0.0406 c -0.34467,0.001 -0.772,0.18279 -1.45453,0.54178 -1.7264,0.90814 -3.49401,2.57883 -4.40174,4.16058 -0.0144,0.0259 -0.62488,-0.25969 -1.35543,-0.63455 -1.73967,-0.89258 -2.6778,-1.02274 -3.37943,-0.46962 -0.3804,0.29982 -0.5265,0.58658 -0.5265,1.03424 0,0.87704 0.30005,1.17243 1.79031,1.7619 2.68093,1.0604 4.53636,3.48312 4.89904,6.39693 0.14789,1.18777 0.265,1.50983 0.67979,1.86659 0.65184,0.56069 1.33892,0.54678 1.92452,-0.0387 0.53799,-0.53798 0.61512,-1.50561 0.25539,-3.20596 -0.23931,-1.13123 -1.08741,-3.12214 -1.69157,-3.9706 l -0.39524,-0.5549 0.82375,-1.20363 c 0.57836,-0.8452 1.19186,-1.44444 2.05987,-2.0113 2.43397,-1.5895 2.73699,-2.14074 1.72975,-3.14798 -0.35159,-0.3516 -0.61334,-0.52709 -0.95798,-0.52461 z" /><rect
       style="fill:none;fill-opacity:1;stroke:#000000;stroke-width:3.98596;stroke-linecap:round;stroke-linejoin:round;stroke-dasharray:none;stroke-dashoffset:2.26772;stroke-opacity:1;paint-order:fill markers stroke"
       id="rect9138"
       width="98.431061"
       height="105.46185"
       x="54.468189"
       y="65.947495" /><path
       style="fill:none;fill-opacity:1;stroke:#000000;stroke-width:3.98596;stroke-linecap:round;stroke-linejoin:round;stroke-dasharray:none;stroke-dashoffset:2.26772;stroke-opacity:1;paint-order:fill markers stroke"
       d="M 54.468189,83.524468 H 152.89925"
       id="path9140" /><path
       style="fill:none;fill-opacity:1;stroke:#000000;stroke-width:3.98596;stroke-linecap:round;stroke-linejoin:round;stroke-dasharray:none;stroke-dashoffset:2.26772;stroke-opacity:1;paint-order:fill markers stroke"
       d="M 79.075954,65.947492 V 55.401308"
       id="path9142" /><path
       style="fill:none;fill-opacity:1;stroke:#000000;stroke-width:3.98596;stroke-linecap:round;stroke-linejoin:round;stroke-dasharray:none;stroke-dashoffset:2.26772;stroke-opacity:1;paint-order:fill markers stroke"
       d="M 128.29148,65.947492 V 55.401308"
       id="path9144" /></g></svg>
