<?xml version="1.0" encoding="UTF-8" standalone="no"?>
<!-- Created with Inkscape (http://www.inkscape.org/) -->

<svg
   width="98.494087mm"
   height="102.38033mm"
   viewBox="0 0 98.494087 102.38033"
   version="1.1"
   id="svg5"
   xml:space="preserve"
   inkscape:version="1.2.1 (9c6d41e410, 2022-07-14)"
   sodipodi:docname="women.svg"
   xmlns:inkscape="http://www.inkscape.org/namespaces/inkscape"
   xmlns:sodipodi="http://sodipodi.sourceforge.net/DTD/sodipodi-0.dtd"
   xmlns="http://www.w3.org/2000/svg"
   xmlns:svg="http://www.w3.org/2000/svg"><sodipodi:namedview
     id="namedview7"
     pagecolor="#ffffff"
     bordercolor="#000000"
     borderopacity="0.25"
     inkscape:showpageshadow="2"
     inkscape:pageopacity="0.0"
     inkscape:pagecheckerboard="0"
     inkscape:deskcolor="#d1d1d1"
     inkscape:document-units="mm"
     showgrid="false"
     inkscape:zoom="1.0544998"
     inkscape:cx="292.55578"
     inkscape:cy="237.07924"
     inkscape:window-width="1920"
     inkscape:window-height="1017"
     inkscape:window-x="1912"
     inkscape:window-y="-8"
     inkscape:window-maximized="1"
     inkscape:current-layer="layer1" /><defs
     id="defs2" /><g
     inkscape:label="Ebene 1"
     inkscape:groupmode="layer"
     id="layer1"
     transform="translate(-54.339847,-33.484461)"><path
       style="fill:#000000;stroke-width:0.256098"
       d="m 86.821467,133.50284 c -0.300852,-0.14898 -0.664561,-0.52891 -0.80825,-0.84426 -0.143689,-0.31536 -1.44136,-6.61323 -2.883718,-13.99527 -1.442358,-7.38203 -2.668063,-13.4747 -2.723788,-13.53928 -0.05572,-0.0646 -2.026844,-0.21311 -4.380262,-0.33008 -4.833079,-0.24023 -5.493488,-0.47124 -5.641676,-1.97345 -0.06316,-0.64024 0.22136,-1.32879 1.22601,-2.967035 1.896291,-3.092213 4.171905,-8.011765 5.225823,-11.297478 0.930126,-2.899773 2.298626,-9.071262 2.15843,-9.733813 -0.04224,-0.199602 -1.74783,2.436244 -3.790211,5.857434 -2.04238,3.421194 -3.967479,6.47965 -4.277997,6.796571 -0.310519,0.316921 -0.8597,0.57622 -1.220403,0.57622 -0.716318,0 -6.472826,-2.788289 -7.145721,-3.461185 -0.716621,-0.716619 -0.506875,-1.894353 0.62465,-3.507455 1.538545,-2.193345 2.802197,-5.083268 4.810836,-11.002204 2.082374,-6.136212 3.167172,-8.60447 4.746269,-10.799259 2.275013,-3.162043 4.785503,-5.01291 8.480666,-6.252401 1.924113,-0.645415 2.329289,-0.686898 6.658547,-0.681728 5.024615,0.006 8.779269,0.513003 9.65268,1.303426 0.724388,0.655567 0.54293,2.310922 -0.323985,2.955487 -0.636869,0.473524 -0.757889,0.476211 -3.585374,0.07963 -1.609433,-0.225743 -4.30918,-0.410046 -5.999426,-0.409564 -4.906623,0.0013 -7.550098,0.960472 -10.261136,3.722843 -2.064328,2.103416 -3.45266,4.950596 -5.749097,11.790199 -0.993143,2.95793 -2.378076,6.555118 -3.077628,7.993751 -0.699552,1.438632 -1.271913,2.674545 -1.271913,2.746475 0,0.07193 0.342299,0.307789 0.760665,0.524135 0.722526,0.373631 0.779086,0.36433 1.128063,-0.185497 0.202069,-0.318371 2.692289,-4.439527 5.533823,-9.15813 2.841536,-4.718603 5.352278,-8.723333 5.57943,-8.8994 0.686866,-0.532397 1.816009,-0.37909 2.539959,0.344861 l 0.664985,0.664984 -0.144687,4.392949 c -0.281122,8.535359 -2.142707,15.849728 -5.997102,23.56326 -0.764045,1.529029 -1.346715,2.822514 -1.294822,2.874404 0.05189,0.0519 1.572041,0.17334 3.378107,0.2699 2.827081,0.15114 3.371718,0.25121 3.916228,0.71957 0.579777,0.49871 0.853623,1.6716 3.28694,14.07809 1.459966,7.44373 2.714663,13.59424 2.788216,13.66781 0.07356,0.0736 1.143695,0.0297 2.378085,-0.0975 l 2.244337,-0.23128 1.740975,-9.60367 c 1.598224,-8.81618 1.79364,-9.65092 2.383186,-10.17989 0.800341,-0.71811 1.625607,-0.73311 2.499839,-0.0454 0.47733,0.37547 0.67478,0.77012 0.67478,1.3487 0,0.67683 -3.265576,19.24109 -3.711742,21.10064 -0.220408,0.91863 -1.317313,1.26576 -4.995578,1.58095 -1.901525,0.16293 -3.860671,0.34522 -4.353667,0.40507 -0.492985,0.0598 -1.142494,-0.0131 -1.443346,-0.16206 z m 24.492143,-1.3001 c -0.35213,-0.18816 -0.76809,-0.62686 -0.92434,-0.97487 -0.15625,-0.34801 -0.76742,-6.16099 -1.35814,-12.91773 -0.59073,-6.75675 -1.09672,-12.30752 -1.12444,-12.33505 -0.0277,-0.0276 -2.23371,-0.13469 -4.90221,-0.23813 -4.597292,-0.1782 -4.882782,-0.21903 -5.442081,-0.77833 -0.75271,-0.75271 -0.746583,-1.49669 0.03697,-4.49098 0.785949,-3.003304 1.391824,-4.492211 4.362281,-10.720132 3.29279,-6.903709 4.40396,-10.538116 4.18896,-13.701234 l -0.087,-1.28049 -1.94737,3.457321 c -1.07105,1.901527 -2.67398,4.840249 -3.56207,6.530495 -2.092608,3.982717 -3.644053,6.391527 -4.461653,6.927232 -1.383644,0.906602 -4.260978,-0.495959 -5.262745,-2.565337 -1.066329,-2.202744 -0.810834,-3.306866 3.320538,-14.349711 2.00247,-5.352444 4.057848,-10.530118 4.567492,-11.50594 1.818988,-3.482777 4.755748,-5.661607 8.477118,-6.289294 1.12778,-0.190227 4.80737,-0.262354 10.66714,-0.209105 8.39794,0.07632 9.02592,0.114235 10.25976,0.619522 1.72571,0.706722 2.96557,1.67535 4.06963,3.17938 1.12377,1.530878 13.43927,26.793066 13.43927,27.567319 0,1.029229 -1.0795,1.812909 -4.32505,3.139824 -3.37265,1.37888 -4.57492,1.575068 -5.20231,0.848923 -0.21298,-0.246494 -2.04262,-3.368037 -4.06587,-6.936764 -2.02325,-3.568725 -3.71508,-6.379225 -3.75965,-6.245552 -0.0445,0.13367 1.53674,5.381161 3.51398,11.66109 1.97724,6.279932 3.59499,11.581443 3.59499,11.781143 0,0.19971 -0.23886,0.66674 -0.53079,1.03787 -0.52779,0.67098 -0.55081,0.67479 -4.07939,0.67479 h -3.5486 l -0.38466,1.34451 c -1.45071,5.07081 -3.2043,15.01662 -3.84778,21.82348 -0.34207,3.6183 -0.40036,3.86532 -1.04252,4.41769 -0.61193,0.52636 -0.94223,0.58524 -3.29092,0.58661 -1.43589,7.8e-4 -3.53268,0.065 -4.6595,0.14255 -1.45399,0.10008 -2.23466,0.0417 -2.68904,-0.2011 z m 6.84791,-3.93756 c 0.75667,-0.15134 0.76755,-0.17738 0.93582,-2.24086 0.53647,-6.5788 3.36407,-21.17688 4.80874,-24.82621 0.41626,-1.0515 0.92118,-1.206675 3.92627,-1.206675 2.47293,0 2.71101,-0.0411 2.59131,-0.44817 -0.0725,-0.24649 -1.40176,-4.481715 -2.95393,-9.4116 -3.73116,-11.850597 -3.71629,-11.790693 -3.7196,-14.981724 -0.003,-3.250962 0.638,-5.109362 1.95106,-5.653245 1.63183,-0.675924 1.71299,-0.573146 7.29516,9.237585 2.84105,4.993176 5.3003,9.123425 5.46502,9.178329 0.35269,0.117562 2.3035,-0.719547 2.3035,-0.98845 0,-0.419993 -11.027,-22.84369 -11.75103,-23.896031 -0.49014,-0.712393 -1.21803,-1.353031 -1.92757,-1.696515 -1.11471,-0.539622 -1.35252,-0.550147 -10.69722,-0.473497 l -9.55715,0.07839 -1.38878,0.768293 c -2.536,1.402938 -3.01172,2.313584 -7.540165,14.433719 -3.541506,9.478608 -4.089857,11.20469 -3.496759,11.00699 0.306011,-0.102004 0.824772,-1.006375 5.118001,-8.922398 1.031283,-1.901526 2.341603,-4.206407 2.911803,-5.121956 0.57022,-0.91555 1.45664,-2.471345 1.96983,-3.457321 1.0282,-1.975424 1.74918,-2.46392 3.0023,-2.034195 0.91397,0.313425 1.92757,2.374644 2.47473,5.032547 1.06692,5.182704 -0.0238,9.864426 -4.4626,19.154111 -2.48053,5.191399 -4.20625,9.534563 -3.90727,9.833553 0.0849,0.0849 2.03117,0.15427 4.32516,0.15427 4.51568,0 5.27878,0.16715 5.70514,1.24968 0.22121,0.56166 2.33376,23.03626 2.33191,24.80828 -5.1e-4,0.54174 0.10474,0.57621 1.76007,0.57621 0.96836,0 2.10518,-0.0689 2.52625,-0.15311 z M 87.29098,55.031207 c -4.534587,-1.220449 -7.477393,-5.044546 -7.477393,-9.716664 0,-5.286381 3.837071,-9.465648 9.205804,-10.026792 3.966795,-0.414612 8.241043,2.035442 9.909762,5.680411 1.376847,3.007447 1.372937,5.693875 -0.01268,8.72055 -1.951752,4.263191 -7.005869,6.585822 -11.625455,5.342495 z m 5.735443,-4.607958 c 4.053899,-2.506338 3.775,-8.518649 -0.487236,-10.503113 -3.63132,-1.690719 -7.674969,0.213848 -8.644659,4.071655 -0.652081,2.594232 0.90058,5.675206 3.464033,6.873741 1.593279,0.744936 4.058768,0.552545 5.667862,-0.442283 z M 114.45099,55.0347 c -4.02464,-1.083739 -6.83059,-4.163866 -7.45512,-8.18357 -0.86313,-5.555407 2.81885,-10.490779 8.56025,-11.474239 2.97493,-0.509584 6.30017,0.60836 8.57458,2.882766 3.8932,3.893195 3.91075,10.199027 0.0392,14.070609 -1.44314,1.443135 -2.73855,2.171116 -4.83517,2.717214 -1.79236,0.466851 -3.11539,0.463388 -4.88371,-0.01278 z m 5.7218,-4.611451 c 0.7668,-0.474078 1.54014,-1.248951 2.01821,-2.02222 0.67371,-1.089701 0.77507,-1.493312 0.77507,-3.086486 0,-1.593175 -0.10136,-1.996785 -0.77507,-3.086487 -1.11117,-1.797275 -2.77314,-2.764118 -4.95657,-2.883455 -1.47021,-0.08036 -1.87881,0.0038 -3.07869,0.634068 -4.40644,2.31462 -4.40644,8.357126 0,10.671746 1.19988,0.630273 1.60848,0.714423 3.07869,0.634068 1.33438,-0.07293 1.95981,-0.256244 2.93836,-0.861234 z"
       id="path2645" /></g></svg>
