<?xml version="1.0" encoding="UTF-8" standalone="no"?>
<!-- Created with Inkscape (http://www.inkscape.org/) -->

<svg
   width="98.475578mm"
   height="102.38519mm"
   viewBox="0 0 98.475578 102.38519"
   version="1.1"
   id="svg5"
   xml:space="preserve"
   xmlns="http://www.w3.org/2000/svg"
   xmlns:svg="http://www.w3.org/2000/svg"><defs
     id="defs2" /><g
     id="layer1"
     transform="translate(-51.527085,-8.6723301)"><path
       style="fill:#506c00;stroke-width:0.194646;fill-opacity:1"
       d="m 51.997554,105.46663 c -0.583044,-0.58305 -0.627905,-1.51208 -0.113736,-2.35525 0.323453,-0.5304 22.679132,-32.569726 34.965171,-50.110784 2.586934,-3.693416 4.827498,-6.934279 4.979046,-7.201918 0.228316,-0.40323 0.292214,-2.982804 0.372853,-15.053389 l 0.09732,-14.566773 0.546126,-0.469665 0.546136,-0.469664 h 15.18042 15.18042 l 0.47776,0.477768 c 0.34911,0.349108 0.47777,0.688902 0.47777,1.261783 0,0.884701 0.27953,0.561101 -4.52954,5.24367 l -2.87393,2.798324 3.70174,3.732873 c 3.3789,3.407319 3.70173,3.791839 3.70173,4.408947 0,0.904713 -0.44227,1.483617 -1.3196,1.727275 -0.46531,0.129229 -5.4297,0.201514 -13.88765,0.20221 -11.773772,9.67e-4 -13.190481,0.03363 -13.419393,0.309461 -0.193206,0.232797 -0.263205,1.413457 -0.285593,4.8175 -0.01637,2.480017 0.03824,4.750092 0.121235,5.044605 0.12377,0.439177 8.844851,13.187094 9.021521,13.187094 0.0298,0 1.21107,-1.654259 2.62512,-3.676133 2.75367,-3.937383 3.15314,-4.406114 3.90842,-4.586163 0.85264,-0.203262 1.58325,0.506688 3.81351,3.705652 1.18747,1.703238 9.31489,13.326447 18.06092,25.829358 8.74606,12.502908 16.07341,23.013799 16.283,23.357549 0.53148,0.87165 0.49458,1.79587 -0.0952,2.38567 l -0.47777,0.47777 H 100.76533 52.475322 Z m 92.563226,-3.17444 c 0,-0.21807 -0.66048,-1.17821 -9.40459,-13.671294 -4.38338,-6.26275 -8.18314,-11.616659 -8.4439,-11.897576 -0.34558,-0.372286 -1.68073,-0.946175 -4.92486,-2.116864 -4.75212,-1.714871 -5.26266,-1.792948 -5.68357,-0.869153 -0.19056,0.418238 -0.14111,0.593084 0.37014,1.308495 0.32454,0.454168 4.68109,6.694346 9.68121,13.867064 5.00013,7.172722 9.23283,13.150778 9.40601,13.284588 0.35255,0.27243 8.99956,0.36344 8.99956,0.0947 z m -13.62525,-0.14455 c 0,-0.0793 -9.22135,-13.318932 -18.69046,-26.835117 -1.139,-1.625811 -1.79666,-2.384299 -2.21845,-2.558608 -1.83491,-0.758289 -9.86045,-3.597663 -10.168859,-3.597663 -0.205244,0 -1.297528,0.940659 -2.502059,2.154756 -2.352638,2.371304 -2.983935,2.809933 -3.762911,2.614421 -0.285609,-0.07165 -1.55202,-1.156219 -2.859593,-2.448921 -1.290831,-1.276142 -2.492721,-2.320256 -2.670873,-2.320256 -0.17815,0 -2.100857,0.644522 -4.272693,1.432275 -2.171837,0.78775 -4.405663,1.592301 -4.964063,1.78789 -0.558402,0.195585 -1.231426,0.536459 -1.495611,0.757496 -0.414846,0.34709 -19.622429,27.708317 -20.171646,28.734537 -0.199722,0.37317 0.237512,0.37767 36.78755,0.37767 20.344318,0 36.989668,-0.0442 36.989668,-0.0985 z m -8.18747,-31.190909 c -0.0215,-0.25522 -10.78196,-15.494089 -10.9852,-15.557206 -0.25291,-0.07854 -4.37954,5.815309 -4.37954,6.255071 0,0.331501 5.86833,8.93344 6.25935,9.175101 0.11139,0.06885 0.56794,-0.272791 1.01452,-0.759213 1.21397,-1.322274 1.42836,-1.325781 4.85289,-0.07941 3.20614,1.166886 3.25622,1.18182 3.23798,0.965666 z M 96.184112,67.411483 c 1.265355,-1.269285 2.33633,-2.179939 2.642928,-2.247278 0.356626,-0.07833 1.61735,0.280151 4.09084,1.163189 1.96645,0.702026 3.64547,1.253038 3.73116,1.224474 0.21197,-0.07066 -12.433798,-18.152231 -12.695188,-18.152231 -0.260772,0 -12.908175,18.081996 -12.696706,18.152488 0.08527,0.02842 1.763946,-0.522705 3.730388,-1.224731 2.47349,-0.883038 3.73422,-1.241516 4.090839,-1.163189 0.306605,0.06735 1.37758,0.977993 2.642928,2.247278 1.170096,1.173735 2.174233,2.134061 2.231405,2.134061 0.05714,0 1.06131,-0.960326 2.231406,-2.134061 z M 118.13926,31.279578 c 0.0635,-0.06339 -1.10588,-1.311568 -2.59836,-2.773712 -3.62914,-3.555362 -3.62536,-3.226992 -0.0787,-6.830442 1.44585,-1.468989 2.56994,-2.729774 2.49797,-2.801745 -0.072,-0.07197 -5.01827,-0.130856 -10.99177,-0.130856 -10.262432,0 -10.871252,0.01932 -11.048565,0.350623 -0.246821,0.461201 -0.245437,11.492162 0.0015,11.953582 0.175364,0.327663 0.820961,0.347813 11.144395,0.347813 6.02702,0 11.01009,-0.05188 11.0735,-0.115263 z"
       id="path11096" /></g></svg>
